<svg width="24" height="24" viewBox="0 0 24 24" fill="none" xmlns="http://www.w3.org/2000/svg">
<path d="M12 18.75C11.8019 18.7474 11.6126 18.6676 11.4725 18.5275C11.3324 18.3874 11.2526 18.1981 11.25 18V11C11.25 10.8011 11.329 10.6103 11.4697 10.4697C11.6103 10.329 11.8011 10.25 12 10.25C12.1989 10.25 12.3897 10.329 12.5303 10.4697C12.671 10.6103 12.75 10.8011 12.75 11V18C12.7474 18.1981 12.6676 18.3874 12.5275 18.5275C12.3874 18.6676 12.1981 18.7474 12 18.75ZM13.25 7.00001C13.25 6.75278 13.1767 6.5111 13.0393 6.30554C12.902 6.09998 12.7068 5.93977 12.4784 5.84516C12.25 5.75055 11.9986 5.72579 11.7561 5.77402C11.5137 5.82226 11.2909 5.94131 11.1161 6.11612C10.9413 6.29094 10.8223 6.51367 10.774 6.75614C10.7258 6.99862 10.7505 7.24995 10.8452 7.47836C10.9398 7.70677 11.1 7.90199 11.3055 8.03934C11.5111 8.17669 11.7528 8.25001 12 8.25001C12.3315 8.25001 12.6495 8.11831 12.8839 7.88389C13.1183 7.64947 13.25 7.33153 13.25 7.00001ZM22.75 12C22.75 9.87386 22.1195 7.79545 20.9383 6.02763C19.7571 4.2598 18.0782 2.88194 16.1139 2.0683C14.1495 1.25466 11.9881 1.04177 9.90278 1.45656C7.81749 1.87135 5.90202 2.89519 4.39861 4.39861C2.89519 5.90202 1.87135 7.81749 1.45656 9.90278C1.04177 11.9881 1.25466 14.1495 2.0683 16.1139C2.88194 18.0782 4.2598 19.7571 6.02763 20.9383C7.79545 22.1195 9.87386 22.75 12 22.75C14.8503 22.7474 17.583 21.6139 19.5985 19.5985C21.6139 17.583 22.7474 14.8503 22.75 12ZM21.25 12C21.25 13.8295 20.7075 15.6179 19.6911 17.139C18.6747 18.6602 17.23 19.8458 15.5398 20.5459C13.8496 21.246 11.9897 21.4292 10.1954 21.0723C8.4011 20.7154 6.7529 19.8344 5.45927 18.5407C4.16563 17.2471 3.28465 15.5989 2.92774 13.8046C2.57083 12.0103 2.75401 10.1504 3.45412 8.46018C4.15423 6.76997 5.33983 5.32531 6.86098 4.30891C8.38214 3.29251 10.1705 2.75001 12 2.75001C14.4524 2.75265 16.8037 3.72805 18.5378 5.46219C20.272 7.19633 21.2474 9.54757 21.25 12Z" fill="url(#paint0_linear_216_337)"/>
<defs>
<linearGradient id="paint0_linear_216_337" x1="1.25" y1="12" x2="22.75" y2="12" gradientUnits="userSpaceOnUse">
<stop stop-color="#B38934"/>
<stop offset="1" stop-color="#E8CC7B"/>
</linearGradient>
</defs>
</svg>
