<svg width="64" height="64" viewBox="0 0 64 64" fill="none" xmlns="http://www.w3.org/2000/svg">
<path fill-rule="evenodd" clip-rule="evenodd" d="M14.262 26.4024C19.8526 26.4024 24.3913 30.9412 24.3913 36.5317C24.3913 42.1222 19.8526 46.661 14.262 46.661C8.67154 46.661 4.13281 42.1222 4.13281 36.5317C4.13281 30.9412 8.67154 26.4024 14.262 26.4024ZM14.262 28.1593C9.6412 28.1593 5.88968 31.9108 5.88968 36.5317C5.88968 41.1525 9.6412 44.9042 14.262 44.9042C18.8829 44.9042 22.6345 41.1525 22.6345 36.5317C22.6345 31.9108 18.8829 28.1593 14.262 28.1593ZM13.3348 35.7972L16.7313 32.4006C17.6264 31.5056 19.0797 31.5056 19.9748 32.4006C20.8699 33.2957 20.8699 34.7491 19.9748 35.6441L14.9565 40.6625C14.0608 41.5582 12.6087 41.5582 11.7129 40.6625L8.54931 37.4989C7.65419 36.6037 7.65419 35.1504 8.54931 34.2553C9.44444 33.3602 10.8977 33.3602 11.7929 34.2553L13.3348 35.7972ZM9.79154 36.2565L12.9553 39.4202C13.1648 39.6298 13.5047 39.6298 13.7142 39.4202L18.7326 34.4019C18.942 34.1924 18.942 33.8524 18.7326 33.6429C18.5231 33.4335 18.1831 33.4335 17.9736 33.6429L14.1119 37.5045C13.6827 37.9338 12.9868 37.9338 12.5575 37.5045L10.5505 35.4975C10.3411 35.2881 10.001 35.2881 9.79154 35.4975C9.5821 35.707 9.5821 36.0471 9.79154 36.2565ZM34.9371 21.1203C35.3525 21.3628 36.0871 21.8046 36.8908 21.8046H39.3678C40.2361 21.8046 40.8947 21.3696 41.3227 21.1195C41.3235 21.1191 41.3242 21.1186 41.325 21.1183C41.325 21.1183 53.2449 14.2015 53.2426 14.2027C54.2495 13.6144 55.4493 13.4517 56.5765 13.7506C57.6969 14.0478 58.585 14.6799 59.265 15.8243C60.4676 17.8482 59.7878 20.4705 57.7805 21.7003L45.8796 28.9918V37.7727C45.8796 37.7727 54.1036 54.0027 54.1017 53.9993C55.2179 56.0973 54.6381 58.2874 52.6806 59.637C51.7176 60.3009 50.2021 60.6241 49.0722 60.3214C47.944 60.019 46.9819 59.2808 46.3979 58.2692C46.3941 58.2626 46.3904 58.2559 46.3867 58.2493C46.3867 58.2493 38.8849 44.437 38.8839 44.4352C38.7468 44.2056 38.4988 44.0645 38.2309 44.0645C37.9623 44.0645 37.7141 44.2059 37.5767 44.437L30.0755 58.2482C30.0719 58.2548 30.0682 58.2615 30.0644 58.2681C29.4802 59.2799 28.5178 60.0183 27.3893 60.3208C26.2606 60.6232 25.0581 60.465 24.0461 59.8807L23.9882 59.8473C21.967 58.6804 21.2322 56.1235 22.3239 54.0621L30.3798 38.1232V28.9919L18.9218 21.976C16.8975 20.7366 16.1354 18.3211 17.4102 16.0559C17.9835 15.037 18.9565 14.3024 20.0864 14.0026C21.2118 13.7039 22.4097 13.8654 23.4158 14.4512C23.5485 14.5271 28.001 17.0709 34.9371 21.1203ZM34.0514 22.6376C27.0178 18.5313 22.5415 15.9752 22.5415 15.9752C22.539 15.9738 22.5366 15.9723 22.5342 15.9709C21.931 15.6188 21.2122 15.5215 20.537 15.7006C19.8648 15.879 19.2824 16.3114 18.9413 16.9173C18.1752 18.2787 18.6228 19.7328 19.8393 20.4778L31.7171 27.7507C31.9777 27.9103 32.1367 28.194 32.1367 28.4997V38.3326C32.1367 38.4703 32.1043 38.6059 32.0423 38.7288L23.888 54.8622C23.8852 54.8678 23.8823 54.8734 23.8793 54.8789C23.2259 56.1062 23.6625 57.6305 24.8667 58.3258L24.9245 58.3592C25.5329 58.7105 26.256 58.8056 26.9345 58.6238C27.6096 58.4429 28.1858 58.0026 28.5376 57.3987L36.0394 43.5864C36.0431 43.5796 36.0468 43.573 36.0506 43.5664C36.5004 42.7875 37.3314 42.3076 38.2308 42.3076C39.1303 42.3076 39.9613 42.7875 40.411 43.5664C40.4148 43.573 40.4186 43.5796 40.4222 43.5864C40.4222 43.5864 47.9247 57.3999 47.9264 57.4027C48.2781 58.0047 48.8532 58.4438 49.527 58.6244C50.2036 58.8057 51.1067 58.5881 51.6834 58.1906C52.8549 57.3829 53.2184 56.0763 52.5488 54.8208C52.5459 54.8154 52.5432 54.81 52.5404 54.8045L44.2176 38.3797C44.1553 38.2566 44.1228 38.1205 44.1228 37.9826V28.4997C44.1228 28.1941 44.2818 27.9104 44.5423 27.7508L56.8627 20.2023C58.0527 19.4731 58.4677 17.9216 57.7548 16.7218C57.3408 16.0251 56.8083 15.6297 56.1263 15.4487C55.4509 15.2698 54.7321 15.3672 54.129 15.7197C54.1282 15.7202 54.1273 15.7205 54.1266 15.721L42.2078 22.6372C41.5904 22.998 40.6196 23.5614 39.3678 23.5614H36.8908C35.7315 23.5614 34.6505 22.9873 34.0514 22.6376ZM38.3398 3.5293C42.4057 3.5293 45.7067 6.83032 45.7067 10.8962C45.7067 14.9621 42.4057 18.2631 38.3398 18.2631C34.2739 18.2631 30.9729 14.9621 30.9729 10.8962C30.9729 6.83032 34.2739 3.5293 38.3398 3.5293ZM38.3398 5.28616C35.2435 5.28616 32.7298 7.79998 32.7298 10.8962C32.7298 13.9924 35.2435 16.5062 38.3398 16.5062C41.436 16.5062 43.9498 13.9924 43.9498 10.8962C43.9498 7.79998 41.436 5.28616 38.3398 5.28616Z" fill="url(#paint0_linear_174_1462)"/>
<defs>
<linearGradient id="paint0_linear_174_1462" x1="4.13281" y1="32.0001" x2="59.8608" y2="32.0001" gradientUnits="userSpaceOnUse">
<stop stop-color="#B38934"/>
<stop offset="1" stop-color="#E8CC7B"/>
</linearGradient>
</defs>
</svg>
