<svg width="24" height="24" viewBox="0 0 24 24" fill="none" xmlns="http://www.w3.org/2000/svg">
<g clip-path="url(#clip0_216_362)">
<path d="M4.6875 15.1533H7.5C8.01778 15.1533 8.4375 14.7336 8.4375 14.2158C8.4375 13.698 8.01778 13.2783 7.5 13.2783H4.6875C4.16972 13.2783 3.75 13.698 3.75 14.2158C3.75 14.7336 4.16972 15.1533 4.6875 15.1533Z" fill="url(#paint0_linear_216_362)"/>
<path d="M4.6875 11.4033H7.5C8.01778 11.4033 8.4375 10.9836 8.4375 10.4658C8.4375 9.94804 8.01778 9.52832 7.5 9.52832H4.6875C4.16972 9.52832 3.75 9.94804 3.75 10.4658C3.75 10.9836 4.16972 11.4033 4.6875 11.4033Z" fill="url(#paint1_linear_216_362)"/>
<path d="M10.1925 14.2158C10.1925 14.7336 10.6122 15.1533 11.13 15.1533C13.0904 15.1533 14.9334 14.3899 16.3196 13.0037L23.1755 6.1471C24.2746 5.04802 24.2748 3.26888 23.1755 2.16961C22.079 1.07302 20.2947 1.07302 19.198 2.16961L12.3421 9.02621C10.956 10.4124 10.1925 12.2554 10.1925 14.2158ZM20.5239 3.49547C20.8894 3.12994 21.4842 3.12994 21.8497 3.49547C22.2161 3.86175 22.2162 4.45486 21.8497 4.82129L14.9937 11.6779C14.21 12.4616 13.2301 12.978 12.1647 13.1811C12.3678 12.1157 12.8842 11.1358 13.6679 10.3521L20.5239 3.49547Z" fill="url(#paint2_linear_216_362)"/>
<path d="M2.8125 22.6533C3.50513 22.6533 4.17084 22.3992 4.68712 21.9375L5.98308 20.7783H15.5625C18.1472 20.7783 20.25 18.6755 20.25 16.0908V13.9879C20.25 13.4701 19.8303 13.0504 19.3125 13.0504C18.7947 13.0504 18.375 13.4701 18.375 13.9879V16.0908C18.375 17.6416 17.1133 18.9033 15.5625 18.9033H5.625C5.39437 18.9033 5.17186 18.9883 4.99997 19.1421L3.43725 20.5399C3.26527 20.6937 3.04341 20.7783 2.8125 20.7783C2.29556 20.7783 1.875 20.3578 1.875 19.8408V8.59082C1.875 7.04001 3.13669 5.77832 4.6875 5.77832H12.5507C13.0685 5.77832 13.4882 5.3586 13.4882 4.84082C13.4882 4.32304 13.0685 3.90332 12.5507 3.90332H4.6875C2.10277 3.90332 0 6.00613 0 8.59082V19.8408C0 21.3916 1.26169 22.6533 2.8125 22.6533Z" fill="url(#paint3_linear_216_362)"/>
</g>
<defs>
<linearGradient id="paint0_linear_216_362" x1="3.75" y1="14.2158" x2="8.4375" y2="14.2158" gradientUnits="userSpaceOnUse">
<stop stop-color="#B38934"/>
<stop offset="1" stop-color="#E8CC7B"/>
</linearGradient>
<linearGradient id="paint1_linear_216_362" x1="3.75" y1="10.4658" x2="8.4375" y2="10.4658" gradientUnits="userSpaceOnUse">
<stop stop-color="#B38934"/>
<stop offset="1" stop-color="#E8CC7B"/>
</linearGradient>
<linearGradient id="paint2_linear_216_362" x1="10.1925" y1="8.25023" x2="23.9999" y2="8.25023" gradientUnits="userSpaceOnUse">
<stop stop-color="#B38934"/>
<stop offset="1" stop-color="#E8CC7B"/>
</linearGradient>
<linearGradient id="paint3_linear_216_362" x1="0" y1="13.2783" x2="20.25" y2="13.2783" gradientUnits="userSpaceOnUse">
<stop stop-color="#B38934"/>
<stop offset="1" stop-color="#E8CC7B"/>
</linearGradient>
<clipPath id="clip0_216_362">
<rect width="24" height="24" fill="white"/>
</clipPath>
</defs>
</svg>
