<svg width="64" height="64" viewBox="0 0 64 64" fill="none" xmlns="http://www.w3.org/2000/svg">
<path d="M32 2.20001C15.568 2.20001 2.20001 15.568 2.20001 32C2.20001 32.26 2.20201 32.494 2.22801 32.754C2.32401 33.742 3.20001 34.464 4.19401 34.37C5.18401 34.274 5.90601 33.394 5.81001 32.404C5.79801 32.266 5.80001 32.14 5.80001 32C5.80001 17.554 17.554 5.80001 32 5.80001C46.446 5.80001 58.2 17.554 58.2 32C58.2 46.446 46.446 58.2 32 58.2C31.856 58.198 31.732 58.202 31.594 58.19C30.604 58.086 29.724 58.816 29.628 59.806C29.532 60.796 30.254 61.676 31.244 61.772C31.506 61.798 31.74 61.8 32 61.8C48.432 61.8 61.8 48.432 61.8 32C61.8 15.568 48.432 2.20001 32 2.20001Z" fill="url(#paint0_linear_63_1082)"/>
<path d="M32 15.512C31.006 15.512 30.2 16.318 30.2 17.312V32C30.2 32.558 30.458 33.084 30.898 33.424L40.274 40.674C40.602 40.928 40.99 41.05 41.374 41.05C41.912 41.05 42.444 40.81 42.798 40.352C43.406 39.564 43.262 38.436 42.476 37.826L33.8 31.116V17.312C33.8 16.318 32.994 15.512 32 15.512Z" fill="url(#paint1_linear_63_1082)"/>
<path d="M14.834 36.534C7.86803 36.534 2.20203 42.2 2.20203 49.168C2.20203 56.134 7.86803 61.8 14.834 61.8C21.8 61.8 27.468 56.134 27.468 49.168C27.466 42.2 21.8 36.534 14.834 36.534ZM14.834 58.2C9.85403 58.2 5.80003 54.148 5.80003 49.166C5.80003 44.184 9.85203 40.132 14.834 40.132C19.816 40.132 23.868 44.184 23.868 49.166C23.868 54.148 19.814 58.2 14.834 58.2Z" fill="url(#paint2_linear_63_1082)"/>
<path d="M18.542 47.368H16.632V45.458C16.632 44.464 15.826 43.658 14.832 43.658C13.838 43.658 13.032 44.464 13.032 45.458V47.368H11.126C10.132 47.368 9.32599 48.174 9.32599 49.168C9.32599 50.162 10.132 50.968 11.126 50.968H13.034V52.876C13.034 53.87 13.84 54.676 14.834 54.676C15.828 54.676 16.634 53.87 16.634 52.876V50.968H18.544C19.538 50.968 20.344 50.162 20.344 49.168C20.344 48.174 19.536 47.368 18.542 47.368Z" fill="url(#paint3_linear_63_1082)"/>
<defs>
<linearGradient id="paint0_linear_63_1082" x1="2.20001" y1="32" x2="61.8" y2="32" gradientUnits="userSpaceOnUse">
<stop stop-color="#B38934"/>
<stop offset="1" stop-color="#E8CC7B"/>
</linearGradient>
<linearGradient id="paint1_linear_63_1082" x1="30.2" y1="28.281" x2="43.1743" y2="28.281" gradientUnits="userSpaceOnUse">
<stop stop-color="#B38934"/>
<stop offset="1" stop-color="#E8CC7B"/>
</linearGradient>
<linearGradient id="paint2_linear_63_1082" x1="2.20203" y1="49.167" x2="27.468" y2="49.167" gradientUnits="userSpaceOnUse">
<stop stop-color="#B38934"/>
<stop offset="1" stop-color="#E8CC7B"/>
</linearGradient>
<linearGradient id="paint3_linear_63_1082" x1="9.32599" y1="49.167" x2="20.344" y2="49.167" gradientUnits="userSpaceOnUse">
<stop stop-color="#B38934"/>
<stop offset="1" stop-color="#E8CC7B"/>
</linearGradient>
</defs>
</svg>
