<svg width="40" height="39" viewBox="0 0 40 39" fill="none" xmlns="http://www.w3.org/2000/svg">
<g clip-path="url(#clip0_208_497)">
<path d="M35.9492 9.28247C35.5171 9.28247 35.1679 9.6238 35.1679 10.0443C35.1679 10.4656 35.5172 10.8061 35.9492 10.8061C36.3806 10.8061 36.7306 10.4655 36.7306 10.0443C36.7306 9.62372 36.3806 9.28247 35.9492 9.28247Z" fill="white"/>
<path d="M26.5729 4.71143C26.1408 4.71143 25.7916 5.05275 25.7916 5.47322C25.7916 5.89452 26.1409 6.23501 26.5729 6.23501C27.0042 6.23501 27.3542 5.89445 27.3542 5.47322C27.3543 5.05275 27.0042 4.71143 26.5729 4.71143Z" fill="white"/>
<path d="M23.4475 10.8062C23.0154 10.8062 22.6661 11.1475 22.6661 11.5679C22.6661 11.9893 23.0154 12.3297 23.4475 12.3297C23.8788 12.3297 24.2288 11.9892 24.2288 11.5679C24.2289 11.1474 23.8788 10.8062 23.4475 10.8062Z" fill="white"/>
<path d="M21.8848 6.23511C21.4527 6.23511 21.1035 6.57643 21.1035 6.9969C21.1035 7.41821 21.4528 7.75869 21.8848 7.75869C22.3161 7.75869 22.6661 7.41813 22.6661 6.9969C22.6661 6.57643 22.3161 6.23511 21.8848 6.23511Z" fill="white"/>
<path d="M36.1331 12.3324C35.7041 12.288 35.3191 12.5907 35.2731 13.0089C35.0825 14.7475 34.3065 16.3248 33.0291 17.5703C31.8224 18.7476 30.2955 19.4928 28.6135 19.7254C28.1863 19.7844 27.8891 20.1701 27.9496 20.5866C28.0049 20.967 28.3394 21.2416 28.7222 21.2416C28.7587 21.2416 28.7957 21.2391 28.8329 21.234C30.853 20.9546 32.6862 20.0602 34.1342 18.6475C35.6668 17.1533 36.598 15.2595 36.827 13.1709C36.8728 12.7526 36.5621 12.3772 36.1331 12.3324Z" fill="white"/>
<path d="M36.3448 3.56393C31.4703 -1.18796 23.5388 -1.18804 18.664 3.56409C16.733 5.44751 15.5102 7.83191 15.1277 10.4595C14.6172 13.9603 14.4047 17.4142 12.0787 19.6819C12.0376 19.7316 11.4336 20.237 11.1035 21.1754C10.7969 22.0407 10.8213 22.9729 11.1591 23.8102L6.67039 28.1869C5.14727 26.7019 2.66915 26.7019 1.14618 28.1867C-0.381548 29.6754 -0.381626 32.0845 1.14603 33.5739C2.0486 34.454 3.28626 34.8125 4.46227 34.6497C4.29524 35.7961 4.6629 37.0031 5.56539 37.883C7.0925 39.3719 9.56335 39.3729 11.0905 37.883C12.6137 36.398 12.6137 33.9817 11.0917 32.4978C11.0914 32.4975 11.091 32.4972 11.0906 32.4968L15.5808 28.1189C17.1042 28.7027 18.7833 28.2839 19.8226 27.2137C22.0395 24.9675 25.8984 24.7183 29.2722 24.2508C31.9672 23.8779 34.4128 22.6857 36.3449 20.8027C41.2187 16.0499 41.2187 8.31674 36.3448 3.56393ZM9.36359 32.026C9.0025 32.3781 9.07953 32.9688 9.52 33.2213C10.8302 33.9728 11.0707 35.7477 9.98538 36.8059C9.06937 37.6995 7.58734 37.6998 6.67047 36.8057C5.75664 35.9148 5.75664 34.4652 6.67047 33.5743C6.97563 33.2767 6.97563 32.7945 6.67047 32.4969C6.36531 32.1994 5.87063 32.1994 5.56539 32.4969C4.65165 33.3878 3.16485 33.3878 2.2511 32.4969C1.33454 31.6031 1.33392 30.1582 2.2511 29.2645C3.33454 28.208 5.15539 28.439 5.92735 29.7184C6.18633 30.1478 6.79203 30.2231 7.15336 29.8709L12.0344 25.1118C12.4156 25.484 12.8712 25.7743 13.3696 25.965C13.5651 26.4513 13.8631 26.8956 14.2447 27.2669L9.36359 32.026ZM35.2401 19.7254C33.5496 21.373 31.4101 22.4162 29.0528 22.7425C25.403 23.2479 21.2815 23.5385 18.6929 26.1613C18.6835 26.1709 18.6741 26.18 18.6643 26.1896C17.3715 27.4502 15.1988 26.8348 14.743 25.1663C14.6709 24.9025 14.4596 24.6965 14.189 24.6263C12.8959 24.2903 12.1308 22.9427 12.5813 21.6715C12.7773 21.1143 13.1605 20.7863 13.1786 20.7645C15.866 18.2401 16.1636 14.1817 16.675 10.6738C17.0097 8.37547 18.0797 6.28943 19.7692 4.64146C24.0346 0.483471 30.9747 0.483471 35.2399 4.64146C39.5046 8.80013 39.5046 15.5668 35.2401 19.7254Z" fill="white"/>
</g>
<defs>
<clipPath id="clip0_208_497">
<rect width="40" height="39" fill="white"/>
</clipPath>
</defs>
</svg>
