<svg width="64" height="64" viewBox="0 0 64 64" fill="none" xmlns="http://www.w3.org/2000/svg">
<g clip-path="url(#clip0_63_1072)">
<path d="M63.3487 19.0862L41.8487 7.28049C41.4742 7.07492 41.0201 7.07492 40.6456 7.28049L32.5606 11.7199C32.378 11.7707 32.2076 11.864 32.0631 11.9929L19.1456 19.0862C18.7457 19.3059 18.4972 19.7258 18.4972 20.1819V22.7375H4.07529C3.38486 22.7375 2.82529 23.2976 2.82529 23.9875C2.82529 24.6779 3.38486 25.2375 4.07529 25.2375H18.4972V29.7375H11.3307C10.6402 29.7375 10.0807 30.2976 10.0807 30.9875C10.0807 31.6779 10.6402 32.2375 11.3307 32.2375H18.4972V38.7375H7.99716C7.30673 38.7375 6.74716 39.2976 6.74716 39.9875C6.74716 40.6779 7.30673 41.2375 7.99716 41.2375H18.4972V43.7937C18.4972 44.2497 18.7457 44.6696 19.1456 44.8894L40.6456 56.695C40.8331 56.7981 41.0401 56.8493 41.2472 56.8493C41.4542 56.8493 41.6612 56.7981 41.8487 56.695L63.3487 44.8894C63.7486 44.6696 63.9972 44.2497 63.9972 43.7937V38.196C63.9972 37.5061 63.4376 36.946 62.7472 36.946C62.0567 36.946 61.4972 37.5061 61.4972 38.196V43.0539L42.4972 53.487V32.7273L48.5396 29.4094V34.675C48.5396 35.1174 48.773 35.5266 49.1534 35.7512C49.3492 35.8669 49.5694 35.925 49.7896 35.925C49.9967 35.925 50.2042 35.8737 50.3922 35.7702L54.9996 33.2346C55.3985 33.0149 55.6466 32.5954 55.6466 32.1394V25.507L61.4972 22.2946V28.196C61.4972 28.8864 62.0567 29.446 62.7472 29.446C63.4376 29.446 63.9972 28.8864 63.9972 28.196V20.1819C63.9972 19.7258 63.7486 19.3059 63.3487 19.0862ZM39.9972 53.487L20.9972 43.0539V22.2946L30.4972 27.511L39.9972 32.7273V53.487ZM41.2472 30.5617L22.3443 20.1819L28.2852 16.9196L47.1886 27.2995L41.2472 30.5617ZM49.7857 25.8733L30.8824 15.4934L32.9317 14.3684L51.8346 24.7483L49.7857 25.8733ZM53.1466 31.4006L51.0396 32.5603V28.0368L53.1466 26.8796V31.4006ZM54.4317 23.322L35.5289 12.9421L41.2472 9.80246L60.15 20.1819L54.4317 23.322Z" fill="url(#paint0_linear_63_1072)"/>
<path d="M62.7474 31.9466C62.4188 31.9466 62.096 32.0789 61.8636 32.3128C61.6312 32.5453 61.4974 32.8665 61.4974 33.1966C61.4974 33.5252 61.6312 33.848 61.8636 34.0804C62.096 34.3128 62.4188 34.4466 62.7474 34.4466C63.076 34.4466 63.3988 34.3128 63.6312 34.0804C63.8636 33.848 63.9974 33.5252 63.9974 33.1966C63.9974 32.8665 63.8636 32.5453 63.6312 32.3128C63.3988 32.0789 63.076 31.9466 62.7474 31.9466Z" fill="url(#paint1_linear_63_1072)"/>
<path d="M3.03891 38.7376H1.24741C0.556976 38.7376 -0.00259399 39.2977 -0.00259399 39.9876C-0.00259399 40.6781 0.556976 41.2376 1.24741 41.2376H3.03891C3.72934 41.2376 4.28891 40.6781 4.28891 39.9876C4.28891 39.2977 3.72934 38.7376 3.03891 38.7376Z" fill="url(#paint2_linear_63_1072)"/>
<path d="M7.58115 30.9876C7.58115 30.659 7.44736 30.3368 7.21445 30.1043C6.98203 29.8714 6.65976 29.7376 6.33115 29.7376C6.00204 29.7376 5.67978 29.8714 5.44736 30.1043C5.21347 30.3368 5.08115 30.659 5.08115 30.9876C5.08115 31.3167 5.21347 31.639 5.44736 31.8714C5.67978 32.1039 6.00204 32.2376 6.33115 32.2376C6.65976 32.2376 6.98203 32.1043 7.21445 31.8714C7.44736 31.639 7.58115 31.3167 7.58115 30.9876Z" fill="url(#paint3_linear_63_1072)"/>
</g>
<defs>
<linearGradient id="paint0_linear_63_1072" x1="2.82529" y1="31.9878" x2="63.9972" y2="31.9878" gradientUnits="userSpaceOnUse">
<stop stop-color="#B38934"/>
<stop offset="1" stop-color="#E8CC7B"/>
</linearGradient>
<linearGradient id="paint1_linear_63_1072" x1="61.4974" y1="33.1966" x2="63.9974" y2="33.1966" gradientUnits="userSpaceOnUse">
<stop stop-color="#B38934"/>
<stop offset="1" stop-color="#E8CC7B"/>
</linearGradient>
<linearGradient id="paint2_linear_63_1072" x1="-0.00259399" y1="39.9876" x2="4.28891" y2="39.9876" gradientUnits="userSpaceOnUse">
<stop stop-color="#B38934"/>
<stop offset="1" stop-color="#E8CC7B"/>
</linearGradient>
<linearGradient id="paint3_linear_63_1072" x1="5.08115" y1="30.9876" x2="7.58115" y2="30.9876" gradientUnits="userSpaceOnUse">
<stop stop-color="#B38934"/>
<stop offset="1" stop-color="#E8CC7B"/>
</linearGradient>
<clipPath id="clip0_63_1072">
<rect width="64" height="64" fill="white"/>
</clipPath>
</defs>
</svg>
