<svg width="42" height="42" viewBox="0 0 42 42" fill="none" xmlns="http://www.w3.org/2000/svg">
<path d="M41.1736 32.7052H41.0108C41.7539 31.2703 41.1287 30.0894 40.0681 29.7927L39.1821 29.545C39.2564 28.783 39.0293 27.9932 38.4855 27.3734C38.4711 27.3446 34.5726 23.4654 36.3946 17.8533C36.4071 17.755 36.9657 16.6274 36.2556 15.3389L36.9714 14.7611C38.8277 13.2631 36.4126 10.2702 33.7363 11.1889C32.9054 11.4741 32.4142 12.338 32.5936 13.1981L32.7673 14.0283C31.2552 14.5791 30.9722 16.0217 30.9373 16.0817C30.6633 16.9257 30.464 17.7915 30.3403 18.6704C28.4296 16.7876 27.1777 16.7735 25.015 12.0067C24.6763 11.2598 24.0217 10.7358 23.2716 10.5279L22.177 7.43697C23.3292 6.69292 23.7407 5.21091 23.1418 3.97595C22.2648 2.1671 19.724 1.90819 18.5186 3.57829C18.4641 3.65392 18.3776 3.68436 18.2875 3.66001C16.2989 3.12039 14.4884 4.92188 14.9447 6.87845C15.2552 8.20986 16.5024 9.10771 17.8726 8.96127L18.9668 12.0522C18.5147 12.6857 18.3356 13.5047 18.5423 14.2984C18.8015 15.295 19.0944 16.5918 19.1758 17.6172C14.5734 13.4986 6.70445 15.9041 6.492 21.5326C6.43016 23.1745 6.11646 23.7974 5.86427 24.031C5.59222 24.2825 5.1497 24.2787 4.44987 24.2511C3.52158 24.2143 2.36577 24.1691 1.416 25.1349C-1.0882 27.682 0.749496 30.9043 3.92468 32.7048C2.81117 32.7048 1.91908 32.7048 0.826401 32.7048C0.370102 32.7048 0 33.0749 0 33.5312C0 33.9875 0.370102 34.3576 0.826401 34.3576H1.79475V36.469C1.79475 38.1458 3.15884 39.5102 4.836 39.5102H37.164C38.8408 39.5102 40.2052 38.1458 40.2052 36.469V34.3576H41.1736C41.6299 34.3576 42 33.9875 42 33.5312C42 33.0749 41.6299 32.7052 41.1736 32.7052ZM34.2727 12.7523C34.9088 12.5341 35.6006 12.7809 35.9544 13.3528C36.0354 13.4836 35.8278 13.5227 35.0652 14.1757C34.9331 14.1075 34.7588 14.0363 34.631 13.9947H34.6306C34.6223 13.9924 34.5348 13.9636 34.4368 13.9392C34.2589 12.9414 34.1304 12.8014 34.2727 12.7523ZM32.5885 16.3479C32.8564 15.5225 33.8901 15.2303 34.5489 15.8112C35.2664 16.4453 34.8271 17.2749 34.8229 17.3429C33.6004 21.1077 34.4627 25.2948 37.0736 28.2703L37.2428 28.4632C37.7776 29.0727 37.5783 30.0407 36.8186 30.3785C36.3459 30.5861 35.7727 30.4756 35.4144 30.0673C35.2699 29.8905 34.6806 29.3018 33.9359 28.1127C34.2182 26.5874 34.0741 24.9894 33.5565 23.5388C33.1698 22.4464 32.5497 21.3579 31.848 20.4078C31.9172 18.1315 32.5472 16.5101 32.5885 16.3479ZM36.6129 32.7052H31.327C32.1508 32.0153 32.8237 31.135 33.3028 30.1035C34.2102 31.3052 34.9854 32.2143 36.4956 32.1277L36.6129 32.7052ZM22.2013 12.1397C22.7092 11.9602 23.2866 12.197 23.51 12.6895C24.651 15.2046 25.8152 17.1708 28.031 18.8492C28.8593 19.4767 29.644 20.2515 30.3615 21.1817C35.6708 28.0736 29.6851 34.928 24.0829 32.0287C22.7214 31.3244 21.6252 30.1471 20.9628 28.6882C22.656 25.7415 22.4564 22.3974 20.8161 19.6241C20.9939 17.5845 20.6642 15.8904 20.1416 13.8825C20.0409 13.4957 20.1784 13.0933 20.4655 12.8373C20.7203 12.6117 20.9676 12.5783 22.2013 12.1397ZM22.0831 32.7052H16.7741C17.9809 32.0345 19.0383 31.1821 19.8875 30.1971C20.4601 31.1776 21.2051 32.0294 22.0831 32.7052ZM17.9341 7.26361C17.6832 7.35974 17.3528 7.3466 17.0756 7.19504C16.8094 7.04924 16.6241 6.80379 16.5543 6.50322C16.3768 5.74251 17.0849 5.04717 17.8543 5.25513C18.6124 5.46085 19.3991 5.18239 19.8586 4.54569C20.3232 3.90161 21.3124 3.99165 21.6546 4.69725C21.9148 5.23398 21.7037 5.91042 21.0606 6.15683C20.5181 6.34845 20.247 6.93709 20.4328 7.4626L21.5499 10.6173C21.1339 10.7644 20.7767 10.8913 20.3611 11.0383L19.244 7.88333C19.0582 7.35814 18.4769 7.07103 17.9341 7.26361ZM2.59456 26.2939C3.54112 25.331 5.54512 26.5788 6.98708 25.2438C7.70741 24.577 8.07495 23.4174 8.14352 21.5947C8.2403 19.0309 10.5119 17.5739 12.7203 17.2676C18.97 16.4005 22.6022 23.6494 19.1021 28.528C17.1823 31.2036 13.6986 32.7052 10.2561 32.7052C5.04268 32.7052 0.0954895 28.8356 2.59456 26.2939ZM38.5524 36.469C38.5524 37.2348 37.9295 37.8577 37.164 37.8577H4.836C4.07016 37.8577 3.44724 37.2348 3.44724 36.469V34.3576H26.698C26.7258 34.358 26.7537 34.3589 26.7816 34.3589C26.8021 34.3589 26.8223 34.358 26.8428 34.3576H38.5524V36.469ZM38.3829 32.7048C38.2317 32.7157 38.2945 32.5276 38.0644 31.5497C38.2477 31.41 38.4214 31.2382 38.5483 31.0841C39.5346 31.3914 39.7121 31.3401 39.6903 31.4885C39.5913 32.1537 39.0536 32.6539 38.3829 32.7048Z" fill="white"/>
<path d="M27.9778 23.3728C28.0005 23.3933 30.2311 25.4425 28.7901 28.3299C28.5863 28.7382 28.7519 29.2345 29.1605 29.4383C29.5687 29.6421 30.0651 29.4761 30.2689 29.0679C31.3109 26.9796 30.9351 25.2057 30.4365 24.0855C29.9033 22.8883 29.1144 22.1725 29.081 22.1427C28.7414 21.8379 28.2191 21.8661 27.9143 22.2061C27.6096 22.5458 27.6378 23.0684 27.9778 23.3728Z" fill="white"/>
<path d="M27.907 31.5446C28.3312 31.5446 28.6923 31.2197 28.7295 30.7894V30.7868C28.7689 30.3324 28.4318 29.9332 27.9771 29.8938C27.5228 29.856 27.1222 30.1927 27.0828 30.6474C27.0415 31.1294 27.4212 31.5446 27.907 31.5446Z" fill="white"/>
<path d="M13.0068 31.1597C13.0116 31.1591 13.0167 31.1581 13.0215 31.1575C15.3527 30.7704 17.4246 29.398 18.5634 27.4866C20.5905 24.0836 18.9752 20.1128 16.2063 18.7689C13.0314 17.2276 9.23299 19.1893 9.33874 22.8179C9.37078 23.9154 8.91224 24.8187 7.97561 25.5025C5.6233 27.221 6.61408 31.2636 11.6302 31.2636C12.0717 31.2636 12.5328 31.2299 13.0068 31.1597ZM8.43223 27.9977C8.36269 27.5661 8.56136 27.1216 8.95037 26.8371C10.6977 25.5611 11.0245 23.9208 10.9909 22.7698C10.8906 19.3447 16.1159 18.5378 17.5787 22.7855C18.0183 24.0621 17.8639 25.4313 17.1432 26.6406C16.2515 28.1377 14.6124 29.2157 12.7578 29.5258C10.5221 29.8543 8.62289 29.1836 8.43223 27.9977Z" fill="white"/>
<path d="M14.1087 25.5955C15.3526 25.5846 16.3508 24.5694 16.3402 23.3255C16.3232 21.333 13.8889 20.3381 12.4844 21.7666C11.0745 23.2005 12.1291 25.6195 14.1087 25.5955ZM14.0898 22.7465C14.4176 22.7465 14.6849 23.0105 14.6877 23.3396C14.6919 23.8738 14.0469 24.1413 13.67 23.7712C13.2903 23.3979 13.556 22.7465 14.0898 22.7465Z" fill="white"/>
</svg>
