<svg width="24" height="24" viewBox="0 0 24 24" fill="none" xmlns="http://www.w3.org/2000/svg">
<path d="M22.6676 6.41443L12.1676 1.16443C12.1156 1.13842 12.0582 1.12488 12 1.12488C11.9418 1.12488 11.8844 1.13842 11.8324 1.16443L1.33238 6.41443C1.27004 6.44558 1.21762 6.49348 1.18099 6.55276C1.14436 6.61205 1.12497 6.68037 1.12501 6.75005V17.2501C1.12462 17.3201 1.14384 17.3888 1.18049 17.4484C1.21714 17.5081 1.26976 17.5563 1.33238 17.5876L11.8324 22.8376C11.8844 22.8636 11.9418 22.8771 12 22.8771C12.0582 22.8771 12.1156 22.8636 12.1676 22.8376L22.6676 17.5876C22.7303 17.5563 22.7829 17.5081 22.8195 17.4484C22.8562 17.3888 22.8754 17.3201 22.875 17.2501V6.75005C22.875 6.68037 22.8557 6.61205 22.819 6.55276C22.7824 6.49348 22.73 6.44558 22.6676 6.41443ZM12 11.5808L9.06863 10.1149L18.4384 5.13755L21.6634 6.75005L12 11.5808ZM6.06863 8.61493L15.4384 3.63755L17.6134 4.72505L8.24476 9.70318L6.06863 8.61493ZM5.62501 9.2318L7.87501 10.3568V13.3448L7.01513 12.4849C6.94482 12.4146 6.84945 12.3751 6.75001 12.3751H5.62501V9.2318ZM12 1.9193L14.6145 3.22505L5.24476 8.20318L2.33851 6.75005L12 1.9193ZM1.87501 7.3568L4.87501 8.8568V12.7501C4.87501 12.8495 4.91452 12.9449 4.98484 13.0152C5.05517 13.0855 5.15055 13.1251 5.25001 13.1251H6.59476L7.98488 14.5152C8.03733 14.5676 8.10414 14.6033 8.17687 14.6178C8.2496 14.6322 8.32499 14.6248 8.3935 14.5964C8.46201 14.5681 8.52058 14.52 8.56178 14.4583C8.60299 14.3967 8.62499 14.3242 8.62501 14.2501V10.7318L11.625 12.2318V21.8933L1.87501 17.0183V7.3568ZM12.375 21.8933V12.2318L22.125 7.3568V17.0183L12.375 21.8933Z" fill="url(#paint0_linear_63_1129)"/>
<defs>
<linearGradient id="paint0_linear_63_1129" x1="1.125" y1="12.001" x2="22.875" y2="12.001" gradientUnits="userSpaceOnUse">
<stop stop-color="#B38934"/>
<stop offset="1" stop-color="#E8CC7B"/>
</linearGradient>
</defs>
</svg>
