<svg width="40" height="40" viewBox="0 0 40 40" fill="none" xmlns="http://www.w3.org/2000/svg">
<mask id="mask0_63_917" style="mask-type:luminance" maskUnits="userSpaceOnUse" x="0" y="0" width="40" height="40">
<path d="M0 0H40V40H0V0Z" fill="white"/>
</mask>
<g mask="url(#mask0_63_917)">
<path d="M18.6093 39.4141H20.8763M20.8763 39.4141C31.1674 36.0925 33.9617 19.4371 32.409 10.3634C32.252 9.44609 32.1281 8.83047 31.2153 8.56414M20.8763 39.4141C25.8394 39.4141 29.1011 37.517 31.5949 34.2663C36.2545 28.1925 37.332 18.1065 36.1962 11.4686C36.0393 10.5513 35.9153 9.93555 35.0026 9.66922L27.4281 7.45898C26.5603 7.20578 26.0099 7.86086 25.7731 8.83375C22.4078 22.6595 14.7217 20.213 8.27369 21.2346C3.65588 21.9662 2.67549 28.3859 3.81017 32.0218C4.87017 35.4183 8.40666 38.2355 12.8267 39.4141H15.0937M16.2656 39.4141H17.4374" stroke="white" stroke-width="1.5" stroke-miterlimit="22.926"/>
<path d="M11.9603 23.2292C10.8577 23.298 9.75518 23.3741 8.64597 23.5499C5.68565 24.0189 5.35651 29.0921 6.053 31.324C6.97339 34.2729 10.3541 35.9446 13.061 36.6663C20.2725 37.4607 21.824 32.2541 18.7292 27.9008C16.7813 25.1606 15.4087 23.0143 11.9603 23.2292ZM27.3749 11.8266C25.9919 16.142 23.7504 19.7911 19.7196 21.7163C18.5024 22.2977 17.7744 23.0959 19.0521 24.5418C21.098 26.8575 22.6074 29.489 23.6905 32.2942C24.0783 33.2985 25.3208 33.0631 25.9273 32.2113C29.5394 27.1396 30.8247 19.0996 30.3865 13.1245C30.1949 10.5115 27.9974 9.88407 27.3749 11.8266Z" fill="#B78E39" stroke="white" stroke-width="1.5" stroke-miterlimit="22.926"/>
<path d="M33.8226 4.55453L34.1364 9.41406M29.1943 7.97195L28.6071 0.585624H33.5663L33.7471 3.38516" stroke="white" stroke-width="1.5" stroke-miterlimit="22.926"/>
<path d="M24.8996 27.0491H26.0714M26.0715 24.7053H27.2434" stroke="white" stroke-width="1.5" stroke-miterlimit="2.613"/>
</g>
</svg>
