<svg width="42" height="42" viewBox="0 0 42 42" fill="none" xmlns="http://www.w3.org/2000/svg">
<g clip-path="url(#clip0_208_536)">
<path d="M27.8676 34.7134V35.9438H36.7103C35.4436 37.8851 32.6019 39.2567 28.2416 40.0271C24.221 40.7376 19.8663 40.7695 17.0889 40.7695C17.0377 40.7695 16.9866 40.7695 16.9364 40.7694V40.3196C16.9364 39.0916 16.0841 38.0593 14.94 37.7819V35.9439H24.1761V34.7135H5.48929C4.32445 34.7135 3.37674 35.6612 3.37674 36.826C3.37674 37.9909 4.32445 38.9386 5.48929 38.9386H14.3248C15.0864 38.9386 15.706 39.5581 15.706 40.3197V41.9997L16.6771 41.9999C16.8126 42 16.9523 42.0001 17.0961 42.0001C23.0105 42.0001 35.8029 41.8581 38.291 35.5546L38.623 34.7135H27.8676V34.7134ZM4.60729 36.8259C4.60729 36.3395 5.00301 35.9438 5.48937 35.9438H13.7096V37.708H5.48929C5.00293 37.708 4.60729 37.3123 4.60729 36.8259Z" fill="white"/>
<path d="M25.4067 34.7134H26.6371V35.9438H25.4067V34.7134Z" fill="white"/>
<path d="M10.3521 13.553C9.80487 16.4757 11.3491 17.8236 12.9782 19.2425C14.2202 20.3243 15.0611 22.5755 15.8031 24.5616C16.1235 25.4194 16.4261 26.2296 16.7533 26.9424C17.1613 27.8316 17.5837 28.5233 18.1767 29.0014L20.8555 33.4286L23.5343 29.0015C24.1273 28.5234 24.5498 27.8317 24.9578 26.9424C25.2849 26.2295 25.5876 25.4194 25.908 24.5616C26.6499 22.5754 27.4909 20.3243 28.7328 19.2425C30.3619 17.8236 31.9061 16.4757 31.3588 13.553C36.8092 13.5374 37.4679 9.88206 37.9102 7.42481L38.0309 6.75724L37.5556 6.57448C34.5159 5.40586 31.3054 5.33991 29.0648 6.29344C30.2021 3.75703 32.1484 1.63915 32.8296 1.09643L34.2056 0H32.4462C29.0587 0 24.7104 2.0845 23.1753 5.95112C22.544 6.26891 21.9406 6.32436 20.8555 6.32436C19.7704 6.32436 19.1669 6.26891 18.5356 5.95112C17.0006 2.0845 12.6523 0 9.26478 0H7.50529L8.88137 1.09643C9.56337 1.6398 11.5135 3.76212 12.6502 6.30254C11.2862 5.72693 9.53573 5.51111 7.65951 5.71782L7.79429 6.94091C9.94351 6.70409 11.8644 7.06748 13.0534 7.91741C12.6895 8.62247 12.3058 9.28364 11.9602 9.87812C11.4365 10.7791 10.9732 11.5769 10.6895 12.3188C8.60861 12.3745 7.16929 11.8834 6.29845 10.8216C5.55869 9.91971 5.28397 8.68875 5.07413 7.55024C5.5801 7.37797 6.09731 7.23663 6.61755 7.12827L6.36686 5.92356C5.61702 6.07958 4.87299 6.29861 4.15547 6.57448L3.68018 6.75732L3.80093 7.42489C4.24307 9.88222 4.90088 13.5378 10.3521 13.553ZM20.8555 31.0517L20.0587 29.7349C20.3046 29.7641 20.5691 29.7791 20.8555 29.7791C21.1418 29.7791 21.4063 29.7641 21.6522 29.7349L20.8555 31.0517ZM36.6368 7.55016C36.427 8.68867 36.1522 9.91963 35.4125 10.8216C34.5416 11.8835 33.1024 12.3744 31.0214 12.3188C30.7378 11.5769 30.2745 10.7791 29.7508 9.87812C29.4052 9.28364 29.0215 8.62239 28.6576 7.91725C30.3974 6.66668 33.5971 6.51451 36.6368 7.55016ZM30.8017 1.3997C29.6747 2.69153 28.2257 4.72853 27.4783 6.97438L24.4904 6.00633C25.6855 3.47337 28.3197 1.89574 30.8017 1.3997ZM17.2205 6.00633L14.2326 6.97438C13.4851 4.72853 12.0362 2.69153 10.9092 1.3997C13.3913 1.89574 16.0254 3.47337 17.2205 6.00633ZM11.7269 13.0869C11.9347 12.3703 12.4395 11.502 13.024 10.4966C13.4133 9.8271 13.8498 9.07602 14.2612 8.25866L17.9849 7.05214C18.9108 7.51636 19.7709 7.55483 20.8555 7.55483C21.9401 7.55483 22.8002 7.51636 23.726 7.05214L27.4498 8.25866C27.8612 9.07602 28.2978 9.8271 28.687 10.4965C29.2715 11.5019 29.7763 12.3702 29.9841 13.0869C30.779 15.8286 29.6435 16.8176 27.9247 18.3147C26.9539 19.1602 26.2329 20.4893 25.6276 21.9037C25.8768 16.5515 26.243 14.7685 27.7933 13.3996L26.9789 12.4773C24.6539 14.5302 24.5381 17.5105 24.2569 25.44C24.1186 25.7895 23.9804 26.1221 23.8395 26.4293C23.2161 27.7882 22.7121 28.3854 21.4709 28.5187V25.0492C22.2133 24.8688 22.8061 24.3702 23 23.7135L21.8199 23.365C21.7443 23.6211 21.3806 23.8932 20.8556 23.8932C20.3306 23.8932 19.967 23.6211 19.8914 23.365L18.7113 23.7136C18.9053 24.3703 19.498 24.8688 20.2404 25.0492V28.5188C18.9992 28.3854 18.4952 27.7883 17.8717 26.4294C17.7308 26.1223 17.5927 25.7896 17.4544 25.4401C17.1731 17.5105 17.0573 14.5302 14.7323 12.4774L13.9178 13.3997C15.4681 14.7687 15.8344 16.5516 16.0836 21.9037C15.4782 20.4893 14.7573 19.1603 13.7865 18.3148C12.0675 16.8176 10.9321 15.8285 11.7269 13.0869Z" fill="white"/>
<path d="M21.4707 8.7854H22.7012V10.0159H21.4707V8.7854Z" fill="white"/>
<path d="M19.0098 8.7854H20.2403V10.0159H19.0098V8.7854Z" fill="white"/>
</g>
<defs>
<clipPath id="clip0_208_536">
<rect width="42" height="42" fill="white"/>
</clipPath>
</defs>
</svg>
