<svg width="24" height="24" viewBox="0 0 24 24" fill="none" xmlns="http://www.w3.org/2000/svg">
<path d="M11.4719 3.84111C11.6125 3.70066 11.8031 3.62177 12.0019 3.62177C12.2006 3.62177 12.3913 3.70066 12.5319 3.84111L21.2219 12.5311C21.2911 12.6027 21.3739 12.6598 21.4654 12.6991C21.5569 12.7383 21.6554 12.759 21.755 12.7598C21.8545 12.7606 21.9533 12.7416 22.0454 12.7038C22.1376 12.6661 22.2213 12.6104 22.2917 12.5399C22.3621 12.4694 22.4177 12.3857 22.4554 12.2935C22.4931 12.2013 22.512 12.1025 22.5111 12.003C22.5102 11.9034 22.4894 11.805 22.4501 11.7135C22.4107 11.622 22.3536 11.5393 22.2819 11.4701L13.5929 2.78011C13.384 2.57118 13.1359 2.40544 12.8629 2.29237C12.59 2.17929 12.2974 2.12109 12.0019 2.12109C11.7064 2.12109 11.4138 2.17929 11.1409 2.29237C10.8679 2.40544 10.6198 2.57118 10.4109 2.78011L1.7209 11.4701C1.6493 11.5393 1.5922 11.6221 1.55294 11.7136C1.51367 11.8052 1.49303 11.9036 1.49221 12.0032C1.49139 12.1028 1.51042 12.2015 1.54817 12.2937C1.58593 12.3858 1.64166 12.4695 1.71211 12.5399C1.78256 12.6103 1.86632 12.6659 1.95851 12.7036C2.0507 12.7413 2.14947 12.7602 2.24906 12.7593C2.34864 12.7584 2.44704 12.7377 2.53853 12.6983C2.63001 12.659 2.71274 12.6018 2.7819 12.5301L11.4719 3.84111Z" fill="url(#paint0_linear_216_326)"/>
<path d="M12 5.42969L20.159 13.5887C20.189 13.6187 20.219 13.6467 20.25 13.6747V19.8727C20.25 20.9077 19.41 21.7477 18.375 21.7477H15C14.8011 21.7477 14.6103 21.6687 14.4697 21.528C14.329 21.3874 14.25 21.1966 14.25 20.9977V16.4977C14.25 16.2988 14.171 16.108 14.0303 15.9674C13.8897 15.8267 13.6989 15.7477 13.5 15.7477H10.5C10.3011 15.7477 10.1103 15.8267 9.96967 15.9674C9.82902 16.108 9.75 16.2988 9.75 16.4977V20.9977C9.75 21.1966 9.67098 21.3874 9.53033 21.528C9.38968 21.6687 9.19891 21.7477 9 21.7477H5.625C5.12772 21.7477 4.65081 21.5501 4.29917 21.1985C3.94754 20.8469 3.75 20.37 3.75 19.8727V13.6747C3.78111 13.6469 3.81146 13.6182 3.841 13.5887L12 5.42969Z" fill="url(#paint1_linear_216_326)"/>
<defs>
<linearGradient id="paint0_linear_216_326" x1="1.49219" y1="7.44046" x2="22.5111" y2="7.44046" gradientUnits="userSpaceOnUse">
<stop stop-color="#B38934"/>
<stop offset="1" stop-color="#E8CC7B"/>
</linearGradient>
<linearGradient id="paint1_linear_216_326" x1="3.75" y1="13.5887" x2="20.25" y2="13.5887" gradientUnits="userSpaceOnUse">
<stop stop-color="#B38934"/>
<stop offset="1" stop-color="#E8CC7B"/>
</linearGradient>
</defs>
</svg>
