<svg width="40" height="40" viewBox="0 0 40 40" fill="none" xmlns="http://www.w3.org/2000/svg">
<g clip-path="url(#clip0_63_837)">
<path d="M20.5953 10.2653H23.3737C24.1919 10.2653 24.9711 10.6639 25.4103 11.3542C25.8532 12.0503 26.6575 12.4938 27.5592 12.4203C28.6762 12.3294 29.58 11.4274 29.673 10.3106C29.7365 9.54807 29.4302 8.85495 28.914 8.39034C29.4302 7.92573 29.7365 7.2326 29.673 6.4701C29.58 5.35323 28.6762 4.45128 27.5592 4.36034C26.6575 4.2869 25.8532 4.73042 25.4103 5.42651C24.9711 6.11674 24.1919 6.51534 23.3737 6.51534H20.5953" stroke="black" stroke-width="1.5" stroke-miterlimit="10" stroke-linejoin="round"/>
<path d="M27.538 29.907C28.8463 29.907 29.9069 28.8464 29.9069 27.5381C29.9069 26.2297 28.8463 25.1691 27.538 25.1691C26.2296 25.1691 25.169 26.2297 25.169 27.5381C25.169 28.8464 26.2296 29.907 27.538 29.907Z" fill="#A2FF00" stroke="black" stroke-width="1.5" stroke-miterlimit="10" stroke-linecap="round" stroke-linejoin="round"/>
<path d="M17.7034 29.907L19.0456 32.2657" stroke="black" stroke-width="1.5" stroke-miterlimit="10" stroke-linecap="round" stroke-linejoin="round"/>
<path d="M21.1064 27.9843L23.5426 32.2657" stroke="black" stroke-width="1.5" stroke-miterlimit="10" stroke-linecap="round" stroke-linejoin="round"/>
<path d="M9.55734 24.8697C5.61648 24.8697 2.42188 28.0644 2.42188 32.0051C2.42188 35.946 5.61648 39.1406 9.55734 39.1406H27.538C33.974 39.1406 39.1859 33.9005 39.1404 27.454C39.096 21.1834 34.0109 15.937 27.7402 15.937C23.8679 15.937 20.4378 17.6933 18.282 20.5413C16.2366 23.2433 12.946 24.8697 9.55734 24.8697Z" stroke="black" stroke-width="1.5" stroke-miterlimit="10" stroke-linejoin="round"/>
<path d="M9.55727 28.3073C7.5182 28.3073 5.85938 29.9661 5.85938 32.0052C5.85938 34.0442 7.51828 35.7031 9.55727 35.7031H27.538C29.7298 35.7031 31.7877 34.8465 33.3322 33.291C34.8765 31.7358 35.7184 29.6715 35.7029 27.4784C35.6719 23.0845 32.0741 19.3741 27.6816 19.3741C25.0406 19.3741 22.6163 20.5109 21.0227 22.6162C19.7005 24.3627 17.9782 25.8045 16.0418 26.7853C14.0763 27.7809 11.7476 28.3073 9.55727 28.3073Z" fill="white" stroke="black" stroke-width="1.5" stroke-miterlimit="10" stroke-linejoin="round"/>
<path d="M8.39031 0.859375C4.20695 0.859375 0.820233 4.27039 0.859686 8.46281C0.89867 12.6066 4.24648 15.9213 8.39039 15.9213C10.3427 15.9213 12.1212 15.1782 13.4591 13.9597C14.9284 12.6215 16.8369 11.8683 18.8242 11.8683H18.8244C19.8024 11.8683 20.5953 11.0754 20.5953 10.0973V6.68336C20.5953 5.70531 19.8024 4.91242 18.8244 4.91242C16.835 4.91242 14.9266 4.15555 13.4549 2.81711C12.1175 1.60078 10.3405 0.859375 8.39031 0.859375Z" stroke="black" stroke-width="1.5" stroke-miterlimit="10" stroke-linejoin="round"/>
</g>
<defs>
<clipPath id="clip0_63_837">
<rect width="40" height="40" fill="white"/>
</clipPath>
</defs>
</svg>
