<svg width="64" height="64" viewBox="0 0 64 64" fill="none" xmlns="http://www.w3.org/2000/svg">
<mask id="path-1-outside-1_63_1059" maskUnits="userSpaceOnUse" x="21.741" y="1.66666" width="33" height="61" fill="black">
<rect fill="white" x="21.741" y="1.66666" width="33" height="61"/>
<path d="M51.0933 50.0957L50.6567 50.1691C50.0937 47.6876 51.3058 46.1179 52.1389 43.6003C53.1617 40.8659 53.1663 37.1133 52.1552 31.0537L51.4651 26.9603C51.416 26.6588 51.3077 26.3699 51.1465 26.1104C50.9854 25.8508 50.7745 25.6257 50.526 25.4479C50.2775 25.2701 49.9963 25.1433 49.6986 25.0746C49.4009 25.0059 49.0925 24.9967 48.7913 25.0476C48.1542 25.0802 47.5344 25.2663 46.9846 25.5899C46.7944 25.0804 46.4332 24.6528 45.9628 24.3799C45.4924 24.1071 44.9418 24.0059 44.4051 24.0938C43.7739 24.1339 43.1609 24.321 42.6148 24.6401C42.4257 24.1313 42.0657 23.704 41.5963 23.4313C41.127 23.1587 40.5775 23.0575 40.0419 23.1453C39.4214 23.1798 38.8173 23.3574 38.2769 23.6641L37.765 20.6133C39.4869 20.7973 41.0245 19.763 41.0534 17.9467V5.33332C41.0527 4.6263 40.7715 3.94843 40.2716 3.44848C39.7716 2.94854 39.0938 2.66736 38.3867 2.66666H25.7733C25.0663 2.66734 24.3884 2.94852 23.8885 3.44847C23.3885 3.94841 23.1074 4.62629 23.1067 5.33332V17.9467C23.1074 18.6537 23.3885 19.3316 23.8885 19.8315C24.3884 20.3315 25.0663 20.6126 25.7733 20.6133H32.0614L33.132 30.9623C33.2835 31.8201 33.0224 36.2743 33.0187 37.2279C33.0178 37.2567 33.0092 37.2846 32.9937 37.3089C32.9783 37.3331 32.9565 37.3527 32.9308 37.3655C32.905 37.3783 32.8763 37.3839 32.8476 37.3817C32.819 37.3795 32.7915 37.3695 32.768 37.3529L28.2067 34.4955C27.6169 34.1296 26.9425 33.9225 26.249 33.8945C25.5554 33.8664 24.8665 34.0184 24.2491 34.3355L23.5381 34.7034C23.3387 34.8102 23.1659 34.9604 23.0324 35.143C22.8988 35.3256 22.808 35.5358 22.7666 35.7582C22.7251 35.9805 22.7342 36.2094 22.7931 36.4278C22.8519 36.6462 22.9591 36.8486 23.1067 37.02L33.957 49.3906C34.7808 50.327 35.3228 51.4775 35.5203 52.7089L35.0814 52.7823C34.7333 52.8421 34.4229 53.0369 34.2177 53.3244C34.0125 53.6119 33.9291 53.9688 33.9857 54.3175L35.0677 60.766C35.0973 60.9402 35.1946 61.0956 35.3384 61.1982C35.4823 61.3009 35.6609 61.3423 35.8353 61.3135L53.1627 58.4069C53.3366 58.3766 53.4916 58.2791 53.594 58.1354C53.6965 57.9918 53.7383 57.8135 53.7103 57.6393L52.6283 51.1894C52.5692 50.8411 52.3745 50.5304 52.0868 50.3253C51.7991 50.1203 51.4418 50.0378 51.0933 50.0957ZM25.7733 19.28C25.4198 19.2795 25.081 19.1389 24.831 18.889C24.5811 18.639 24.4404 18.3001 24.44 17.9467V5.33332C24.4405 4.97984 24.5811 4.64097 24.831 4.39102C25.081 4.14107 25.4199 4.00045 25.7733 3.99999H38.3867C38.7401 4.00047 39.079 4.14109 39.3289 4.39104C39.5789 4.64099 39.7195 4.97985 39.72 5.33332V17.9467C39.7195 18.3001 39.5789 18.639 39.329 18.889C39.079 19.1389 38.7401 19.2795 38.3867 19.28H37.5413C37.3375 18.2503 37.3312 16.6484 36.3073 16.0359C35.5861 15.4619 34.5928 15.5914 33.7513 15.7768C33.1513 15.8801 32.6153 16.2134 32.2573 16.7058C31.8993 17.1981 31.7474 17.8107 31.834 18.4133L31.9236 19.28H25.7733ZM34.96 48.5117L24.1087 36.1406C24.0918 36.1221 24.0793 36.0999 24.0723 36.0758C24.0654 36.0517 24.0641 36.0262 24.0685 36.0015C24.073 35.9768 24.0831 35.9535 24.0981 35.9333C24.1131 35.9132 24.1326 35.8968 24.1549 35.8854L24.8616 35.5202C25.273 35.3084 25.7322 35.2069 26.1945 35.2253C26.6568 35.2438 27.1064 35.3817 27.4996 35.6257L32.0621 38.4844C32.2853 38.6218 32.5405 38.6985 32.8025 38.7069C33.0645 38.7152 33.3241 38.6548 33.5555 38.5318C33.787 38.4088 33.9822 38.2274 34.1219 38.0056C34.2616 37.7839 34.3408 37.5294 34.3518 37.2675C34.3563 36.1484 34.6281 31.8498 34.4573 30.8131L33.3325 19.9509C33.3348 19.9447 33.331 19.9393 33.3306 19.9331L33.1549 18.2363C33.1119 17.9761 33.1738 17.7094 33.3271 17.4947C33.4804 17.28 33.7125 17.1349 33.9727 17.0911L34.791 16.9511C35.0507 16.9079 35.317 16.9693 35.5315 17.1219C35.746 17.2746 35.8913 17.506 35.9355 17.7655L37.2982 25.8905L38.1374 30.8763C38.1519 30.9626 38.1833 31.0452 38.2298 31.1195C38.2763 31.1937 38.3369 31.258 38.4083 31.3088C38.4796 31.3596 38.5602 31.3958 38.6456 31.4154C38.7309 31.435 38.8193 31.4376 38.9056 31.4231C38.992 31.4086 39.0746 31.3772 39.1488 31.3307C39.223 31.2842 39.2874 31.2236 39.3382 31.1522C39.3889 31.0809 39.4252 31.0002 39.4448 30.9149C39.4644 30.8296 39.467 30.7412 39.4525 30.6549L38.6171 25.6923C38.5905 25.4389 38.6608 25.1849 38.8139 24.9812C38.9669 24.7775 39.1913 24.6393 39.4421 24.5943L40.2637 24.4602C40.5236 24.4183 40.7897 24.4804 41.0042 24.633C41.2188 24.7857 41.3647 25.0167 41.4103 25.276L41.6805 26.8893L41.6851 26.9173L41.6855 26.9183L42.3661 31.0078C42.3973 31.1802 42.495 31.3333 42.6383 31.4342C42.7815 31.535 42.9587 31.5755 43.1315 31.5467C43.3043 31.518 43.4588 31.4224 43.5617 31.2806C43.6645 31.1388 43.7075 30.9622 43.6812 30.7891L42.9993 26.6933C42.9773 26.5644 42.981 26.4317 43.0104 26.3042C43.0397 26.1767 43.094 26.0563 43.1702 25.9499C43.2464 25.8435 43.3429 25.7533 43.4541 25.6845C43.5654 25.6156 43.6892 25.5695 43.8184 25.5489L44.6276 25.4082C44.8882 25.3661 45.1548 25.4279 45.3703 25.5803C45.5858 25.7327 45.7329 25.9636 45.78 26.2233L46.0541 27.8594L46.6029 31.1413C46.6174 31.2276 46.6487 31.3103 46.6951 31.3845C46.7415 31.4588 46.802 31.5231 46.8733 31.574C46.9446 31.6248 47.0252 31.6611 47.1105 31.6808C47.1958 31.7005 47.2841 31.7032 47.3705 31.6888C47.4568 31.6743 47.5395 31.643 47.6137 31.5966C47.688 31.5503 47.7524 31.4897 47.8032 31.4184C47.854 31.3472 47.8903 31.2666 47.91 31.1813C47.9297 31.096 47.9324 31.0076 47.918 30.9213L47.3692 27.6394V27.6381C47.3283 27.3795 47.3903 27.1153 47.5419 26.9019C47.6936 26.6886 47.9228 26.5431 48.1804 26.4968L49.0118 26.3627C49.1402 26.3413 49.2715 26.3456 49.3982 26.3751C49.5249 26.4046 49.6445 26.4589 49.7502 26.5347C49.856 26.6106 49.9457 26.7065 50.0142 26.8171C50.0828 26.9277 50.1289 27.0507 50.1498 27.1791L50.84 31.2741C51.81 37.0874 51.825 40.6341 50.8895 43.1341L50.8888 43.1353C49.9459 45.8393 48.7193 47.6698 49.3413 50.3893L36.8346 52.4856C36.5958 51.0111 35.946 49.6338 34.96 48.5117ZM36.2721 59.8887L35.3008 54.0977L49.5158 51.7118L50.2201 51.5937L51.3131 51.4103L52.2851 57.2027L36.2721 59.8887Z"/>
</mask>
<path d="M51.0933 50.0957L50.6567 50.1691C50.0937 47.6876 51.3058 46.1179 52.1389 43.6003C53.1617 40.8659 53.1663 37.1133 52.1552 31.0537L51.4651 26.9603C51.416 26.6588 51.3077 26.3699 51.1465 26.1104C50.9854 25.8508 50.7745 25.6257 50.526 25.4479C50.2775 25.2701 49.9963 25.1433 49.6986 25.0746C49.4009 25.0059 49.0925 24.9967 48.7913 25.0476C48.1542 25.0802 47.5344 25.2663 46.9846 25.5899C46.7944 25.0804 46.4332 24.6528 45.9628 24.3799C45.4924 24.1071 44.9418 24.0059 44.4051 24.0938C43.7739 24.1339 43.1609 24.321 42.6148 24.6401C42.4257 24.1313 42.0657 23.704 41.5963 23.4313C41.127 23.1587 40.5775 23.0575 40.0419 23.1453C39.4214 23.1798 38.8173 23.3574 38.2769 23.6641L37.765 20.6133C39.4869 20.7973 41.0245 19.763 41.0534 17.9467V5.33332C41.0527 4.6263 40.7715 3.94843 40.2716 3.44848C39.7716 2.94854 39.0938 2.66736 38.3867 2.66666H25.7733C25.0663 2.66734 24.3884 2.94852 23.8885 3.44847C23.3885 3.94841 23.1074 4.62629 23.1067 5.33332V17.9467C23.1074 18.6537 23.3885 19.3316 23.8885 19.8315C24.3884 20.3315 25.0663 20.6126 25.7733 20.6133H32.0614L33.132 30.9623C33.2835 31.8201 33.0224 36.2743 33.0187 37.2279C33.0178 37.2567 33.0092 37.2846 32.9937 37.3089C32.9783 37.3331 32.9565 37.3527 32.9308 37.3655C32.905 37.3783 32.8763 37.3839 32.8476 37.3817C32.819 37.3795 32.7915 37.3695 32.768 37.3529L28.2067 34.4955C27.6169 34.1296 26.9425 33.9225 26.249 33.8945C25.5554 33.8664 24.8665 34.0184 24.2491 34.3355L23.5381 34.7034C23.3387 34.8102 23.1659 34.9604 23.0324 35.143C22.8988 35.3256 22.808 35.5358 22.7666 35.7582C22.7251 35.9805 22.7342 36.2094 22.7931 36.4278C22.8519 36.6462 22.9591 36.8486 23.1067 37.02L33.957 49.3906C34.7808 50.327 35.3228 51.4775 35.5203 52.7089L35.0814 52.7823C34.7333 52.8421 34.4229 53.0369 34.2177 53.3244C34.0125 53.6119 33.9291 53.9688 33.9857 54.3175L35.0677 60.766C35.0973 60.9402 35.1946 61.0956 35.3384 61.1982C35.4823 61.3009 35.6609 61.3423 35.8353 61.3135L53.1627 58.4069C53.3366 58.3766 53.4916 58.2791 53.594 58.1354C53.6965 57.9918 53.7383 57.8135 53.7103 57.6393L52.6283 51.1894C52.5692 50.8411 52.3745 50.5304 52.0868 50.3253C51.7991 50.1203 51.4418 50.0378 51.0933 50.0957ZM25.7733 19.28C25.4198 19.2795 25.081 19.1389 24.831 18.889C24.5811 18.639 24.4404 18.3001 24.44 17.9467V5.33332C24.4405 4.97984 24.5811 4.64097 24.831 4.39102C25.081 4.14107 25.4199 4.00045 25.7733 3.99999H38.3867C38.7401 4.00047 39.079 4.14109 39.3289 4.39104C39.5789 4.64099 39.7195 4.97985 39.72 5.33332V17.9467C39.7195 18.3001 39.5789 18.639 39.329 18.889C39.079 19.1389 38.7401 19.2795 38.3867 19.28H37.5413C37.3375 18.2503 37.3312 16.6484 36.3073 16.0359C35.5861 15.4619 34.5928 15.5914 33.7513 15.7768C33.1513 15.8801 32.6153 16.2134 32.2573 16.7058C31.8993 17.1981 31.7474 17.8107 31.834 18.4133L31.9236 19.28H25.7733ZM34.96 48.5117L24.1087 36.1406C24.0918 36.1221 24.0793 36.0999 24.0723 36.0758C24.0654 36.0517 24.0641 36.0262 24.0685 36.0015C24.073 35.9768 24.0831 35.9535 24.0981 35.9333C24.1131 35.9132 24.1326 35.8968 24.1549 35.8854L24.8616 35.5202C25.273 35.3084 25.7322 35.2069 26.1945 35.2253C26.6568 35.2438 27.1064 35.3817 27.4996 35.6257L32.0621 38.4844C32.2853 38.6218 32.5405 38.6985 32.8025 38.7069C33.0645 38.7152 33.3241 38.6548 33.5555 38.5318C33.787 38.4088 33.9822 38.2274 34.1219 38.0056C34.2616 37.7839 34.3408 37.5294 34.3518 37.2675C34.3563 36.1484 34.6281 31.8498 34.4573 30.8131L33.3325 19.9509C33.3348 19.9447 33.331 19.9393 33.3306 19.9331L33.1549 18.2363C33.1119 17.9761 33.1738 17.7094 33.3271 17.4947C33.4804 17.28 33.7125 17.1349 33.9727 17.0911L34.791 16.9511C35.0507 16.9079 35.317 16.9693 35.5315 17.1219C35.746 17.2746 35.8913 17.506 35.9355 17.7655L37.2982 25.8905L38.1374 30.8763C38.1519 30.9626 38.1833 31.0452 38.2298 31.1195C38.2763 31.1937 38.3369 31.258 38.4083 31.3088C38.4796 31.3596 38.5602 31.3958 38.6456 31.4154C38.7309 31.435 38.8193 31.4376 38.9056 31.4231C38.992 31.4086 39.0746 31.3772 39.1488 31.3307C39.223 31.2842 39.2874 31.2236 39.3382 31.1522C39.3889 31.0809 39.4252 31.0002 39.4448 30.9149C39.4644 30.8296 39.467 30.7412 39.4525 30.6549L38.6171 25.6923C38.5905 25.4389 38.6608 25.1849 38.8139 24.9812C38.9669 24.7775 39.1913 24.6393 39.4421 24.5943L40.2637 24.4602C40.5236 24.4183 40.7897 24.4804 41.0042 24.633C41.2188 24.7857 41.3647 25.0167 41.4103 25.276L41.6805 26.8893L41.6851 26.9173L41.6855 26.9183L42.3661 31.0078C42.3973 31.1802 42.495 31.3333 42.6383 31.4342C42.7815 31.535 42.9587 31.5755 43.1315 31.5467C43.3043 31.518 43.4588 31.4224 43.5617 31.2806C43.6645 31.1388 43.7075 30.9622 43.6812 30.7891L42.9993 26.6933C42.9773 26.5644 42.981 26.4317 43.0104 26.3042C43.0397 26.1767 43.094 26.0563 43.1702 25.9499C43.2464 25.8435 43.3429 25.7533 43.4541 25.6845C43.5654 25.6156 43.6892 25.5695 43.8184 25.5489L44.6276 25.4082C44.8882 25.3661 45.1548 25.4279 45.3703 25.5803C45.5858 25.7327 45.7329 25.9636 45.78 26.2233L46.0541 27.8594L46.6029 31.1413C46.6174 31.2276 46.6487 31.3103 46.6951 31.3845C46.7415 31.4588 46.802 31.5231 46.8733 31.574C46.9446 31.6248 47.0252 31.6611 47.1105 31.6808C47.1958 31.7005 47.2841 31.7032 47.3705 31.6888C47.4568 31.6743 47.5395 31.643 47.6137 31.5966C47.688 31.5503 47.7524 31.4897 47.8032 31.4184C47.854 31.3472 47.8903 31.2666 47.91 31.1813C47.9297 31.096 47.9324 31.0076 47.918 30.9213L47.3692 27.6394V27.6381C47.3283 27.3795 47.3903 27.1153 47.5419 26.9019C47.6936 26.6886 47.9228 26.5431 48.1804 26.4968L49.0118 26.3627C49.1402 26.3413 49.2715 26.3456 49.3982 26.3751C49.5249 26.4046 49.6445 26.4589 49.7502 26.5347C49.856 26.6106 49.9457 26.7065 50.0142 26.8171C50.0828 26.9277 50.1289 27.0507 50.1498 27.1791L50.84 31.2741C51.81 37.0874 51.825 40.6341 50.8895 43.1341L50.8888 43.1353C49.9459 45.8393 48.7193 47.6698 49.3413 50.3893L36.8346 52.4856C36.5958 51.0111 35.946 49.6338 34.96 48.5117ZM36.2721 59.8887L35.3008 54.0977L49.5158 51.7118L50.2201 51.5937L51.3131 51.4103L52.2851 57.2027L36.2721 59.8887Z" fill="url(#paint0_linear_63_1059)"/>
<path d="M51.0933 50.0957L50.6567 50.1691C50.0937 47.6876 51.3058 46.1179 52.1389 43.6003C53.1617 40.8659 53.1663 37.1133 52.1552 31.0537L51.4651 26.9603C51.416 26.6588 51.3077 26.3699 51.1465 26.1104C50.9854 25.8508 50.7745 25.6257 50.526 25.4479C50.2775 25.2701 49.9963 25.1433 49.6986 25.0746C49.4009 25.0059 49.0925 24.9967 48.7913 25.0476C48.1542 25.0802 47.5344 25.2663 46.9846 25.5899C46.7944 25.0804 46.4332 24.6528 45.9628 24.3799C45.4924 24.1071 44.9418 24.0059 44.4051 24.0938C43.7739 24.1339 43.1609 24.321 42.6148 24.6401C42.4257 24.1313 42.0657 23.704 41.5963 23.4313C41.127 23.1587 40.5775 23.0575 40.0419 23.1453C39.4214 23.1798 38.8173 23.3574 38.2769 23.6641L37.765 20.6133C39.4869 20.7973 41.0245 19.763 41.0534 17.9467V5.33332C41.0527 4.6263 40.7715 3.94843 40.2716 3.44848C39.7716 2.94854 39.0938 2.66736 38.3867 2.66666H25.7733C25.0663 2.66734 24.3884 2.94852 23.8885 3.44847C23.3885 3.94841 23.1074 4.62629 23.1067 5.33332V17.9467C23.1074 18.6537 23.3885 19.3316 23.8885 19.8315C24.3884 20.3315 25.0663 20.6126 25.7733 20.6133H32.0614L33.132 30.9623C33.2835 31.8201 33.0224 36.2743 33.0187 37.2279C33.0178 37.2567 33.0092 37.2846 32.9937 37.3089C32.9783 37.3331 32.9565 37.3527 32.9308 37.3655C32.905 37.3783 32.8763 37.3839 32.8476 37.3817C32.819 37.3795 32.7915 37.3695 32.768 37.3529L28.2067 34.4955C27.6169 34.1296 26.9425 33.9225 26.249 33.8945C25.5554 33.8664 24.8665 34.0184 24.2491 34.3355L23.5381 34.7034C23.3387 34.8102 23.1659 34.9604 23.0324 35.143C22.8988 35.3256 22.808 35.5358 22.7666 35.7582C22.7251 35.9805 22.7342 36.2094 22.7931 36.4278C22.8519 36.6462 22.9591 36.8486 23.1067 37.02L33.957 49.3906C34.7808 50.327 35.3228 51.4775 35.5203 52.7089L35.0814 52.7823C34.7333 52.8421 34.4229 53.0369 34.2177 53.3244C34.0125 53.6119 33.9291 53.9688 33.9857 54.3175L35.0677 60.766C35.0973 60.9402 35.1946 61.0956 35.3384 61.1982C35.4823 61.3009 35.6609 61.3423 35.8353 61.3135L53.1627 58.4069C53.3366 58.3766 53.4916 58.2791 53.594 58.1354C53.6965 57.9918 53.7383 57.8135 53.7103 57.6393L52.6283 51.1894C52.5692 50.8411 52.3745 50.5304 52.0868 50.3253C51.7991 50.1203 51.4418 50.0378 51.0933 50.0957ZM25.7733 19.28C25.4198 19.2795 25.081 19.1389 24.831 18.889C24.5811 18.639 24.4404 18.3001 24.44 17.9467V5.33332C24.4405 4.97984 24.5811 4.64097 24.831 4.39102C25.081 4.14107 25.4199 4.00045 25.7733 3.99999H38.3867C38.7401 4.00047 39.079 4.14109 39.3289 4.39104C39.5789 4.64099 39.7195 4.97985 39.72 5.33332V17.9467C39.7195 18.3001 39.5789 18.639 39.329 18.889C39.079 19.1389 38.7401 19.2795 38.3867 19.28H37.5413C37.3375 18.2503 37.3312 16.6484 36.3073 16.0359C35.5861 15.4619 34.5928 15.5914 33.7513 15.7768C33.1513 15.8801 32.6153 16.2134 32.2573 16.7058C31.8993 17.1981 31.7474 17.8107 31.834 18.4133L31.9236 19.28H25.7733ZM34.96 48.5117L24.1087 36.1406C24.0918 36.1221 24.0793 36.0999 24.0723 36.0758C24.0654 36.0517 24.0641 36.0262 24.0685 36.0015C24.073 35.9768 24.0831 35.9535 24.0981 35.9333C24.1131 35.9132 24.1326 35.8968 24.1549 35.8854L24.8616 35.5202C25.273 35.3084 25.7322 35.2069 26.1945 35.2253C26.6568 35.2438 27.1064 35.3817 27.4996 35.6257L32.0621 38.4844C32.2853 38.6218 32.5405 38.6985 32.8025 38.7069C33.0645 38.7152 33.3241 38.6548 33.5555 38.5318C33.787 38.4088 33.9822 38.2274 34.1219 38.0056C34.2616 37.7839 34.3408 37.5294 34.3518 37.2675C34.3563 36.1484 34.6281 31.8498 34.4573 30.8131L33.3325 19.9509C33.3348 19.9447 33.331 19.9393 33.3306 19.9331L33.1549 18.2363C33.1119 17.9761 33.1738 17.7094 33.3271 17.4947C33.4804 17.28 33.7125 17.1349 33.9727 17.0911L34.791 16.9511C35.0507 16.9079 35.317 16.9693 35.5315 17.1219C35.746 17.2746 35.8913 17.506 35.9355 17.7655L37.2982 25.8905L38.1374 30.8763C38.1519 30.9626 38.1833 31.0452 38.2298 31.1195C38.2763 31.1937 38.3369 31.258 38.4083 31.3088C38.4796 31.3596 38.5602 31.3958 38.6456 31.4154C38.7309 31.435 38.8193 31.4376 38.9056 31.4231C38.992 31.4086 39.0746 31.3772 39.1488 31.3307C39.223 31.2842 39.2874 31.2236 39.3382 31.1522C39.3889 31.0809 39.4252 31.0002 39.4448 30.9149C39.4644 30.8296 39.467 30.7412 39.4525 30.6549L38.6171 25.6923C38.5905 25.4389 38.6608 25.1849 38.8139 24.9812C38.9669 24.7775 39.1913 24.6393 39.4421 24.5943L40.2637 24.4602C40.5236 24.4183 40.7897 24.4804 41.0042 24.633C41.2188 24.7857 41.3647 25.0167 41.4103 25.276L41.6805 26.8893L41.6851 26.9173L41.6855 26.9183L42.3661 31.0078C42.3973 31.1802 42.495 31.3333 42.6383 31.4342C42.7815 31.535 42.9587 31.5755 43.1315 31.5467C43.3043 31.518 43.4588 31.4224 43.5617 31.2806C43.6645 31.1388 43.7075 30.9622 43.6812 30.7891L42.9993 26.6933C42.9773 26.5644 42.981 26.4317 43.0104 26.3042C43.0397 26.1767 43.094 26.0563 43.1702 25.9499C43.2464 25.8435 43.3429 25.7533 43.4541 25.6845C43.5654 25.6156 43.6892 25.5695 43.8184 25.5489L44.6276 25.4082C44.8882 25.3661 45.1548 25.4279 45.3703 25.5803C45.5858 25.7327 45.7329 25.9636 45.78 26.2233L46.0541 27.8594L46.6029 31.1413C46.6174 31.2276 46.6487 31.3103 46.6951 31.3845C46.7415 31.4588 46.802 31.5231 46.8733 31.574C46.9446 31.6248 47.0252 31.6611 47.1105 31.6808C47.1958 31.7005 47.2841 31.7032 47.3705 31.6888C47.4568 31.6743 47.5395 31.643 47.6137 31.5966C47.688 31.5503 47.7524 31.4897 47.8032 31.4184C47.854 31.3472 47.8903 31.2666 47.91 31.1813C47.9297 31.096 47.9324 31.0076 47.918 30.9213L47.3692 27.6394V27.6381C47.3283 27.3795 47.3903 27.1153 47.5419 26.9019C47.6936 26.6886 47.9228 26.5431 48.1804 26.4968L49.0118 26.3627C49.1402 26.3413 49.2715 26.3456 49.3982 26.3751C49.5249 26.4046 49.6445 26.4589 49.7502 26.5347C49.856 26.6106 49.9457 26.7065 50.0142 26.8171C50.0828 26.9277 50.1289 27.0507 50.1498 27.1791L50.84 31.2741C51.81 37.0874 51.825 40.6341 50.8895 43.1341L50.8888 43.1353C49.9459 45.8393 48.7193 47.6698 49.3413 50.3893L36.8346 52.4856C36.5958 51.0111 35.946 49.6338 34.96 48.5117ZM36.2721 59.8887L35.3008 54.0977L49.5158 51.7118L50.2201 51.5937L51.3131 51.4103L52.2851 57.2027L36.2721 59.8887Z" stroke="url(#paint1_linear_63_1059)" stroke-width="0.8" mask="url(#path-1-outside-1_63_1059)"/>
<path d="M17.6315 14.0973C18.2146 14.0981 18.7739 14.3305 19.1862 14.7428C19.5984 15.1552 19.8301 15.7144 19.8307 16.2975V25.2624C19.83 25.8454 19.5985 26.4047 19.1862 26.817C18.7739 27.2293 18.2146 27.4608 17.6315 27.4616H8.66666C8.08359 27.4609 7.52435 27.2292 7.11198 26.817C6.69968 26.4047 6.46722 25.8454 6.46647 25.2624V16.2975L6.47721 16.0797C6.52771 15.5764 6.75117 15.1036 7.11198 14.7428C7.52438 14.3304 8.08344 14.098 8.66666 14.0973H17.6315ZM8.66666 15.8307C8.54293 15.8308 8.42408 15.8799 8.33659 15.9674C8.24909 16.0549 8.19997 16.1738 8.19987 16.2975V25.2614C8.19995 25.3851 8.24917 25.504 8.33659 25.5915C8.42408 25.679 8.54294 25.7281 8.66666 25.7282H17.6305C17.7543 25.7281 17.8731 25.679 17.9606 25.5915C18.0481 25.5039 18.0972 25.3852 18.0973 25.2614V16.2975C18.0972 16.1738 18.0481 16.0549 17.9606 15.9674C17.8731 15.88 17.7542 15.8308 17.6305 15.8307H8.66666Z" fill="url(#paint2_linear_63_1059)" stroke="url(#paint3_linear_63_1059)" stroke-width="0.4"/>
<path d="M56.0006 7.45087C56.5837 7.45162 57.143 7.68407 57.5553 8.09637C57.9675 8.50874 58.1992 9.06799 58.1999 9.65106V18.6159C58.1991 19.199 57.9676 19.7583 57.5553 20.1706C57.143 20.5829 56.5837 20.8144 56.0006 20.8151H47.0358C46.4527 20.8145 45.8935 20.5828 45.4811 20.1706C45.0688 19.7583 44.8364 19.199 44.8356 18.6159V9.65106L44.8463 9.43329C44.8968 8.92998 45.1203 8.45718 45.4811 8.09637C45.8935 7.68398 46.4526 7.45151 47.0358 7.45087H56.0006ZM47.0358 9.18427C46.9121 9.18439 46.7932 9.23349 46.7057 9.32098C46.6182 9.40848 46.5691 9.52733 46.569 9.65106V18.6149C46.5691 18.7386 46.6183 18.8575 46.7057 18.945C46.7932 19.0325 46.9121 19.0816 47.0358 19.0817H55.9997C56.1234 19.0816 56.2422 19.0325 56.3297 18.945C56.4173 18.8575 56.4664 18.7387 56.4665 18.6149V9.65106C56.4664 9.52733 56.4172 9.40848 56.3297 9.32098C56.2422 9.23356 56.1234 9.18434 55.9997 9.18427H47.0358Z" fill="url(#paint4_linear_63_1059)" stroke="url(#paint5_linear_63_1059)" stroke-width="0.4"/>
<path d="M36.5381 7.14886C36.7679 7.14886 36.9888 7.2403 37.1514 7.40277C37.3138 7.56528 37.4053 7.78626 37.4053 8.01605C37.4052 8.24568 37.3137 8.46593 37.1514 8.62836L31.8643 13.9155C31.7017 14.078 31.4808 14.1694 31.251 14.1694C31.0213 14.1693 30.8011 14.0779 30.6387 13.9155L27.6992 10.976C27.5408 10.8127 27.4524 10.5932 27.4541 10.3657C27.4559 10.1382 27.5471 9.9201 27.708 9.75922C27.8689 9.59837 28.0869 9.50705 28.3145 9.50531C28.5134 9.50382 28.706 9.57106 28.8604 9.69379L28.9248 9.75043L31.251 12.0766L35.9258 7.40277C36.0882 7.24042 36.3084 7.14895 36.5381 7.14886Z" fill="url(#paint6_linear_63_1059)" stroke="url(#paint7_linear_63_1059)" stroke-width="0.4"/>
<path d="M13.1504 18.251C13.8168 18.2572 14.4539 18.5266 14.9229 19C15.3919 19.4735 15.6553 20.1129 15.6553 20.7793C15.6553 21.4458 15.3919 22.0852 14.9229 22.5586C14.4539 23.032 13.8168 23.3014 13.1504 23.3076H13.1465C12.4801 23.3015 11.8431 23.032 11.3741 22.5586C10.905 22.0852 10.6417 21.4458 10.6416 20.7793C10.6416 20.1129 10.905 19.4735 11.3741 19C11.8431 18.5266 12.4801 18.2572 13.1465 18.251H13.1504ZM13.1485 19.9844C12.9407 19.9881 12.7427 20.0736 12.5967 20.2217C12.4502 20.3704 12.3672 20.5705 12.3672 20.7793C12.3672 20.9881 12.4502 21.1882 12.5967 21.3369C12.7427 21.485 12.9407 21.5696 13.1485 21.5733C13.3563 21.5696 13.5543 21.485 13.7002 21.3369C13.8468 21.1882 13.9288 20.9881 13.9288 20.7793C13.9288 20.5705 13.8468 20.3704 13.7002 20.2217C13.5543 20.0737 13.3563 19.9881 13.1485 19.9844Z" fill="url(#paint8_linear_63_1059)" stroke="url(#paint9_linear_63_1059)" stroke-width="0.4"/>
<path d="M51.5201 11.6051C52.1872 11.6103 52.8256 11.8787 53.2955 12.3522C53.7655 12.8258 54.0289 13.4663 54.0289 14.1335C54.0289 14.8006 53.7655 15.4411 53.2955 15.9147C52.8256 16.3882 52.1872 16.6566 51.5201 16.6618H51.5162C50.8494 16.6566 50.2116 16.3879 49.7418 15.9147C49.2718 15.4411 49.0074 14.8007 49.0074 14.1335C49.0074 13.4663 49.2718 12.8258 49.7418 12.3522C50.2116 11.879 50.8494 11.6103 51.5162 11.6051H51.5201ZM51.5182 13.3385C51.3098 13.3416 51.111 13.4266 50.9645 13.5749C50.8174 13.7236 50.735 13.9243 50.735 14.1335C50.735 14.3426 50.8174 14.5433 50.9645 14.692C51.111 14.8403 51.3098 14.9244 51.5182 14.9274C51.7265 14.9244 51.9253 14.8403 52.0719 14.692C52.2189 14.5433 52.3014 14.3426 52.3014 14.1335C52.3014 13.9243 52.2189 13.7236 52.0719 13.5749C51.9253 13.4266 51.7265 13.3415 51.5182 13.3385Z" fill="url(#paint10_linear_63_1059)" stroke="url(#paint11_linear_63_1059)" stroke-width="0.4"/>
<defs>
<linearGradient id="paint0_linear_63_1059" x1="22.741" y1="31.9946" x2="53.7188" y2="31.9946" gradientUnits="userSpaceOnUse">
<stop stop-color="#B38934"/>
<stop offset="1" stop-color="#E8CC7B"/>
</linearGradient>
<linearGradient id="paint1_linear_63_1059" x1="22.741" y1="31.9946" x2="53.7188" y2="31.9946" gradientUnits="userSpaceOnUse">
<stop stop-color="#B38934"/>
<stop offset="1" stop-color="#E8CC7B"/>
</linearGradient>
<linearGradient id="paint2_linear_63_1059" x1="6.66666" y1="20.7796" x2="19.6309" y2="20.7796" gradientUnits="userSpaceOnUse">
<stop stop-color="#B38934"/>
<stop offset="1" stop-color="#E8CC7B"/>
</linearGradient>
<linearGradient id="paint3_linear_63_1059" x1="6.66666" y1="20.7796" x2="19.6309" y2="20.7796" gradientUnits="userSpaceOnUse">
<stop stop-color="#B38934"/>
<stop offset="1" stop-color="#E8CC7B"/>
</linearGradient>
<linearGradient id="paint4_linear_63_1059" x1="45.0358" y1="14.1332" x2="58" y2="14.1332" gradientUnits="userSpaceOnUse">
<stop stop-color="#B38934"/>
<stop offset="1" stop-color="#E8CC7B"/>
</linearGradient>
<linearGradient id="paint5_linear_63_1059" x1="45.0358" y1="14.1332" x2="58" y2="14.1332" gradientUnits="userSpaceOnUse">
<stop stop-color="#B38934"/>
<stop offset="1" stop-color="#E8CC7B"/>
</linearGradient>
<linearGradient id="paint6_linear_63_1059" x1="27.6543" y1="10.6592" x2="37.205" y2="10.6592" gradientUnits="userSpaceOnUse">
<stop stop-color="#B38934"/>
<stop offset="1" stop-color="#E8CC7B"/>
</linearGradient>
<linearGradient id="paint7_linear_63_1059" x1="27.6543" y1="10.6592" x2="37.205" y2="10.6592" gradientUnits="userSpaceOnUse">
<stop stop-color="#B38934"/>
<stop offset="1" stop-color="#E8CC7B"/>
</linearGradient>
<linearGradient id="paint8_linear_63_1059" x1="10.8418" y1="20.7793" x2="15.4551" y2="20.7793" gradientUnits="userSpaceOnUse">
<stop stop-color="#B38934"/>
<stop offset="1" stop-color="#E8CC7B"/>
</linearGradient>
<linearGradient id="paint9_linear_63_1059" x1="10.8418" y1="20.7793" x2="15.4551" y2="20.7793" gradientUnits="userSpaceOnUse">
<stop stop-color="#B38934"/>
<stop offset="1" stop-color="#E8CC7B"/>
</linearGradient>
<linearGradient id="paint10_linear_63_1059" x1="49.2076" y1="14.1335" x2="53.8288" y2="14.1335" gradientUnits="userSpaceOnUse">
<stop stop-color="#B38934"/>
<stop offset="1" stop-color="#E8CC7B"/>
</linearGradient>
<linearGradient id="paint11_linear_63_1059" x1="49.2076" y1="14.1335" x2="53.8288" y2="14.1335" gradientUnits="userSpaceOnUse">
<stop stop-color="#B38934"/>
<stop offset="1" stop-color="#E8CC7B"/>
</linearGradient>
</defs>
</svg>
