<svg width="16" height="16" viewBox="0 0 16 16" fill="none" xmlns="http://www.w3.org/2000/svg">
<g clip-path="url(#clip0_96_29)">
<g clip-path="url(#clip1_96_29)">
<path d="M13.964 5.526C13.935 4.8875 13.8335 4.451 13.685 4.0695C13.5315 3.675 13.3265 3.3405 12.993 3.007C12.6595 2.6735 12.325 2.4685 11.9305 2.315C11.549 2.1665 11.1125 2.065 10.474 2.036C9.834 2.007 9.6295 2 8 2C6.3705 2 6.166 2.007 5.526 2.036C4.8875 2.065 4.451 2.1665 4.0695 2.315C3.675 2.4685 3.3405 2.6735 3.007 3.007C2.6735 3.3405 2.4685 3.675 2.315 4.0695C2.1665 4.451 2.065 4.8875 2.036 5.526C2.007 6.166 2 6.3705 2 8C2 9.6295 2.007 9.834 2.036 10.474C2.065 11.1125 2.1665 11.549 2.315 11.9305C2.4685 12.325 2.6735 12.6595 3.007 12.993C3.3405 13.3265 3.675 13.5315 4.0695 13.685C4.451 13.8335 4.8875 13.9345 5.526 13.964C6.166 13.993 6.3705 14 8 14C9.6295 14 9.834 13.993 10.474 13.964C11.1125 13.935 11.549 13.8335 11.9305 13.685C12.325 13.5315 12.6595 13.3265 12.993 12.993C13.3265 12.6595 13.5315 12.325 13.685 11.9305C13.8335 11.549 13.9345 11.1125 13.964 10.474C13.993 9.834 14 9.6295 14 8C14 6.3705 13.993 6.166 13.964 5.526ZM12.884 10.4245C12.8575 11.0095 12.7595 11.327 12.6775 11.5385C12.5685 11.8185 12.4385 12.0185 12.2285 12.2285C12.0185 12.4385 11.8185 12.5685 11.5385 12.6775C11.327 12.7595 11.0095 12.8575 10.4245 12.884C9.792 12.913 9.602 12.919 8 12.919C6.398 12.919 6.208 12.913 5.5755 12.884C4.9905 12.8575 4.673 12.7595 4.4615 12.6775C4.1815 12.5685 3.9815 12.4385 3.7715 12.2285C3.5615 12.0185 3.4315 11.8185 3.3225 11.5385C3.2405 11.327 3.1425 11.0095 3.116 10.4245C3.087 9.792 3.081 9.602 3.081 8C3.081 6.398 3.087 6.208 3.116 5.5755C3.1425 4.9905 3.2405 4.673 3.3225 4.4615C3.4315 4.1815 3.5615 3.9815 3.7715 3.7715C3.9815 3.5615 4.1815 3.4315 4.4615 3.3225C4.673 3.2405 4.9905 3.1425 5.5755 3.116C6.208 3.087 6.398 3.081 8 3.081C9.602 3.081 9.792 3.087 10.4245 3.116C11.0095 3.1425 11.327 3.2405 11.5385 3.3225C11.8185 3.4315 12.0185 3.5615 12.2285 3.7715C12.4385 3.9815 12.5685 4.1815 12.6775 4.4615C12.7595 4.673 12.8575 4.9905 12.884 5.5755C12.913 6.208 12.919 6.398 12.919 8C12.919 9.602 12.913 9.792 12.884 10.4245ZM8 4.919C6.2985 4.919 4.919 6.2985 4.919 8C4.919 9.7015 6.2985 11.081 8 11.081C9.7015 11.081 11.081 9.7015 11.081 8C11.081 6.2985 9.7015 4.919 8 4.919ZM8 10C6.8955 10 6 9.1045 6 8C6 6.8955 6.8955 6 8 6C9.1045 6 10 6.8955 10 8C10 9.1045 9.1045 10 8 10ZM11.923 4.797C11.923 5.1945 11.6005 5.517 11.203 5.517C10.8055 5.517 10.483 5.1945 10.483 4.797C10.483 4.3995 10.8055 4.077 11.203 4.077C11.6005 4.077 11.923 4.3995 11.923 4.797Z" fill="black"/>
</g>
</g>
<defs>
<clipPath id="clip0_96_29">
<rect width="16" height="16" fill="white"/>
</clipPath>
<clipPath id="clip1_96_29">
<rect width="16" height="16" fill="white"/>
</clipPath>
</defs>
</svg>
