<svg width="42" height="42" viewBox="0 0 42 42" fill="none" xmlns="http://www.w3.org/2000/svg">
<g clip-path="url(#clip0_208_525)">
<path d="M17.0212 20.5489C16.5828 19.1653 16.0259 17.6538 14.4122 17.3651C13.6326 17.2257 12.5293 17.3263 11.6978 18.5981C11.1755 19.3969 10.8909 20.432 10.6397 21.3455C10.4699 21.9633 10.2565 22.5686 10.0238 23.1601C9.5528 24.3589 9.1074 25.4913 8.36591 26.4654C7.9612 26.9967 7.42672 27.4677 6.86083 27.9663C5.95176 28.7671 5.01193 29.5948 4.5348 30.7634C3.84331 32.4562 4.02563 34.2061 5.04814 35.6901C5.2279 35.9512 5.58519 36.0172 5.84634 35.8371C6.10749 35.6574 6.17318 35.3001 5.99342 35.0389C5.43074 34.2222 4.90522 32.8924 5.59736 31.1973C5.97291 30.2782 6.77271 29.5736 7.61962 28.8276C8.20281 28.314 8.80555 27.7827 9.27915 27.1611C10.1177 26.0597 10.6131 24.7991 11.0925 23.5799C11.3485 22.9285 11.5594 22.3308 11.7468 21.6496C11.9756 20.8178 12.2348 19.8747 12.6588 19.2265C13.067 18.602 13.5454 18.3764 14.2103 18.4952C15.5635 18.7378 15.923 20.8626 16.2579 21.9399C16.8616 23.8824 17.2653 25.8886 17.4326 27.9166C17.622 30.2154 17.755 32.8376 16.9295 34.8678C16.4511 36.0448 15.608 36.8837 14.4231 37.3618C13.3384 37.7992 12.0041 37.9148 10.5641 37.6963C9.60824 37.5511 8.66808 37.2147 7.84489 36.7231C7.57284 36.5607 7.22036 36.6494 7.0579 36.9215C6.89544 37.1935 6.9842 37.546 7.25625 37.7085C8.20602 38.276 9.29036 38.664 10.3917 38.8313C10.9374 38.9143 11.4648 38.955 11.9718 38.955C14.8419 38.955 17.0385 37.6486 17.993 35.3004C18.9136 33.0359 18.7771 30.2529 18.5769 27.8224C18.3917 25.5778 17.9289 23.3582 17.2326 21.2173C17.1625 21.002 17.0933 20.7771 17.0212 20.5489Z" fill="white"/>
<path d="M40.9166 32.7442C40.8701 31.6002 40.6468 30.4547 40.4305 29.3466C40.401 29.1954 40.3715 29.0448 40.3427 28.8942C39.7915 26.026 38.9693 23.3926 38.1628 20.9743C38.041 20.609 37.9272 20.2614 37.8138 19.915C37.3485 18.4942 36.8672 17.0253 35.8588 14.4471C35.5253 13.5925 34.7171 13.0404 33.7997 13.0404C33.7997 13.0404 33.238 13.0404 32.5113 13.0404C31.947 6.52115 31.3314 2.29783 30.7284 0.812941C30.5278 0.319152 30.0657 0 29.5514 0H26.49C26.1282 0 25.8033 0.192901 25.6206 0.516219C25.43 0.853636 25.4354 1.26956 25.6351 1.60089C25.8805 2.00816 26.0641 2.49394 26.2125 3.13C26.3951 3.91218 26.5518 4.78408 26.6919 5.79537C26.7479 6.20264 26.8021 6.63587 26.8617 7.1585C27.0302 8.63922 27.2219 11.3027 27.3388 13.0404H25.6389C24.5905 13.0404 23.6795 13.786 23.4725 14.8133C23.3347 15.4975 23.1607 16.3146 23.0014 17.0448C22.7361 16.3079 22.4205 15.4641 22.0228 14.4471C21.6892 13.5925 20.8811 13.0404 19.9637 13.0404C19.9637 13.0404 19.402 13.0404 18.6752 13.0404C18.111 6.52115 17.4957 2.29783 16.8923 0.812941C16.6921 0.319152 16.23 0 15.7157 0H12.6543C12.2925 0 11.9676 0.192901 11.7849 0.516219C11.5943 0.853636 11.5997 1.26956 11.7997 1.60089C12.0448 2.00816 12.2284 2.49394 12.3768 3.13C12.5594 3.91218 12.7161 4.78408 12.8562 5.79537C12.9122 6.20104 12.9661 6.63427 13.026 7.1585C13.1945 8.63922 13.3862 11.3027 13.5031 13.0404H11.8032C10.7547 13.0404 9.84375 13.786 9.63675 14.8133C9.31247 16.4229 8.78728 18.7752 8.7248 18.9819C8.31753 20.2655 7.80387 21.3451 7.19248 22.3198C6.57821 23.2879 5.75886 24.3232 4.61491 25.5066C4.60882 25.5126 4.60305 25.5187 4.59729 25.5248C3.63214 26.5217 2.83714 27.4596 2.25459 28.4315C1.52657 29.6466 1.13051 30.9148 1.14909 32.4183C1.15518 32.9192 1.20741 33.4466 1.30899 34.0064C1.53714 35.2663 2.01747 36.4468 2.71922 37.4905C2.72435 37.4978 2.72883 37.5058 2.73396 37.5132C2.73845 37.5196 2.74293 37.526 2.74742 37.5324C3.06721 38.0022 3.43155 38.4441 3.83882 38.8523C3.91732 38.9308 3.99743 39.008 4.07914 39.084C5.41535 40.3318 7.14249 41.2254 9.09778 41.6763C9.91617 41.865 10.7528 41.9445 11.5917 41.9535C14.1574 41.9813 16.8741 41.7074 19.3622 41.0447C19.6907 40.9572 20.0175 40.8598 20.3412 40.7522C21.1435 41.1517 22.0129 41.4638 22.9335 41.6763C25.5075 42.2697 28.1476 41.9387 30.7354 41.5472C33.1387 41.1835 35.59 40.5125 37.5789 39.0609C38.4749 38.4072 39.2529 37.5997 39.8572 36.6689C40.6182 35.4964 40.9746 34.1759 40.9166 32.7442ZM27.3305 2.86885C27.1696 2.18023 26.9678 1.62845 26.6995 1.14812H29.5514C29.5956 1.14812 29.6411 1.18689 29.6645 1.24489C29.9859 2.0354 30.6268 4.6181 31.359 13.0404H28.4895C28.3722 11.2943 28.1758 8.55303 28.0021 7.02872C27.9416 6.49648 27.8868 6.0546 27.8291 5.63804C27.6842 4.5915 27.5211 3.68563 27.3305 2.86885ZM13.4948 2.86885C13.3339 2.18023 13.132 1.62845 12.8638 1.14812H15.7157C15.7599 1.14812 15.8054 1.18689 15.8288 1.24489C16.1502 2.0354 16.7911 4.6181 17.5233 13.0404H16.4229C15.8577 13.0404 15.4546 13.0404 15.4542 13.0404H14.6538C14.5365 11.2943 14.3401 8.55303 14.1664 7.02872C14.1058 6.49488 14.0507 6.05332 13.9934 5.63804C13.8485 4.5915 13.6854 3.68563 13.4948 2.86885ZM11.6456 40.8041C9.59093 40.74 7.50138 40.1635 5.79731 38.9904C3.6802 37.5334 2.35489 35.0548 2.30298 32.4955C2.29272 31.9748 2.3363 31.4525 2.4523 30.9443C2.82528 29.3069 3.8667 27.9294 5.42208 26.3237C6.83936 24.8599 8.1195 23.2529 9.00293 21.4069C9.24903 20.8929 9.45699 20.3543 9.63803 19.8015C10.1145 18.3465 10.4032 16.7923 10.7044 15.3241C10.7246 15.2254 10.7439 15.1306 10.7621 15.0402C10.8615 14.5467 11.2995 14.1885 11.8032 14.1885H14.1155H14.1167H15.4555C15.8955 14.1891 16.2832 14.4545 16.4437 14.8649C17.4428 17.4182 17.8979 18.8085 18.3795 20.2803C18.4926 20.6257 18.6063 20.9727 18.7278 21.3374C19.6462 24.0918 20.3617 26.4679 20.8692 29.1108C21.3323 31.5217 21.6963 34.0509 20.6453 36.1511C19.4603 38.5184 17.0147 40.1613 13.9363 40.6583C13.1856 40.7794 12.4059 40.8278 11.6456 40.8041ZM18.6842 40.0305C19.9711 39.1564 20.9965 38.0147 21.6719 36.665C22.8838 34.2435 22.4971 31.4984 21.9969 28.8942C21.4467 26.0301 20.6241 23.3952 19.8169 20.9743C19.4452 19.8586 19.0972 18.7621 18.707 17.6492C18.3301 16.5738 17.9283 15.5077 17.513 14.4465C17.4781 14.3567 17.4364 14.2712 17.3916 14.1885H19.964C20.4049 14.1885 20.7933 14.4538 20.9538 14.8649C21.9507 17.4133 22.4054 18.8021 22.887 20.2723C23.8374 23.1748 24.8 26.0942 25.3797 29.1108C25.4088 29.262 25.4383 29.4139 25.4681 29.5661C25.6761 30.6319 25.8908 31.7342 25.9337 32.7907C25.9821 33.9801 25.6876 35.0747 25.0586 36.0434C23.6426 38.2252 21.3118 39.39 18.6842 40.0305ZM27.772 40.6583C27.4853 40.7047 27.1975 40.739 26.9094 40.764C26.8098 40.7698 26.7095 40.7752 26.6101 40.7804C26.2026 40.8005 25.8212 40.8086 25.4601 40.8041C24.22 40.7631 23.0072 40.5327 21.895 40.1347C22.6691 39.7713 23.4039 39.333 24.071 38.8046C24.1229 38.8132 24.1748 38.8232 24.2274 38.8312C24.7731 38.9138 25.3005 38.9545 25.8075 38.9545C28.6776 38.9545 30.8738 37.6484 31.8284 35.3003C32.7493 33.0358 32.6125 30.2528 32.4122 27.8223C32.2927 26.3746 32.0354 24.8154 31.6679 23.3132C31.5926 23.0052 31.2818 22.8165 30.9738 22.8921C30.6659 22.9674 30.4775 23.2783 30.5528 23.5862C30.9062 25.0307 31.1536 26.5281 31.268 27.9165C31.4577 30.215 31.5907 32.8374 30.7652 34.8677C30.2868 36.0447 29.4434 36.8836 28.2588 37.3617C27.3696 37.7202 26.3125 37.8615 25.1669 37.7808C25.281 37.6549 25.3915 37.5257 25.4986 37.3924C25.6851 37.1601 25.8594 36.9185 26.0215 36.6686C26.7825 35.4964 27.1389 34.1759 27.0809 32.7439C27.0344 31.6002 26.8111 30.4544 26.5948 29.3463C26.5653 29.1951 26.5358 29.0445 26.507 28.8942C26.1273 26.9177 25.6187 25.0528 25.0753 23.293C25.2659 22.7428 25.4335 22.1904 25.5822 21.6495C25.8113 20.8176 26.0705 19.8746 26.4942 19.2264C26.9027 18.6015 27.3811 18.3763 28.0457 18.4951C28.9234 18.6521 29.2656 19.475 29.6533 20.6203C29.6892 20.7266 29.7248 20.8311 29.7603 20.9327L29.7901 21.0182C29.894 21.3178 30.2211 21.4765 30.5204 21.3726C30.82 21.2688 30.9786 20.942 30.8748 20.6424L30.8437 20.553C30.8094 20.4552 30.7755 20.3549 30.7405 20.2524C30.3695 19.1559 29.861 17.6537 28.2479 17.3653C27.4683 17.2259 26.3647 17.3265 25.5332 18.5983C25.0112 19.3972 24.7266 20.4318 24.4754 21.3454C24.4716 21.3592 24.4674 21.3726 24.4636 21.3861C24.4181 21.2483 24.3726 21.1112 24.3271 20.9747C24.2053 20.6094 24.0915 20.2617 23.9781 19.9153C23.8913 19.6503 23.8038 19.3834 23.7125 19.1081C23.8861 18.3968 24.3444 16.2982 24.5978 15.0402C24.6972 14.5467 25.1352 14.1888 25.6389 14.1888H27.9512H27.9524H29.2912C29.7312 14.1895 30.1192 14.4548 30.2798 14.8649C31.2786 17.4185 31.7336 18.8088 32.2155 20.2806C32.3286 20.626 32.442 20.9731 32.5635 21.3374C33.4819 24.0918 34.1974 26.4682 34.705 29.1111C35.168 31.5217 35.5323 34.0512 34.481 36.1514C33.296 38.5184 30.8508 40.1613 27.772 40.6583ZM38.8943 36.0437C37.4783 38.2252 35.1475 39.3903 32.5199 40.0305C33.8068 39.1564 34.8322 38.0147 35.5076 36.665C36.7195 34.2435 36.3328 31.4984 35.8326 28.8942C35.2824 26.0301 34.4598 23.3952 33.6526 20.9743C33.413 20.2553 33.1858 19.5478 32.9467 18.8313C32.8086 18.4186 32.6683 18.0065 32.5241 17.596C32.1527 16.5386 31.757 15.4901 31.3487 14.4465C31.3138 14.3567 31.2721 14.2712 31.227 14.1885H33.7997C34.2403 14.1885 34.629 14.4538 34.7895 14.8649C35.2042 15.9275 35.6073 16.9949 35.9838 18.0715C36.3667 19.1658 36.7083 20.2418 37.0736 21.3374C37.4966 22.606 37.9048 23.8794 38.2685 25.1663C38.6735 26.5986 39.0196 28.1098 39.3038 29.5665C39.5115 30.6322 39.7265 31.7342 39.7694 32.7903C39.8178 33.9801 39.5233 35.0747 38.8943 36.0437Z" fill="white"/>
</g>
<defs>
<clipPath id="clip0_208_525">
<rect width="42" height="42" fill="white"/>
</clipPath>
</defs>
</svg>
