<svg width="24" height="24" viewBox="0 0 24 24" fill="none" xmlns="http://www.w3.org/2000/svg">
<g clip-path="url(#clip0_216_343)">
<path d="M21.9594 5.89156C20.865 5.01936 19.3203 4.30527 17.3683 3.7692C13.614 2.73823 9.38039 2.62695 7.73442 2.62695C3.46964 2.62695 0 6.09664 0 10.3614V13.6385C0 17.9033 3.46964 21.3729 7.73442 21.3729C9.70097 21.3729 11.1779 20.7569 12.7415 20.1047C14.3585 19.4302 16.0305 18.7328 18.382 18.7328C21.4798 18.7328 24 16.2125 24 13.1148V9.83773C24 8.29841 23.3134 6.97072 21.9594 5.89156ZM21.5647 13.905C21.7421 14.0936 22.0388 14.1025 22.2273 13.925C22.5452 13.6257 22.8248 13.2922 23.0625 12.9331V13.1148C23.0625 15.6957 20.9628 17.7953 18.382 17.7953C15.8428 17.7953 14.0827 18.5294 12.3806 19.2394C10.906 19.8545 9.51328 20.4354 7.73442 20.4354C4.13348 20.4354 1.17806 17.6204 0.951938 14.0755C2.26819 16.4696 4.81486 18.0958 7.73442 18.0958C9.70097 18.0958 11.1779 17.4798 12.7415 16.8275C14.3585 16.1531 16.0305 15.4557 18.382 15.4557C18.5567 15.4557 18.7332 15.4474 18.9066 15.4312C19.1644 15.407 19.3538 15.1785 19.3296 14.9208C19.3055 14.663 19.0767 14.4737 18.8192 14.4978C18.6747 14.5113 18.5276 14.5182 18.382 14.5182C15.8428 14.5182 14.0827 15.2524 12.3806 15.9623C10.906 16.5774 9.51328 17.1583 7.73442 17.1583C3.98658 17.1583 0.9375 14.1093 0.9375 10.3615C0.9375 6.61362 3.98658 3.5645 7.73442 3.5645C9.34238 3.5645 13.4757 3.67255 17.12 4.67328C21.0631 5.75614 23.0625 7.4937 23.0625 9.83773C23.0625 11.1172 22.5238 12.3582 21.5846 13.2424C21.3961 13.4199 21.3872 13.7165 21.5647 13.905Z" fill="url(#paint0_linear_216_343)"/>
<path d="M21.187 14.2033C21.0768 13.9691 20.7975 13.8686 20.5633 13.9788C20.5599 13.9804 20.5555 13.9826 20.5522 13.9842C20.3206 14.1 20.2268 14.3816 20.3425 14.6131C20.4247 14.7773 20.5902 14.8723 20.7622 14.8723C20.8317 14.8723 20.9022 14.8568 20.9686 14.8241C21.1985 14.7119 21.2963 14.4355 21.187 14.2033Z" fill="url(#paint1_linear_216_343)"/>
<path d="M11.122 4.63428L11.0979 4.63231C10.8394 4.61215 10.6139 4.80425 10.5933 5.06234C10.5727 5.32039 10.7652 5.54628 11.0233 5.5669L11.0472 5.56878C11.0599 5.56981 11.0726 5.57033 11.0851 5.57033C11.327 5.57033 11.5322 5.38423 11.5519 5.13894C11.5725 4.88084 11.3801 4.65495 11.122 4.63428Z" fill="url(#paint2_linear_216_343)"/>
<path d="M21.8324 8.57497C21.3675 7.65603 20.3329 6.86187 18.7575 6.21462C17.4827 5.69089 16.0886 5.36005 15.1435 5.17466C14.5771 5.06361 13.9836 4.96442 13.3794 4.87995C13.1231 4.84377 12.8861 5.02283 12.8502 5.27928C12.8144 5.53569 12.9931 5.77255 13.2495 5.80841C13.8369 5.89053 14.4134 5.98686 14.9631 6.09467C18.183 6.72613 20.3818 7.78442 20.9959 8.99811C21.1249 9.25316 21.1876 9.5278 21.1876 9.83773C21.1876 11.3847 19.929 12.6432 18.3821 12.6432C16.818 12.6432 15.2991 12.8988 13.7386 13.4247C13.0665 13.6513 12.4139 13.922 11.7828 14.184C11.3654 14.3572 10.9338 14.5363 10.5053 14.6987C9.42417 15.1085 8.59547 15.2833 7.73452 15.2833C5.02055 15.2833 2.81255 13.0753 2.81255 10.3614C2.81255 7.64745 5.02055 5.43945 7.73452 5.43945C8.26397 5.43945 8.80148 5.44948 9.33202 5.46927C9.42206 5.47259 9.5122 5.4762 9.60239 5.48019C9.86081 5.49191 10.08 5.29119 10.0913 5.03253C10.1028 4.77392 9.90234 4.55497 9.64373 4.54358C9.55139 4.5395 9.45905 4.5358 9.36689 4.53238C8.82478 4.51217 8.27555 4.50195 7.73447 4.50195C4.50356 4.50195 1.875 7.13047 1.875 10.3614C1.875 13.5923 4.50352 16.2208 7.73447 16.2208C8.7158 16.2208 9.64383 16.0278 10.8375 15.5753C11.2796 15.4078 11.7181 15.2258 12.1422 15.0498C12.7587 14.794 13.3963 14.5294 14.038 14.3131C15.5004 13.8202 16.9214 13.5807 18.3821 13.5807C20.446 13.5808 22.1251 11.9016 22.1251 9.83778C22.1251 9.37738 22.0293 8.96431 21.8324 8.57497Z" fill="url(#paint3_linear_216_343)"/>
<path d="M8.18716 6.36572C6.87672 6.36572 5.81055 7.33252 5.81055 8.52089C5.81055 9.70927 6.87672 10.6761 8.18716 10.6761C9.49764 10.6761 10.5638 9.70927 10.5638 8.52089C10.5638 7.33252 9.49764 6.36572 8.18716 6.36572ZM8.18716 9.73852C7.39361 9.73852 6.74805 9.19229 6.74805 8.52085C6.74805 7.84946 7.39361 7.30318 8.18716 7.30318C8.9807 7.30318 9.62627 7.84941 9.62627 8.52085C9.62627 9.19229 8.9807 9.73852 8.18716 9.73852Z" fill="url(#paint4_linear_216_343)"/>
</g>
<defs>
<linearGradient id="paint0_linear_216_343" x1="0" y1="11.9999" x2="24" y2="11.9999" gradientUnits="userSpaceOnUse">
<stop stop-color="#B38934"/>
<stop offset="1" stop-color="#E8CC7B"/>
</linearGradient>
<linearGradient id="paint1_linear_216_343" x1="20.293" y1="14.4032" x2="21.2318" y2="14.4032" gradientUnits="userSpaceOnUse">
<stop stop-color="#B38934"/>
<stop offset="1" stop-color="#E8CC7B"/>
</linearGradient>
<linearGradient id="paint2_linear_216_343" x1="10.5918" y1="5.10059" x2="11.5534" y2="5.10059" gradientUnits="userSpaceOnUse">
<stop stop-color="#B38934"/>
<stop offset="1" stop-color="#E8CC7B"/>
</linearGradient>
<linearGradient id="paint3_linear_216_343" x1="1.875" y1="10.3614" x2="22.1251" y2="10.3614" gradientUnits="userSpaceOnUse">
<stop stop-color="#B38934"/>
<stop offset="1" stop-color="#E8CC7B"/>
</linearGradient>
<linearGradient id="paint4_linear_216_343" x1="5.81055" y1="8.52089" x2="10.5638" y2="8.52089" gradientUnits="userSpaceOnUse">
<stop stop-color="#B38934"/>
<stop offset="1" stop-color="#E8CC7B"/>
</linearGradient>
<clipPath id="clip0_216_343">
<rect width="24" height="24" fill="white"/>
</clipPath>
</defs>
</svg>
