<svg width="24" height="24" viewBox="0 0 24 24" fill="none" xmlns="http://www.w3.org/2000/svg">
<path d="M18.2935 12.1257L17.7023 5.69367C17.6757 5.40417 17.4329 5.18264 17.1421 5.18264H13.7073V3.87581C13.7073 1.84205 12.0527 0.1875 10.019 0.1875C7.9853 0.1875 6.33071 1.84205 6.33071 3.87581V5.18259H2.8958C2.60508 5.18259 2.36227 5.40412 2.33564 5.69362L1.11361 18.9892C1.06636 19.5037 1.22541 19.9773 1.57355 20.3589C1.92178 20.7406 2.37886 20.9423 2.89547 20.9423H11.9111C12.9475 22.6608 14.8324 23.8125 16.9814 23.8125C20.244 23.8125 22.8983 21.1582 22.8983 17.8957C22.8983 15.084 20.9267 12.7242 18.2935 12.1257ZM7.45571 3.87581C7.45571 2.46239 8.6056 1.3125 10.019 1.3125C11.4324 1.3125 12.5824 2.46239 12.5824 3.87581V5.18259H7.45571V3.87581ZM2.89547 19.8173C2.69546 19.8173 2.5395 19.7485 2.40469 19.6007C2.26988 19.4529 2.21564 19.2913 2.23392 19.0921L3.40899 6.30764H6.33071V7.33322C6.33071 7.64386 6.58256 7.89572 6.89321 7.89572C7.20385 7.89572 7.45571 7.64386 7.45571 7.33322V6.30764H12.5824V7.33322C12.5824 7.64386 12.8342 7.89572 13.1449 7.89572C13.4555 7.89572 13.7074 7.64386 13.7074 7.33322V6.30764H16.629L17.1506 11.9814C17.0944 11.9798 17.038 11.9789 16.9815 11.9789C13.7189 11.9789 11.0646 14.6332 11.0646 17.8957C11.0646 18.5681 11.1776 19.2145 11.3852 19.8173H2.89547ZM16.9814 22.6875C14.3392 22.6875 12.1896 20.5379 12.1896 17.8957C12.1896 15.2534 14.3392 13.1038 16.9814 13.1038C19.6236 13.1038 21.7733 15.2534 21.7733 17.8957C21.7733 20.5379 19.6236 22.6875 16.9814 22.6875ZM19.6248 16.1316C19.8397 16.356 19.8319 16.7121 19.6075 16.9269L16.7352 19.677C16.6266 19.781 16.4864 19.8332 16.3462 19.8332C16.2098 19.8332 16.0734 19.7839 15.9658 19.685L14.3639 18.2138C14.1351 18.0037 14.1199 17.6479 14.33 17.4191C14.5402 17.1902 14.896 17.1751 15.1248 17.3852L16.3382 18.4996L18.8295 16.1143C19.0539 15.8995 19.41 15.9072 19.6248 16.1316Z" fill="url(#paint0_linear_216_379)"/>
<defs>
<linearGradient id="paint0_linear_216_379" x1="1.10547" y1="12" x2="22.8983" y2="12" gradientUnits="userSpaceOnUse">
<stop stop-color="#B38934"/>
<stop offset="1" stop-color="#E8CC7B"/>
</linearGradient>
</defs>
</svg>
