<svg width="64" height="64" viewBox="0 0 64 64" fill="none" xmlns="http://www.w3.org/2000/svg">
<path d="M62 44H57.82C58.38 43.57 58.89 43.07 59.35 42.51C61.71 39.65 63 36.01 63 32.25C63 30.24 62.63 28.27 61.92 26.4L61.21 24.54C59.68 20.57 56.03 18 51.9 18H31.9C29.79 18 27.77 18.67 25.99 20C21.56 23.93 10.04 26.04 9.93 26.06C9.89 26.06 9.84 26.08 9.8 26.09C5.9 27.34 4.01 30.32 4.01 35.2C4.01 38.39 5.51 41.41 8.01 43.27L8.99 44H2C1.45 44 1 44.45 1 45C1 45.55 1.45 46 2 46H62C62.55 46 63 45.55 63 45C63 44.45 62.55 44 62 44ZM42.59 28.62C42.47 28.08 41.93 27.74 41.39 27.87C40.85 27.99 40.51 28.53 40.64 29.07C40.88 30.11 41 31.18 41 32.26C41 35.56 39.87 38.75 37.8 41.25C36.35 43 34.25 44.01 32.04 44.01H14.76C13.17 44.01 11.65 43.5 10.35 42.54L9.19 41.68C7.19 40.19 6 37.78 6 35.22C6 31.24 7.34 29.02 10.34 28.03C11.42 27.83 22.59 25.69 27.24 21.57C28.61 20.56 30.21 20.02 31.89 20.02C35.18 20.02 38.1 22.08 39.33 25.28C39.53 25.8 40.11 26.05 40.62 25.85C41.13 25.65 41.39 25.07 41.19 24.56C40.47 22.7 39.28 21.15 37.8 20.02H51.88C55.17 20.02 58.09 22.08 59.32 25.28L60.03 27.14C60.66 28.78 60.98 30.51 60.98 32.27C60.98 35.57 59.85 38.76 57.78 41.26C56.33 43.01 54.23 44.02 52.02 44.02H37.8C38.36 43.59 38.87 43.09 39.33 42.53C41.69 39.67 42.98 36.03 42.98 32.27C42.98 31.05 42.84 29.83 42.57 28.64L42.59 28.62Z" fill="url(#paint0_linear_401_17)"/>
<path d="M37.49 25.99C36.57 23.57 34.38 22 31.89 22C30.67 22 29.5 22.38 28.42 23.16C23.44 27.5 12.93 29.7 10.87 30.09C10.82 30.09 10.77 30.11 10.72 30.13C8.76 30.83 7.99 32.27 7.99 35.26C7.99 37.14 8.86 38.91 10.31 40.01L11.47 40.89C12.43 41.62 13.56 42 14.75 42H32.03C33.68 42 35.24 41.24 36.3 39.93C38.03 37.79 38.98 35.07 38.98 32.26C38.98 30.76 38.71 29.29 38.18 27.89L37.47 26L37.49 25.99ZM34.76 38.67C34.08 39.52 33.08 40 32.04 40H24.27C24.78 39.25 25.06 38.26 24.99 37.4C24.91 36.25 24.33 35.21 23.32 34.62C22.32 34.03 21.13 33.95 19.99 33.99C19.47 34.01 18.97 34.44 18.99 34.99C19.01 35.51 19.43 36.01 19.99 35.99C20.43 35.97 20.89 35.96 21.33 36.02C21.36 36.02 21.53 36.06 21.53 36.06C21.63 36.08 21.73 36.11 21.82 36.13C21.9 36.15 21.98 36.18 22.06 36.21C22.1 36.23 22.14 36.25 22.17 36.27C22.26 36.32 22.34 36.37 22.42 36.42C22.44 36.43 22.44 36.43 22.45 36.44C22.47 36.46 22.5 36.48 22.52 36.5C22.56 36.54 22.6 36.58 22.64 36.63C22.64 36.63 22.73 36.74 22.75 36.77C22.8 36.85 22.84 36.93 22.88 37.01C22.79 36.84 22.9 37.09 22.91 37.11C22.94 37.2 22.95 37.29 22.97 37.38C22.92 37.17 22.97 37.47 22.97 37.51C22.98 37.92 22.93 38.12 22.76 38.56C22.74 38.6 22.72 38.64 22.7 38.68C22.66 38.75 22.63 38.82 22.59 38.89C22.58 38.91 22.5 39.01 22.49 39.03C22.45 39.08 22.4 39.12 22.36 39.16C22.34 39.17 22.24 39.25 22.22 39.26C22.14 39.31 22.05 39.36 21.97 39.4C21.78 39.5 21.59 39.6 21.39 39.69C21.19 39.78 21.16 39.8 20.91 39.88C20.75 39.93 20.59 39.97 20.42 40H14.73C13.98 40 13.27 39.76 12.66 39.29L11.5 38.41C10.55 37.69 9.98 36.51 9.98 35.26C9.98 32.61 10.65 32.28 11.31 32.04C12.97 31.72 18.96 30.44 24.15 28.07C24.61 28.73 24.93 29.49 25.25 30.22C25.74 31.32 26.34 32.31 27.33 33.03C28.35 33.76 29.66 34.07 30.9 34C32.24 33.91 33.66 33.56 34.48 32.43C34.8 31.99 34.55 31.32 34.12 31.06C33.61 30.76 33.07 30.98 32.75 31.42C32.55 31.7 32.04 31.79 31.73 31.86C31.2 31.99 30.67 32.04 30.13 31.99C29.28 31.92 28.45 31.52 27.89 30.87C27.33 30.21 27.03 29.34 26.68 28.56C26.47 28.09 26.23 27.63 25.95 27.18C27.32 26.45 28.59 25.63 29.63 24.72C30.29 24.25 31.06 24 31.86 24C33.51 24 34.97 25.06 35.59 26.7L36.3 28.59C36.74 29.76 36.97 31 36.97 32.26C36.97 34.61 36.18 36.89 34.73 38.67H34.76Z" fill="url(#paint1_linear_401_17)"/>
<defs>
<linearGradient id="paint0_linear_401_17" x1="1" y1="32" x2="63" y2="32" gradientUnits="userSpaceOnUse">
<stop stop-color="#B38934"/>
<stop offset="1" stop-color="#E8CC7B"/>
</linearGradient>
<linearGradient id="paint1_linear_401_17" x1="7.99" y1="32" x2="38.98" y2="32" gradientUnits="userSpaceOnUse">
<stop stop-color="#B38934"/>
<stop offset="1" stop-color="#E8CC7B"/>
</linearGradient>
</defs>
</svg>
