<?xml version="1.0" encoding="UTF-8"?>
<svg version="1.1" xmlns="http://www.w3.org/2000/svg" width="500" height="500">
<path d="M0 0 C2.52544696 1.44660893 2.52544696 1.44660893 5.51171875 2.34765625 C5.51171875 3.00765625 5.51171875 3.66765625 5.51171875 4.34765625 C6.06472656 4.45722656 6.61773437 4.56679687 7.1875 4.6796875 C14.92051251 6.90211631 23.3032551 12.25824901 29.51171875 17.34765625 C29.51171875 18.00765625 29.51171875 18.66765625 29.51171875 19.34765625 C30.27484375 19.63640625 31.03796875 19.92515625 31.82421875 20.22265625 C34.51171875 21.34765625 34.51171875 21.34765625 37.51171875 23.34765625 C37.51171875 24.00765625 37.51171875 24.66765625 37.51171875 25.34765625 C38.0840625 25.60289063 38.65640625 25.858125 39.24609375 26.12109375 C59.48650986 37.07883627 75.48311299 61.44047754 87.51171875 80.34765625 C88.18976563 81.39824219 88.8678125 82.44882813 89.56640625 83.53125 C102.55190151 104.83476331 110.96347729 130.6758271 114.51171875 155.34765625 C114.66616455 156.39493896 114.66616455 156.39493896 114.82373047 157.46337891 C119.6840256 191.82328526 115.32815033 225.58174712 104.51171875 258.34765625 C103.94517578 260.06855469 103.94517578 260.06855469 103.3671875 261.82421875 C99.78544806 271.82271402 94.60162283 281.05689591 89.51171875 290.34765625 C88.92390625 291.44335938 88.33609375 292.5390625 87.73046875 293.66796875 C78.57719755 310.13488311 65.1300014 328.27820237 50.51171875 340.34765625 C49.85171875 340.34765625 49.19171875 340.34765625 48.51171875 340.34765625 C48.51171875 341.00765625 48.51171875 341.66765625 48.51171875 342.34765625 C18.47852373 370.34765625 18.47852373 370.34765625 5.51171875 370.34765625 C5.51171875 371.00765625 5.51171875 371.66765625 5.51171875 372.34765625 C-47.02124022 397.54974245 -105.42792158 403.16634356 -160.92578125 383.91015625 C-170.30580031 380.55674908 -179.61389033 376.89151506 -188.48828125 372.34765625 C-188.48828125 371.68765625 -188.48828125 371.02765625 -188.48828125 370.34765625 C-189.04773438 370.23292969 -189.6071875 370.11820312 -190.18359375 370 C-203.05777833 366.35595115 -215.21437665 355.3667694 -225.40234375 347.0390625 C-226.81625273 345.89257825 -228.27238062 344.79663109 -229.76171875 343.75 C-230.61636719 343.05583984 -230.61636719 343.05583984 -231.48828125 342.34765625 C-231.48828125 341.68765625 -231.48828125 341.02765625 -231.48828125 340.34765625 C-232.06191406 340.09886719 -232.63554687 339.85007812 -233.2265625 339.59375 C-241.52883146 335.01961564 -247.72766345 325.65995562 -253.48828125 318.34765625 C-254.10171387 317.58146973 -254.10171387 317.58146973 -254.72753906 316.79980469 C-268.32974691 299.80489834 -279.05929566 280.81589871 -286.48828125 260.34765625 C-286.73674805 259.6825 -286.98521484 259.01734375 -287.24121094 258.33203125 C-306.91745297 205.26353564 -302.45325044 147.46191064 -279.43017578 96.34326172 C-277.83215187 92.95750551 -275.98943763 89.78344787 -273.9609375 86.640625 C-272.30487002 84.06207962 -270.84843009 81.40308151 -269.36328125 78.72265625 C-262.80449371 67.47281537 -254.6490285 57.2371895 -245.74609375 47.76171875 C-243.03938507 44.8676946 -240.49228422 41.85616105 -237.9609375 38.80859375 C-236.48828125 37.34765625 -236.48828125 37.34765625 -233.48828125 36.34765625 C-233.48828125 35.68765625 -233.48828125 35.02765625 -233.48828125 34.34765625 C-231.9140625 32.76171875 -231.9140625 32.76171875 -229.80078125 30.97265625 C-228.70830078 30.04646484 -228.70830078 30.04646484 -227.59375 29.1015625 C-226.89894531 28.52277344 -226.20414062 27.94398437 -225.48828125 27.34765625 C-224.53953125 26.54328125 -223.59078125 25.73890625 -222.61328125 24.91015625 C-220.48828125 23.34765625 -220.48828125 23.34765625 -218.48828125 23.34765625 C-218.48828125 22.68765625 -218.48828125 22.02765625 -218.48828125 21.34765625 C-213.07651654 17.34765625 -213.07651654 17.34765625 -210.48828125 17.34765625 C-210.48828125 16.68765625 -210.48828125 16.02765625 -210.48828125 15.34765625 C-209.10571289 14.23779297 -209.10571289 14.23779297 -207.1484375 13.02734375 C-206.42358154 12.5782666 -205.69872559 12.12918945 -204.9519043 11.66650391 C-203.76334839 10.95179932 -203.76334839 10.95179932 -202.55078125 10.22265625 C-201.73971924 9.73200684 -200.92865723 9.24135742 -200.09301758 8.73583984 C-141.48502593 -26.10969866 -61.0604159 -32.97112249 0 0 Z M-119.48828125 -7.65234375 C-120.3076416 -7.58289551 -121.12700195 -7.51344727 -121.97119141 -7.44189453 C-127.30004301 -6.94321445 -132.2362583 -5.79100435 -137.36328125 -4.27734375 C-138.9464928 -3.82119168 -140.52982578 -3.36546085 -142.11328125 -2.91015625 C-142.86738281 -2.69133789 -143.62148437 -2.47251953 -144.3984375 -2.24707031 C-147.04018712 -1.49528269 -149.70061776 -0.82574992 -152.36328125 -0.15234375 C-158.31156534 1.4789281 -163.86698347 3.82753901 -169.48828125 6.34765625 C-170.14135254 6.63801758 -170.79442383 6.92837891 -171.46728516 7.22753906 C-184.78579598 13.18329756 -196.82862175 20.4086566 -208.80078125 28.72265625 C-209.56132812 29.24698242 -210.321875 29.77130859 -211.10546875 30.31152344 C-211.80542969 30.80555664 -212.50539063 31.29958984 -213.2265625 31.80859375 C-213.85602783 32.24993652 -214.48549316 32.6912793 -215.1340332 33.14599609 C-215.58093506 33.54254395 -216.02783691 33.9390918 -216.48828125 34.34765625 C-216.48828125 35.00765625 -216.48828125 35.66765625 -216.48828125 36.34765625 C-217.14828125 36.34765625 -217.80828125 36.34765625 -218.48828125 36.34765625 C-218.48828125 37.00765625 -218.48828125 37.66765625 -218.48828125 38.34765625 C-219.32359375 38.71890625 -219.32359375 38.71890625 -220.17578125 39.09765625 C-225.3776268 41.90946465 -228.92695334 45.87315677 -232.70703125 50.31640625 C-234.37278831 52.21595377 -236.10622789 53.97176528 -237.92578125 55.72265625 C-240.72112682 57.97478388 -240.72112682 57.97478388 -240.48828125 60.34765625 C-241.14828125 60.34765625 -241.80828125 60.34765625 -242.48828125 60.34765625 C-243.80604281 61.73066371 -243.80604281 61.73066371 -245.08984375 63.55859375 C-245.5796875 64.22632812 -246.06953125 64.8940625 -246.57421875 65.58203125 C-247.33605469 66.64164063 -247.33605469 66.64164063 -248.11328125 67.72265625 C-248.62890625 68.42132813 -249.14453125 69.12 -249.67578125 69.83984375 C-252.4881259 73.26279474 -252.4881259 73.26279474 -253.48828125 77.34765625 C-254.14828125 77.34765625 -254.80828125 77.34765625 -255.48828125 77.34765625 C-256.01615234 78.32992187 -256.01615234 78.32992187 -256.5546875 79.33203125 C-261.06404954 87.66787544 -261.06404954 87.66787544 -263.12890625 90.9765625 C-276.0144827 111.65971909 -283.35562782 136.31150422 -286.48828125 160.34765625 C-286.58326904 160.98791748 -286.67825684 161.62817871 -286.77612305 162.2878418 C-287.81893855 170.07883226 -287.68724205 177.94002581 -287.67578125 185.78515625 C-287.675177 186.54465576 -287.67457275 187.30415527 -287.6739502 188.08666992 C-287.58610059 228.69889769 -276.11200103 268.33840724 -251.7578125 301.2265625 C-249.85906333 303.83775111 -248.13888085 306.45218082 -246.48828125 309.22265625 C-245.82828125 310.25390625 -245.16828125 311.28515625 -244.48828125 312.34765625 C-243.82828125 312.34765625 -243.16828125 312.34765625 -242.48828125 312.34765625 C-242.48828125 313.00765625 -242.48828125 313.66765625 -242.48828125 314.34765625 C-241.82828125 314.34765625 -241.16828125 314.34765625 -240.48828125 314.34765625 C-240.24078125 314.90453125 -239.99328125 315.46140625 -239.73828125 316.03515625 C-238.25903307 318.77176538 -236.55360686 321.02416494 -234.48828125 323.34765625 C-233.82828125 323.34765625 -233.16828125 323.34765625 -232.48828125 323.34765625 C-232.48828125 324.00765625 -232.48828125 324.66765625 -232.48828125 325.34765625 C-231.15494792 327.01432292 -231.15494792 327.01432292 -229.48828125 328.34765625 C-228.82828125 328.34765625 -228.16828125 328.34765625 -227.48828125 328.34765625 C-227.48828125 329.00765625 -227.48828125 329.66765625 -227.48828125 330.34765625 C-226.82828125 330.34765625 -226.16828125 330.34765625 -225.48828125 330.34765625 C-225.48828125 331.00765625 -225.48828125 331.66765625 -225.48828125 332.34765625 C-222.43269702 335.37283534 -222.43269702 335.37283534 -218.48828125 336.34765625 C-218.48828125 337.00765625 -218.48828125 337.66765625 -218.48828125 338.34765625 C-217.82828125 338.34765625 -217.16828125 338.34765625 -216.48828125 338.34765625 C-216.48828125 339.00765625 -216.48828125 339.66765625 -216.48828125 340.34765625 C-214.39378445 341.98195376 -212.31046034 343.48932859 -210.11328125 344.97265625 C-209.51 345.39289063 -208.90671875 345.813125 -208.28515625 346.24609375 C-205.17114254 348.58125948 -205.17114254 348.58125948 -201.48828125 349.34765625 C-201.48828125 350.00765625 -201.48828125 350.66765625 -201.48828125 351.34765625 C-174.95124746 366.59233523 -149.10544446 378.24860966 -118.48828125 382.34765625 C-117.84060791 382.44554443 -117.19293457 382.54343262 -116.52563477 382.64428711 C-108.42221444 383.74124813 -100.21205111 383.54636037 -92.05078125 383.53515625 C-91.24426117 383.534552 -90.43774109 383.53394775 -89.60678101 383.5333252 C-57.48369955 383.46780295 -27.90059652 376.82193417 0.51171875 361.34765625 C1.55972656 360.78820312 2.60773438 360.22875 3.6875 359.65234375 C8.67557032 356.96594052 13.60634581 354.18187173 18.51171875 351.34765625 C18.51171875 350.68765625 18.51171875 350.02765625 18.51171875 349.34765625 C19.22714844 349.08984375 19.94257813 348.83203125 20.6796875 348.56640625 C23.68331986 347.2738086 26.14677247 345.71988535 28.82421875 343.84765625 C29.70722656 343.23921875 30.59023438 342.63078125 31.5 342.00390625 C32.16386719 341.45734375 32.82773437 340.91078125 33.51171875 340.34765625 C33.51171875 339.68765625 33.51171875 339.02765625 33.51171875 338.34765625 C34.17171875 338.34765625 34.83171875 338.34765625 35.51171875 338.34765625 C35.51171875 337.68765625 35.51171875 337.02765625 35.51171875 336.34765625 C36.06859375 336.10015625 36.62546875 335.85265625 37.19921875 335.59765625 C42.4010643 332.78584785 45.95039084 328.82215573 49.73046875 324.37890625 C51.39622581 322.47935873 53.12966539 320.72354722 54.94921875 318.97265625 C57.74456432 316.72052862 57.74456432 316.72052862 57.51171875 314.34765625 C58.17171875 314.34765625 58.83171875 314.34765625 59.51171875 314.34765625 C62.00534014 311.40787221 64.14380855 308.20430388 66.33789062 305.03662109 C67.10838764 303.92798999 67.88554523 302.82395245 68.66992188 301.72509766 C80.77395053 284.76632296 90.11077166 266.16166666 96.51171875 246.34765625 C96.90875 245.15269531 97.30578125 243.95773437 97.71484375 242.7265625 C100.69106089 233.12048851 102.18148835 223.29229778 103.51171875 213.34765625 C103.60960693 212.69418213 103.70749512 212.04070801 103.80834961 211.36743164 C104.87560502 203.43013604 104.71053363 195.40327922 104.69921875 187.41015625 C104.6986145 186.62731262 104.69801025 185.84446899 104.6973877 185.03790283 C104.63475521 155.21491153 98.79003276 128.14736553 85.51171875 101.34765625 C85.04121094 100.33445312 84.57070313 99.32125 84.0859375 98.27734375 C80.04604577 89.74236122 74.86708418 82.09494379 69.51171875 74.34765625 C68.97804688 74.734375 68.444375 75.12109375 67.89453125 75.51953125 C55.5321076 84.16039484 43.34854568 86.70535379 28.43359375 86.47265625 C27.30455627 86.46508301 26.1755188 86.45750977 25.01226807 86.44970703 C20.2288562 86.41733814 15.44580032 86.36115006 10.66259766 86.30664062 C-8.98196641 86.10237371 -26.0000201 86.12542151 -43.67578125 95.66015625 C-48.95908082 98.3910046 -51.77135668 98.9068175 -57.48828125 97.34765625 C-58.47828125 97.01765625 -59.46828125 96.68765625 -60.48828125 96.34765625 C-60.48828125 95.02765625 -60.48828125 93.70765625 -60.48828125 92.34765625 C-59.82828125 92.34765625 -59.16828125 92.34765625 -58.48828125 92.34765625 C-49.65284583 77.91644507 -48.74386402 59.56325727 -51.79296875 43.1796875 C-53.22903595 37.3305374 -55.32973735 30.89415518 -60.48828125 27.34765625 C-62.65494792 27.18098958 -62.65494792 27.18098958 -64.48828125 28.34765625 C-66.15415787 31.11782716 -66.80134231 33.4782668 -67.12109375 36.67578125 C-67.20488281 37.475 -67.28867187 38.27421875 -67.375 39.09765625 C-67.45363281 39.92265625 -67.53226563 40.74765625 -67.61328125 41.59765625 C-67.74283203 42.85835937 -67.74283203 42.85835937 -67.875 44.14453125 C-68.08639847 46.21153848 -68.28827587 48.27951553 -68.48828125 50.34765625 C-70.96328125 50.84265625 -70.96328125 50.84265625 -73.48828125 51.34765625 C-73.13032834 30.14820386 -73.13032834 30.14820386 -68.48828125 21.34765625 C-68.15828125 20.35765625 -67.82828125 19.36765625 -67.48828125 18.34765625 C-65.48828125 17.22265625 -65.48828125 17.22265625 -63.48828125 16.34765625 C-61.97913573 14.83851073 -62.33930682 13.38865302 -62.23828125 11.28515625 C-61.71574472 5.99236688 -59.59819533 2.56078144 -56.48828125 -1.65234375 C-55.89015625 -2.47734375 -55.29203125 -3.30234375 -54.67578125 -4.15234375 C-54.28390625 -4.64734375 -53.89203125 -5.14234375 -53.48828125 -5.65234375 C-59.12586489 -11.28992739 -81.70115523 -9.54457944 -89.46191406 -9.67675781 C-99.49018599 -9.59585856 -109.51133454 -8.60452836 -119.48828125 -7.65234375 Z M-48.48828125 6.34765625 C-50.93777804 10.24493868 -50.39752987 12.88407211 -49.48828125 17.34765625 C-49.15828125 18.00765625 -48.82828125 18.66765625 -48.48828125 19.34765625 C-47.82828125 19.34765625 -47.16828125 19.34765625 -46.48828125 19.34765625 C-46.15828125 20.99765625 -45.82828125 22.64765625 -45.48828125 24.34765625 C-35.47066379 25.01662516 -35.47066379 25.01662516 -26.48828125 21.34765625 C-24.47112838 18.40404486 -22.73814057 15.40989099 -21.06640625 12.2578125 C-19.70348801 9.7445103 -18.26947026 7.57414251 -16.48828125 5.34765625 C-26.33164325 0.26721134 -39.90081315 -2.42448859 -48.48828125 6.34765625 Z " fill="#EBEBEB" transform="translate(341.48828125,62.65234375)"/>
<path d="M0 0 C3.31238766 11.48548847 2.60006393 29.06399895 -2 40 C-3.75162149 42.92623826 -5.573976 45.74569307 -7.51367188 48.54760742 C-18.21765562 64.29145627 -20.51118133 83.40273626 -20 102 C-19.98324219 102.94359375 -19.96648437 103.8871875 -19.94921875 104.859375 C-19.06899745 123.46976824 -9.65501248 140.35207906 -1.05322266 156.43701172 C7.12395929 171.73437758 14.32877711 186.97335846 9.77734375 204.703125 C6.27149613 215.06211194 0.63285427 222.25788053 -9.1875 227.375 C-12.38219838 228.82189746 -15.63925195 229.99177559 -19 231 C-13.18881687 230.56954199 -8.55635467 229.22500545 -3.19921875 226.9375 C-1 226 -1 226 2 225 C2 224.34 2 223.68 2 223 C2.66 223 3.32 223 4 223 C4.268125 222.360625 4.53625 221.72125 4.8125 221.0625 C6 219 6 219 9 218 C14.14720779 220.7162883 18.48268149 224.75558644 21 230 C21.75289083 233.57085363 21.83396004 236.55489367 19.9765625 239.7734375 C17.9010809 242.35206616 15.75171976 244.16552016 13 246 C13.928125 245.690625 14.85625 245.38125 15.8125 245.0625 C17.875 244.375 19.9375 243.6875 22 243 C24.62881473 238.57252256 24.16067453 233.96465537 24 229 C56.12807865 232.02055208 56.12807865 232.02055208 64 237 C66.1642235 240.24633524 66.37569856 241.24301443 66 245 C65.34 245.99 64.68 246.98 64 248 C63.34 248 62.68 248 62 248 C62 249.98 62 251.96 62 254 C63.2375 254.4125 64.475 254.825 65.75 255.25 C66.56855469 255.52585937 67.38710938 255.80171875 68.23046875 256.0859375 C70.14270026 256.71705481 72.06266374 257.32505008 73.98828125 257.9140625 C81.23461299 260.17911664 88.06077293 262.41781701 93 268.4375 C94.53429171 272.36912252 94.6444015 275.46954644 93 279.375 C92.67 279.91125 92.34 280.4475 92 281 C91.34 281 90.68 281 90 281 C90 281.66 90 282.32 90 283 C75.03938127 292.50886784 57.47373159 294.58220941 40.08007812 295.33544922 C27.45147758 295.88854593 18.57556428 297.59204304 8.0703125 305.06640625 C3.05780488 308.22313815 -2.25864736 309.70418633 -8 311 C-8.76465576 311.17515137 -9.52931152 311.35030273 -10.31713867 311.53076172 C-18.25771818 313.17962522 -26.09919073 313.39808607 -34.1875 313.375 C-35.21256149 313.37468277 -35.21256149 313.37468277 -36.2583313 313.37435913 C-46.65271472 313.34223776 -56.24763856 312.85262779 -66 309 C-66.87527344 308.66097656 -67.75054687 308.32195312 -68.65234375 307.97265625 C-70.94457268 306.84064161 -72.38005197 305.97624159 -74 304 C-74.78488579 301.40863103 -75.18057256 298.9311707 -75.51171875 296.24609375 C-75.81923912 293.71595984 -75.81923912 293.71595984 -78.5 291.9375 C-79.325 291.628125 -80.15 291.31875 -81 291 C-81.66 290.67 -82.32 290.34 -83 290 C-84.47188789 289.85882938 -85.94939501 289.77407462 -87.42700195 289.71875 C-88.34588699 289.68201172 -89.26477203 289.64527344 -90.21150208 289.60742188 C-91.2103392 289.57197266 -92.20917633 289.53652344 -93.23828125 289.5 C-94.27002975 289.45939453 -95.30177826 289.41878906 -96.36479187 289.37695312 C-99.68054407 289.2469806 -102.9964851 289.12307355 -106.3125 289 C-153.89995926 287.20225934 -153.89995926 287.20225934 -164 278 C-165.68620113 275.18966479 -166.05609622 273.74794964 -165.8125 270.5 C-164.11366808 265.27282486 -162.04778412 262.49548416 -157.078125 259.90625 C-151.50706509 257.47676523 -145.70980374 256.09337753 -139.75 255 C-135.76498764 254.25831 -132.53615581 253.0472481 -129 251 C-129.36475203 247.7172317 -129.59401764 246.35821973 -132.125 244.125 C-134 242 -134 242 -134.0625 238.5 C-132.76805411 234.23594296 -131.82470473 233.23107776 -128 231 C-121.14949229 228.06277105 -114.44256413 227.37872473 -107.0625 226.9375 C-94.79456026 227.03601633 -94.79456026 227.03601633 -84 223 C-82.33382885 222.95936168 -80.66611905 222.957279 -79 223 C-79.01160156 223.60328125 -79.02320313 224.2065625 -79.03515625 224.828125 C-79.04417969 225.62734375 -79.05320312 226.4265625 -79.0625 227.25 C-79.07410156 228.03890625 -79.08570313 228.8278125 -79.09765625 229.640625 C-79.00385306 231.90691002 -78.63241063 233.8288895 -78 236 C-77.34 236 -76.68 236 -76 236 C-76 236.66 -76 237.32 -76 238 C-75.01 238.37125 -75.01 238.37125 -74 238.75 C-71 240 -71 240 -69.2734375 240.953125 C-63.70132202 244.0258142 -58.27314174 245.1236052 -52 246 C-53.01320313 245.62488281 -54.02640625 245.24976563 -55.0703125 244.86328125 C-56.42211023 244.34696962 -57.7736597 243.83000766 -59.125 243.3125 C-59.79015625 243.06822266 -60.4553125 242.82394531 -61.140625 242.57226562 C-67.07746841 240.27319391 -71.39704931 237.40442604 -75 232 C-75.72002105 227.13567175 -75.54886298 223.11883608 -73.375 218.6875 C-66.65625739 211.08471231 -60.236104 208.38214254 -50.4375 207 C-42.53361651 205.87609518 -37.37987074 204.27651586 -32 198 C-26.48216762 190.64289016 -26.20106403 180.83886126 -27 172 C-29.1082853 159.35028819 -32.77843486 145.5285564 -39.5234375 134.51171875 C-41.56843813 131.03305366 -42.76809846 127.37287384 -44.0625 123.5625 C-44.31837891 122.82451172 -44.57425781 122.08652344 -44.83789062 121.32617188 C-45.33772626 119.88063179 -45.83360864 118.43371766 -46.32519531 116.98535156 C-46.91032466 115.26383497 -47.51045847 113.5474322 -48.11328125 111.83203125 C-54.66529216 90.90600523 -53.12313722 62.92908887 -43.65234375 43.19140625 C-38.97515028 34.39828253 -33.87734294 25.27033396 -27 18 C-26.34 18 -25.68 18 -25 18 C-25 17.34 -25 16.68 -25 16 C-24.34 16 -23.68 16 -23 16 C-23 15.34 -23 14.68 -23 14 C-22.34 14 -21.68 14 -21 14 C-21 13.34 -21 12.68 -21 12 C-7.13282732 0 -7.13282732 0 0 0 Z M-27 32 C-39.30398266 47.4209916 -42.13674275 64.63633567 -40.1875 84.0625 C-40.10540283 84.88443848 -40.02330566 85.70637695 -39.9387207 86.55322266 C-39.48446521 90.5075802 -38.93784386 93.4723836 -37 97 C-36.99383667 95.49771851 -36.99383667 95.49771851 -36.98754883 93.96508789 C-36.96536712 90.1605651 -36.91069424 86.35702068 -36.84741211 82.55297852 C-36.82456539 80.9231929 -36.80991684 79.29326663 -36.80444336 77.66333008 C-36.74418703 62.65023312 -34.39335963 49.00397803 -26.8203125 35.78515625 C-26.54960937 35.19605469 -26.27890625 34.60695312 -26 34 C-26.33 33.34 -26.66 32.68 -27 32 Z M-37 99 C-36 102 -36 102 -36 102 Z M-8 172 C-7 174 -7 174 -7 174 Z M-7 174 C-6.835 175.155 -6.67 176.31 -6.5 177.5 C-5.31343514 188.52807342 -4.08373254 200.89872478 -10.6875 210.4375 C-11.120625 210.953125 -11.55375 211.46875 -12 212 C-12 212.66 -12 213.32 -12 214 C-12.66 214 -13.32 214 -14 214 C-14 214.66 -14 215.32 -14 216 C-14.66 216 -15.32 216 -16 216 C-16 216.66 -16 217.32 -16 218 C-16.99 218.495 -16.99 218.495 -18 219 C-14.00118212 218.38479725 -11.19641774 216.39731331 -8 214 C-8 213.34 -8 212.68 -8 212 C-7.34 212 -6.68 212 -6 212 C-2.53439615 205.98332665 -1.34317194 201.59703635 -1.5 194.6875 C-1.50773437 193.85951904 -1.51546875 193.03153809 -1.5234375 192.1784668 C-1.70886589 185.58867657 -3.01724153 179.92556928 -6 174 C-6.33 174 -6.66 174 -7 174 Z M-98 240 C-98 240.66 -98 241.32 -98 242 C-98.66 242 -99.32 242 -100 242 C-100.185625 243.258125 -100.37125 244.51625 -100.5625 245.8125 C-100.71912109 246.87404297 -100.71912109 246.87404297 -100.87890625 247.95703125 C-101.13904799 250.2025342 -101.13904799 250.2025342 -100 253 C-99.34 253 -98.68 253 -98 253 C-97.67 253.99 -97.34 254.98 -97 256 C-83.81227656 266.17571253 -68.12338323 268.41818573 -52 268 C-52 267.67 -52 267.34 -52 267 C-53.22074219 266.76925781 -54.44148438 266.53851563 -55.69921875 266.30078125 C-85.48551673 260.48186502 -85.48551673 260.48186502 -94.69921875 250.08203125 C-96.75402254 246.79311106 -96.6808515 243.82978194 -97 240 C-97.33 240 -97.66 240 -98 240 Z M46 256 C45.608125 257.216875 45.21625 258.43375 44.8125 259.6875 C41.92574373 267.24361781 36.06471297 270.72610862 29 274 C21.47115963 277.02024001 13.97134311 279.48819355 6 281 C6 281.33 6 281.66 6 282 C19.38393622 281.74790531 34.35440005 278.72632111 45 270 C45 269.34 45 268.68 45 268 C45.66 268 46.32 268 47 268 C48.17353189 264.47940432 48.20146402 261.693507 48 258 C47.34 257.34 46.68 256.68 46 256 Z M-123 257 C-124.28366624 260.06653601 -125.11183169 262.23581678 -124.625 265.5625 C-121.51575642 270.22636537 -116.87127134 272.56559772 -111.5 273.8125 C-110.675 273.874375 -109.85 273.93625 -109 274 C-109.96199243 271.60544521 -109.96199243 271.60544521 -113.375 270.125 C-116.38795773 268.43947242 -118.37934418 267.1512752 -120 264 C-120.6875 260.25 -120.6875 260.25 -121 257 C-121.66 257 -122.32 257 -123 257 Z M-153 267 C-153.66 268.65 -154.32 270.3 -155 272 C-152.37362001 275.69638666 -150.47259441 277.8818514 -146 279 C-143.75759218 278.71260075 -143.75759218 278.71260075 -142 278 C-143.093125 277.484375 -144.18625 276.96875 -145.3125 276.4375 C-149.55183965 274.0603804 -150.51903023 271.53002518 -152 267 C-152.33 267 -152.66 267 -153 267 Z M-51 268 C-51 268.33 -51 268.66 -51 269 C-48.03 269 -45.06 269 -42 269 C-42 268.67 -42 268.34 -42 268 C-44.97 268 -47.94 268 -51 268 Z M77 269 C76.67 269.886875 76.34 270.77375 76 271.6875 C73.70533515 275.48803866 71.63017937 276.80436907 67.83984375 278.921875 C65.84459393 279.98701935 65.84459393 279.98701935 64 282 C70.43999908 281.48480007 74.43669191 279.56330809 79 275 C78.67801034 271.90073181 78.67801034 271.90073181 78 269 C77.67 269 77.34 269 77 269 Z M-67 287 C-67.08628405 293.92897522 -67.08628405 293.92897522 -63.5 299.5 C-52.93418064 304.0282083 -41.22675193 304.13842894 -30 302 C-30 301.67 -30 301.34 -30 301 C-30.61407715 300.93006836 -31.2281543 300.86013672 -31.86083984 300.78808594 C-34.70076953 300.45636082 -37.53767668 300.10329957 -40.375 299.75 C-41.82326172 299.58564453 -41.82326172 299.58564453 -43.30078125 299.41796875 C-49.81553851 298.58722789 -56.28071964 297.39670141 -62 294 C-63.6809827 291.63587822 -64.2330011 289.84885305 -65 287 C-65.66 287 -66.32 287 -67 287 Z " fill="#F0F0EF" transform="translate(287,107)"/>
<path d="M0 0 C3 1 3 1 4.5703125 3.984375 C5.09978295 5.23488309 5.61758304 6.49038202 6.125 7.75 C6.38925781 8.37132812 6.65351563 8.99265625 6.92578125 9.6328125 C9.95332337 16.91735547 11.87101563 25.37169819 8.8125 32.9375 C6.66277473 35.3837391 5.01582139 36.73756314 2 38 C-1.50820355 37.92840401 -3.40696882 37.40069674 -6.3125 35.4375 C-8.60731754 32.12276355 -9.19381195 28.95376381 -9 25 C-7.76292886 19.01661509 -5.76631806 13.60890455 -3.375 8 C-3.05015625 7.22527344 -2.7253125 6.45054687 -2.390625 5.65234375 C-1.59885858 3.76607668 -0.80015727 1.88272299 0 0 Z M-5 24 C-4.65555119 26.47266765 -4.65555119 26.47266765 -4 29 C-3.34 29.33 -2.68 29.66 -2 30 C-2.66 28.02 -3.32 26.04 -4 24 C-4.33 24 -4.66 24 -5 24 Z " fill="#E0DFDF" transform="translate(233,240)"/>
<path d="M0 0 C1.96829902 1.52202597 2.69428584 2.98847745 3.63671875 5.265625 C2.97027344 5.36359375 2.30382812 5.4615625 1.6171875 5.5625 C-3.52047004 6.39602206 -8.20193964 7.4755363 -13.05078125 9.390625 C-17.84294712 11.21588646 -21.25506417 11.88213396 -26.36328125 11.265625 C-29.36328125 9.765625 -29.36328125 9.765625 -31.36328125 8.265625 C-31.36328125 5.015625 -31.36328125 5.015625 -30.36328125 1.265625 C-21.95151201 -5.29555501 -9.30132767 -4.46463728 0 0 Z " fill="#E0E0E0" transform="translate(198.36328125,401.734375)"/>
<path d="M0 0 C0.66 0 1.32 0 2 0 C2.23074219 0.60585937 2.46148437 1.21171875 2.69921875 1.8359375 C4.49976867 6.46185627 6.41913874 10.83532631 8.8125 15.1875 C10.52169385 18.54785952 10.99979291 19.98716015 11.0625 23.875 C9.65580142 28.01234877 7.95605907 29.9567685 4.125 32 C0.58349448 32 -1.3424164 30.1851243 -4 28 C-6.93443988 19.71758685 -4.76645872 10.02019225 -2 2 C-1.34 1.34 -0.68 0.68 0 0 Z " fill="#DCDBDB" transform="translate(282,204)"/>
<path d="M0 0 C3.89797431 4.27519763 3.89797431 4.27519763 4.0625 7.8125 C4.02125 8.575625 3.98 9.33875 3.9375 10.125 C3.256875 9.96 2.57625 9.795 1.875 9.625 C-3.00474173 8.79440566 -7.31130309 8.82738947 -12.0625 10.1875 C-15.97758925 11.26148363 -19.07767489 11.08135803 -23.0625 10.125 C-25.0625 8.125 -25.0625 8.125 -25.1875 5.5 C-25.14625 4.71625 -25.105 3.9325 -25.0625 3.125 C-24.4025 3.125 -23.7425 3.125 -23.0625 3.125 C-23.0625 2.465 -23.0625 1.805 -23.0625 1.125 C-16.12642462 -3.69171901 -7.36574978 -4.50964273 0 0 Z " fill="#DCDBDA" transform="translate(144.0625,346.875)"/>
<path d="M0 0 C2.5625 1.625 2.5625 1.625 4.5625 3.625 C4.875 6.125 4.875 6.125 4.5625 8.625 C-2.86547062 13.57698041 -15.91566679 9.72080404 -24.4375 8.625 C-18.66954705 -0.42493043 -10.32265413 -4.12906165 0 0 Z " fill="#DADADA" transform="translate(382.4375,351.375)"/>
<path d="M0 0 C0.66 0 1.32 0 2 0 C2.350625 0.86625 2.70125 1.7325 3.0625 2.625 C5.15808687 6.27537713 7.28964156 8.17338853 10.57421875 10.703125 C11.27998047 11.34507812 11.27998047 11.34507812 12 12 C12 12.66 12 13.32 12 14 C6.58823529 18 6.58823529 18 4 18 C4 18.66 4 19.32 4 20 C-1.35978411 19.57962478 -4.00158692 18.55414496 -8 15 C-8.99 14.67 -9.98 14.34 -11 14 C-9.48951049 10.22377622 -9.48951049 10.22377622 -7.0859375 9.125 C-4.52362635 7.74307938 -3.7759857 6.39677425 -2.375 3.875 C-1.1484375 1.6796875 -1.1484375 1.6796875 0 0 Z " fill="#797778" transform="translate(472,460)"/>
<path d="M0 0 C1.9375 1.8125 1.9375 1.8125 2.9375 4.3125 C2.9375 6.8125 2.9375 6.8125 1.70703125 8.4453125 C-1.73129946 11.1018594 -5.92849649 10.22537103 -10.0625 9.8125 C-14.76806227 8.96403592 -19.41580285 7.93734888 -24.0625 6.8125 C-22.36094492 3.02693021 -20.81364747 1.68807373 -17.0625 -0.1875 C-11.50060882 -1.88534047 -5.43211629 -2.1063308 0 0 Z " fill="#D5D4D5" transform="translate(331.0625,408.1875)"/>
<path d="M0 0 C3.05076781 2.78548365 3.90529828 4.80924229 4.23828125 8.99609375 C4.26277344 10.13175781 4.28726563 11.26742188 4.3125 12.4375 C4.34988281 13.57058594 4.38726562 14.70367187 4.42578125 15.87109375 C4 19 4 19 2.17578125 21.4140625 C0 23 0 23 -3.125 22.9375 C-6 22 -6 22 -8 19 C-8.1563325 11.65237227 -3.79296 6.0311035 0 0 Z " fill="#C9C9C9" transform="translate(246,279)"/>
<path d="M0 0 C2.58340384 -0.02703562 5.16652308 -0.04685611 7.75 -0.0625 C8.47960937 -0.07087891 9.20921875 -0.07925781 9.9609375 -0.08789062 C15.56644331 -0.1133702 15.56644331 -0.1133702 18.04003906 0.53344727 C20.84348988 1.2007859 23.21071952 0.57053464 26 0 C25.67 0.66 25.34 1.32 25 2 C22.66666667 2.33333333 20.33333333 2.66666667 18 3 C17.67 3.66 17.34 4.32 17 5 C11.72 4.34 6.44 3.68 1 3 C0.67 2.01 0.34 1.02 0 0 Z " fill="#878584" transform="translate(252,337)"/>
<path d="M0 0 C1.17219543 0.78345715 2.33763668 1.57702836 3.5 2.375 C4.47453125 3.03628906 4.47453125 3.03628906 5.46875 3.7109375 C5.9740625 4.13632812 6.479375 4.56171875 7 5 C7 5.66 7 6.32 7 7 C4.69 8.32 2.38 9.64 0 11 C0 10.01 0 9.02 0 8 C-0.2784375 7.0409375 -0.2784375 7.0409375 -0.5625 6.0625 C-1.06596807 3.68900769 -0.64962544 2.30496729 0 0 Z " fill="#666666" transform="translate(477,467)"/>
<path d="M0 0 C0.33 0.99 0.66 1.98 1 3 C-0.40445835 5.2636564 -2.1967913 7.0208685 -4 9 C-1.525 9.99 -1.525 9.99 1 11 C0.34 11.66 -0.32 12.32 -1 13 C-4.465 11.02 -4.465 11.02 -8 9 C-6.59645587 5.49113968 -5.35634177 4.5732852 -2 3 C-1.34 2.01 -0.68 1.02 0 0 Z " fill="#676666" transform="translate(469,465)"/>
<path d="M0 0 C0.556875 0.226875 1.11375 0.45375 1.6875 0.6875 C0.6975 1.1825 0.6975 1.1825 -0.3125 1.6875 C1.9975 1.6875 4.3075 1.6875 6.6875 1.6875 C6.6875 2.3475 6.6875 3.0075 6.6875 3.6875 C5.40004964 4.07672918 4.10730403 4.44848036 2.8125 4.8125 C2.09320313 5.02132813 1.37390625 5.23015625 0.6328125 5.4453125 C-0.00914062 5.52523438 -0.65109375 5.60515625 -1.3125 5.6875 C-1.9725 5.0275 -2.6325 4.3675 -3.3125 3.6875 C-5.42070797 4.0060177 -5.42070797 4.0060177 -7.3125 4.6875 C-7.3125 4.0275 -7.3125 3.3675 -7.3125 2.6875 C-3.15982824 -0.42700382 -3.15982824 -0.42700382 0 0 Z " fill="#B6AEAD" transform="translate(128.3125,345.3125)"/>
<path d="M0 0 C0.33 0 0.66 0 1 0 C1.185625 1.11375 1.185625 1.11375 1.375 2.25 C1.96561763 4.84871755 2.56286448 6.76445586 4 9 C4.99 9.33 5.98 9.66 7 10 C7.33 10.99 7.66 11.98 8 13 C5.03824877 12.38722388 3.61941217 11.74627478 1 10 C0.67 11.32 0.34 12.64 0 14 C-0.77916092 8.97874074 -1.13016601 5.02296004 0 0 Z " fill="#A4A3A2" transform="translate(225,259)"/>
<path d="M0 0 C5.28 0 10.56 0 16 0 C16 0.33 16 0.66 16 1 C13.36 1.33 10.72 1.66 8 2 C8 2.33 8 2.66 8 3 C5.69 3 3.38 3 1 3 C0.67 2.01 0.34 1.02 0 0 Z " fill="#B2AEAE" transform="translate(252,337)"/>
<path d="M0 0 C0.66 1.32 1.32 2.64 2 4 C1.0409375 4.7425 1.0409375 4.7425 0.0625 5.5 C-2.81515269 8.98806387 -2.70230736 11.53461041 -3 16 C-3.33 16 -3.66 16 -4 16 C-4.47617251 9.30713088 -4.39973696 5.22468764 0 0 Z " fill="#989898" transform="translate(216,323)"/>
<path d="M0 0 C0.66 0 1.32 0 2 0 C2.33 1.98 2.66 3.96 3 6 C2.67 5.34 2.34 4.68 2 4 C-1.0109362 6.0072908 -1.63016497 6.83884224 -3 10 C-3.33 9.34 -3.66 8.68 -4 8 C-1.48571429 1.48571429 -1.48571429 1.48571429 0 0 Z " fill="#979695" transform="translate(282,204)"/>
<path d="M0 0 C0 0.66 0 1.32 0 2 C-1.47695491 3.28430862 -2.95806138 4.56580708 -4.4921875 5.78125 C-6.13813095 7.06784671 -6.13813095 7.06784671 -8 9 C-8.99 8.34 -9.98 7.68 -11 7 C-7.25 4 -7.25 4 -5 4 C-5 3.34 -5 2.68 -5 2 C-2 0 -2 0 0 0 Z " fill="#A3A1A2" transform="translate(136,76)"/>
<path d="M0 0 C0.66 0 1.32 0 2 0 C1.62403791 2.78211944 1.32681541 4.5879284 -0.4375 6.8125 C-2 8 -2 8 -4 8 C-3.67 8.99 -3.34 9.98 -3 11 C-3.99 11 -4.98 11 -6 11 C-4.62696409 6.99531193 -2.69944127 4.23932953 0 1 C0 0.67 0 0.34 0 0 Z " fill="#979494" transform="translate(287,56)"/>
<path d="M0 0 C0.33 0.99 0.66 1.98 1 3 C-3.625 7.875 -3.625 7.875 -7 9 C-6.1875 7.0625 -6.1875 7.0625 -5 5 C-4.01 4.67 -3.02 4.34 -2 4 C-0.79117904 1.99983534 -0.79117904 1.99983534 0 0 Z " fill="#A6A6A3" transform="translate(393,384)"/>
<path d="M0 0 C0.66 0.33 1.32 0.66 2 1 C-2.4095064 6.75685558 -2.4095064 6.75685558 -5.125 7.875 C-6.7469338 7.98312892 -8.3744659 8 -10 8 C-6.7 5.36 -3.4 2.72 0 0 Z " fill="#979696" transform="translate(278,110)"/>
<path d="M0 0 C0.66 0 1.32 0 2 0 C1.125 3.875 1.125 3.875 0 5 C-0.23075082 6.34747084 -0.41153063 7.70377565 -0.5625 9.0625 C-0.7790625 11.0115625 -0.7790625 11.0115625 -1 13 C-1.33 13 -1.66 13 -2 13 C-2.33 10.03 -2.66 7.06 -3 4 C-2.34 4 -1.68 4 -1 4 C-0.67 2.68 -0.34 1.36 0 0 Z " fill="#B0ADAB" transform="translate(168,358)"/>
<path d="M0 0 C0.99 0.33 1.98 0.66 3 1 C1.35 2.98 -0.3 4.96 -2 7 C-2.99 6.67 -3.98 6.34 -5 6 C-3.35 4.02 -1.7 2.04 0 0 Z " fill="#B2B2B2" transform="translate(399,377)"/>
<path d="M0 0 C1.32 0.66 2.64 1.32 4 2 C3.21625 2.45375 2.4325 2.9075 1.625 3.375 C-1.03698031 4.88428742 -1.03698031 4.88428742 -3 7 C-3.66 7 -4.32 7 -5 7 C-5 6.34 -5 5.68 -5 5 C-4.34 5 -3.68 5 -3 5 C-2.5359375 4.0409375 -2.5359375 4.0409375 -2.0625 3.0625 C-1 1 -1 1 0 0 Z " fill="#A1A1A1" transform="translate(294,325)"/>
<path d="M0 0 C2.73704754 2.73704754 3.16182449 5.26044774 4 9 C3.625 11.4375 3.625 11.4375 3 13 C0.33409063 8.44573816 -0.31563182 5.26053037 0 0 Z " fill="#979797" transform="translate(60,302)"/>
<path d="M0 0 C1 2 1 2 1 6 C0.34 6 -0.32 6 -1 6 C-1.33 6.99 -1.66 7.98 -2 9 C-3.32 8.67 -4.64 8.34 -6 8 C-5.38125 7.4225 -4.7625 6.845 -4.125 6.25 C-2.18652947 4.19750179 -1.09985751 2.56633418 0 0 Z " fill="#ACACAC" transform="translate(318,77)"/>
<path d="M0 0 C1.485 0.99 1.485 0.99 3 2 C2.67 5.3 2.34 8.6 2 12 C-0.35333796 7.29332409 -0.17102038 5.1306114 0 0 Z " fill="#828180" transform="translate(330,358)"/>
<path d="M0 0 C0.99 0.66 1.98 1.32 3 2 C2.34 4.31 1.68 6.62 1 9 C-0.32 9.33 -1.64 9.66 -3 10 C-2.505 9.46375 -2.01 8.9275 -1.5 8.375 C0.37489544 5.40641555 0.23501425 3.44687573 0 0 Z " fill="#858484" transform="translate(365,376)"/>
<path d="M0 0 C0.66 0.33 1.32 0.66 2 1 C0.68 3.31 -0.64 5.62 -2 8 C-2.99 7.67 -3.98 7.34 -5 7 C-4.67 6.01 -4.34 5.02 -4 4 C-3.34 4 -2.68 4 -2 4 C-1.34 2.68 -0.68 1.36 0 0 Z " fill="#A5A1A3" transform="translate(267,130)"/>
<path d="M0 0 C0.556875 0.226875 1.11375 0.45375 1.6875 0.6875 C-2.0625 3.6875 -2.0625 3.6875 -4.3125 3.6875 C-5.3025 4.0175 -6.2925 4.3475 -7.3125 4.6875 C-7.3125 4.0275 -7.3125 3.3675 -7.3125 2.6875 C-3.15982824 -0.42700382 -3.15982824 -0.42700382 0 0 Z " fill="#C5C3C2" transform="translate(128.3125,345.3125)"/>
<path d="M0 0 C0.66 0.99 1.32 1.98 2 3 C0.68 4.32 -0.64 5.64 -2 7 C-2.99 6.67 -3.98 6.34 -5 6 C-3.35 4.02 -1.7 2.04 0 0 Z " fill="#B0B0B0" transform="translate(258,128)"/>
</svg>
