<svg width="24" height="24" viewBox="0 0 24 24" fill="none" xmlns="http://www.w3.org/2000/svg">
<g clip-path="url(#clip0_63_1141)">
<path d="M12 24C9.62661 24 7.30653 23.2962 5.33314 21.9777C3.35975 20.6591 1.82168 18.7849 0.913429 16.5922C0.00517655 14.3995 -0.232464 11.9867 0.230559 9.65893C0.693582 7.33115 1.83647 5.19296 3.5147 3.51473C5.19293 1.83649 7.33113 0.693605 9.65891 0.230582C11.9867 -0.232441 14.3995 0.00519944 16.5922 0.913452C18.7849 1.8217 20.6591 3.35977 21.9776 5.33317C23.2962 7.30656 24 9.62664 24 12C23.9963 15.1815 22.7308 18.2316 20.4812 20.4812C18.2316 22.7308 15.1815 23.9963 12 24ZM12 1.00001C9.82439 1.00001 7.69766 1.64515 5.88871 2.85384C4.07977 4.06254 2.66987 5.7805 1.83731 7.79049C1.00474 9.80048 0.786907 12.0122 1.21135 14.146C1.63578 16.2798 2.68343 18.2398 4.22181 19.7782C5.76019 21.3166 7.7202 22.3642 9.854 22.7887C11.9878 23.2131 14.1995 22.9953 16.2095 22.1627C18.2195 21.3301 19.9375 19.9202 21.1462 18.1113C22.3549 16.3023 23 14.1756 23 12C22.9967 9.08364 21.8367 6.28767 19.7745 4.22549C17.7123 2.1633 14.9164 1.00331 12 1.00001Z" fill="url(#paint0_linear_63_1141)"/>
<path d="M12 19.5C8.41596 19.5 5.49996 17.0325 5.49996 14H6.49996C6.49996 16.481 8.96746 18.5 12 18.5C15.0325 18.5 17.5 16.481 17.5 14H18.5C18.5 17.0325 15.584 19.5 12 19.5ZM9.99996 10.5H8.99996C8.99996 9.397 8.32696 8.5 7.49996 8.5C6.67296 8.5 5.99996 9.397 5.99996 10.5H4.99996C4.99996 8.8455 6.12146 7.5 7.49996 7.5C8.87846 7.5 9.99996 8.8455 9.99996 10.5ZM19 10.5H18C18 9.397 17.327 8.5 16.5 8.5C15.673 8.5 15 9.397 15 10.5H14C14 8.8455 15.1215 7.5 16.5 7.5C17.8785 7.5 19 8.8455 19 10.5Z" fill="url(#paint1_linear_63_1141)"/>
</g>
<defs>
<linearGradient id="paint0_linear_63_1141" x1="-2.28882e-05" y1="12" x2="24" y2="12" gradientUnits="userSpaceOnUse">
<stop stop-color="#B38934"/>
<stop offset="1" stop-color="#E8CC7B"/>
</linearGradient>
<linearGradient id="paint1_linear_63_1141" x1="4.99996" y1="13.5" x2="19" y2="13.5" gradientUnits="userSpaceOnUse">
<stop stop-color="#B38934"/>
<stop offset="1" stop-color="#E8CC7B"/>
</linearGradient>
<clipPath id="clip0_63_1141">
<rect width="24" height="24" fill="white"/>
</clipPath>
</defs>
</svg>
