<svg width="16" height="16" viewBox="0 0 16 16" fill="none" xmlns="http://www.w3.org/2000/svg">
<g clip-path="url(#clip0_96_40)">
<path d="M14.067 4.362V6.749C14.067 6.749 13.223 6.714 12.5965 6.548C11.7235 6.3145 11.1635 5.9555 11.1635 5.9555C11.1635 5.9555 10.775 5.6985 10.746 5.681V10.6135C10.746 10.8875 10.6735 11.5735 10.456 12.1455C10.2655 12.6345 9.99251 13.0875 9.65001 13.485C9.65001 13.485 9.11351 14.1505 8.17051 14.597C7.32051 15 6.57201 14.9905 6.34901 15C6.34901 15 5.05851 15.052 3.89451 14.261L3.88851 14.255V14.261C3.49501 13.9865 3.14401 13.6555 2.84701 13.2785C2.47851 12.8085 2.25251 12.2515 2.19451 12.088V12.082C2.10201 11.8045 1.90701 11.1335 1.93651 10.486C1.98301 9.345 2.36601 8.6415 2.46751 8.4665C2.73401 7.9865 3.08251 7.557 3.49701 7.197C4.45301 6.3955 5.70101 6.0305 6.93851 6.19L6.93551 8.638C6.73401 8.5725 6.52301 8.539 6.31101 8.539C5.19101 8.539 4.28301 9.4525 4.28301 10.5805C4.28301 11.7085 5.19101 12.622 6.31101 12.622C6.66001 12.622 7.00251 12.532 7.30601 12.3595C7.89651 12.024 8.28151 11.4165 8.33301 10.739V10.734C8.33451 10.727 8.33451 10.72 8.33451 10.7135C8.33551 10.697 8.33701 10.683 8.33701 10.668C8.34201 10.546 8.34201 10.4225 8.34201 10.298V1H10.7465C10.7425 1 10.7175 1.2305 10.7785 1.5865H10.7755C10.848 2.0155 11.0455 2.6285 11.573 3.2325C11.784 3.4605 12.0215 3.6625 12.281 3.834C12.37 3.892 12.462 3.9455 12.5565 3.9945C13.1715 4.301 13.772 4.3945 14.0675 4.3625L14.067 4.362Z" fill="black"/>
</g>
<defs>
<clipPath id="clip0_96_40">
<rect width="16" height="16" fill="white"/>
</clipPath>
</defs>
</svg>
