<svg xmlns="http://www.w3.org/2000/svg" version="1.0" width="248.000000pt" height="231.000000pt" viewBox="0 0 248.000000 231.000000" preserveAspectRatio="xMidYMid meet">

<g transform="translate(0.000000,231.000000) scale(0.100000,-0.100000)" fill="#ffffff" stroke="none">
<path d="M982 1797 c-20 -24 -35 -109 -30 -177 7 -87 42 -162 108 -230 87 -89 124 -58 124 105 0 69 -5 90 -31 148 -34 72 -115 167 -143 167 -10 0 -22 -6 -28 -13z m93 -151 c28 -49 49 -147 40 -184 l-7 -27 -19 25 c-44 54 -69 123 -69 189 0 56 2 62 16 51 8 -8 26 -32 39 -54z" fill="#ffffff"/>
<path d="M1890 1735 c-8 -2 -49 -9 -90 -15 -94 -16 -225 -61 -310 -107 -85 -47 -196 -160 -234 -238 -43 -90 -56 -149 -57 -263 0 -102 8 -132 36 -132 27 0 194 74 261 115 88 55 177 146 172 178 -6 41 -37 32 -102 -30 -33 -33 -84 -74 -111 -91 -52 -32 -158 -82 -175 -82 -17 0 -11 135 9 199 51 165 192 288 406 354 79 24 242 54 250 45 12 -12 26 -214 21 -293 -26 -360 -217 -554 -521 -531 -44 3 -114 15 -155 25 l-75 20 -56 -57 c-111 -115 -155 -252 -147 -461 6 -134 10 -156 35 -165 36 -14 42 10 36 152 -4 107 -2 152 11 206 20 82 65 172 109 214 l32 30 90 -20 c109 -23 248 -19 342 10 224 70 356 284 370 597 5 128 -14 303 -37 330 -11 14 -66 18 -110 10z" fill="#ffffff"/>
<path d="M470 1577 c-77 -169 -108 -372 -77 -494 25 -96 63 -162 137 -235 75 -74 168 -124 281 -152 117 -29 178 -24 179 16 0 18 -35 38 -67 38 -19 0 -63 7 -97 16 -268 69 -411 274 -367 530 23 133 71 264 96 264 33 0 212 -101 291 -164 146 -115 191 -198 181 -335 -5 -75 -18 -132 -37 -161 -20 -32 -214 188 -269 305 -27 56 -35 66 -54 63 -51 -7 -18 -108 77 -234 54 -72 231 -244 251 -244 20 0 49 46 76 120 20 53 24 84 24 170 0 98 -2 110 -33 174 -38 81 -118 164 -235 244 -92 63 -234 132 -288 139 l-39 6 -30 -66z" fill="#ffffff"/>
<path d="M1320 709 c-76 -15 -129 -39 -136 -62 -13 -43 121 -129 227 -146 99 -16 250 20 257 60 5 25 -65 87 -133 119 -67 32 -148 43 -215 29z m189 -94 c37 -18 51 -29 44 -36 -15 -15 -132 -12 -180 5 -107 38 -105 56 5 56 61 0 88 -5 131 -25z" fill="#ffffff"/>
</g>
</svg>