<?xml version="1.0" standalone="no"?>
<!DOCTYPE svg PUBLIC "-//W3C//DTD SVG 20010904//EN"
 "http://www.w3.org/TR/2001/REC-SVG-20010904/DTD/svg10.dtd">
<svg version="1.0" xmlns="http://www.w3.org/2000/svg"
 width="205.000000pt" height="190.000000pt" viewBox="0 0 205.000000 190.000000"
 preserveAspectRatio="xMidYMid meet">

<g transform="translate(0.000000,190.000000) scale(0.100000,-0.100000)"
fill="#000000" stroke="none">
<path d="M0 950 l0 -950 1025 0 1025 0 0 950 0 950 -1025 0 -1025 0 0 -950z
m959 745 c64 -69 94 -143 99 -240 4 -102 -14 -169 -47 -173 -30 -5 -117 84
-150 151 -49 102 -49 259 0 308 24 24 40 17 98 -46z m914 -20 c45 -44 56 -386
18 -530 -56 -211 -166 -344 -337 -407 -78 -29 -296 -32 -389 -5 l-60 17 -33
-37 c-96 -111 -141 -302 -112 -482 12 -70 3 -94 -33 -89 -31 4 -39 47 -41 198
-1 124 1 142 28 224 32 96 110 219 158 245 24 14 34 14 95 -3 90 -24 233 -32
305 -17 176 37 296 164 349 370 22 84 29 265 15 385 l-8 69 -63 -6 c-241 -23
-467 -144 -559 -300 -55 -92 -90 -297 -52 -297 8 0 60 23 116 51 78 39 118 67
167 115 64 64 95 78 107 47 10 -24 -36 -86 -102 -138 -65 -52 -205 -125 -287
-151 -73 -23 -79 -16 -83 94 -6 149 41 294 129 395 111 128 324 227 554 256
101 12 102 12 118 -4z m-1415 -105 c145 -55 281 -143 384 -247 138 -140 168
-279 101 -474 -32 -95 -52 -124 -81 -115 -29 9 -198 176 -250 246 -53 71 -104
175 -100 203 2 15 11 23 29 25 23 3 29 -3 47 -47 11 -27 39 -77 62 -111 46
-68 189 -220 206 -220 20 0 48 120 48 200 0 98 -24 151 -106 237 -81 84 -161
141 -282 199 -79 39 -99 45 -106 33 -23 -36 -70 -204 -80 -284 -37 -287 133
-476 475 -532 53 -8 69 -29 44 -59 -20 -24 -143 -4 -259 43 -243 98 -364 304
-331 559 13 94 69 279 102 333 22 37 28 37 97 11z m970 -960 c64 -34 126 -93
120 -113 -2 -7 -26 -23 -53 -37 -69 -34 -215 -35 -289 -2 -74 34 -146 92 -146
119 0 44 92 74 215 70 80 -3 97 -7 153 -37z"/>
<path d="M894 1625 c-14 -58 29 -188 77 -231 l22 -19 -5 76 c-4 58 -11 87 -33
127 -38 70 -52 81 -61 47z"/>
<path d="M1175 570 c-17 -7 -12 -11 35 -34 66 -31 124 -41 187 -31 l48 7 -29
23 c-15 12 -45 28 -66 34 -43 13 -145 14 -175 1z"/>
</g>
</svg>
