<svg width="32" height="32" viewBox="0 0 32 32" fill="none" xmlns="http://www.w3.org/2000/svg">
<g clip-path="url(#clip0_174_1034)">
<path d="M9.04688 3.79594C9.08662 3.73019 9.12338 3.66206 9.15688 3.59181L9.157 3.5915C9.6755 2.50463 10.9308 1.98438 12.0661 2.38581L12.0673 2.38619C12.8793 2.67331 13.7832 2.494 14.4241 1.91875L14.4289 1.9145C15.3233 1.11175 16.6788 1.11175 17.5733 1.9145L17.578 1.91875C18.2189 2.494 19.1229 2.67325 19.9349 2.38619L19.936 2.38581C21.0713 1.98438 22.3266 2.50463 22.8451 3.5915L22.8453 3.59181C23.2164 4.36969 23.9829 4.8825 24.8435 4.92875L24.8479 4.929C26.0486 4.9935 27.0077 5.95256 27.0721 7.15325L27.0724 7.15769C27.1186 8.01831 27.6314 8.78481 28.4093 9.15594L28.4096 9.15606C29.3429 9.60131 29.8584 10.5898 29.7313 11.5791" stroke="url(#paint0_linear_174_1034)" stroke-miterlimit="10" stroke-linecap="round" stroke-linejoin="round"/>
<path d="M2.26016 11.4994C2.17022 10.5373 2.68272 9.59 3.59072 9.15681L3.59103 9.15663C4.36891 8.7855 4.88172 8.019 4.92797 7.15844C4.9811 5.9825 5.95903 4.993 7.1556 4.92963" stroke="url(#paint1_linear_174_1034)" stroke-miterlimit="10" stroke-linecap="round" stroke-linejoin="round"/>
<path d="M29.7294 20.4199C29.8567 21.4093 29.3412 22.398 28.4079 22.8433L28.4076 22.8435C27.6297 23.2146 27.1169 23.9811 27.0706 24.8417L27.0704 24.8461C27.0059 26.0468 26.0468 27.0059 24.8461 27.0703L24.8417 27.0705C23.9811 27.1167 23.2146 27.6296 22.8435 28.4075L22.8434 28.4078C22.3249 29.4947 21.0696 30.0149 19.9342 29.6135L19.9331 29.6131C19.1211 29.326 18.2172 29.5053 17.5762 30.0805L17.5715 30.0848C16.677 30.8875 15.3216 30.8875 14.4271 30.0848L14.4224 30.0805C13.7814 29.5053 12.8775 29.326 12.0655 29.6131L12.0644 29.6135C10.929 30.015 9.6738 29.4947 9.15524 28.4079L9.15505 28.4075C8.78392 27.6297 8.01742 27.1169 7.15686 27.0706L7.15242 27.0704C5.95174 27.0059 4.99268 26.0468 4.92824 24.8461L4.92799 24.8417C4.8818 23.9811 4.36893 23.2146 3.59105 22.8435L3.59074 22.8434C2.66536 22.4019 2.15074 21.4264 2.26599 20.4454" stroke="url(#paint2_linear_174_1034)" stroke-miterlimit="10" stroke-linecap="round" stroke-linejoin="round"/>
<path d="M8.02956 24.1048C6.98331 23.0754 6.13481 21.8457 5.54688 20.4785" stroke="url(#paint3_linear_174_1034)" stroke-miterlimit="10" stroke-linecap="round" stroke-linejoin="round"/>
<path d="M26.4626 20.4667C24.7231 24.5245 20.6889 27.3742 16.0017 27.3742C13.6909 27.3742 11.5388 26.6816 9.74219 25.4931" stroke="url(#paint4_linear_174_1034)" stroke-miterlimit="10" stroke-linecap="round" stroke-linejoin="round"/>
<path d="M5.54688 11.5189C7.28956 7.46825 11.3199 4.62494 16.0019 4.62494C20.687 4.62494 24.7196 7.472 26.4604 11.5269" stroke="url(#paint5_linear_174_1034)" stroke-miterlimit="10" stroke-linecap="round" stroke-linejoin="round"/>
<path d="M31.2099 19.27L31.5312 20.4012H0.46875L1.71875 16.0004L0.46875 11.5995H20.3267" stroke="url(#paint6_linear_174_1034)" stroke-miterlimit="10" stroke-linecap="round" stroke-linejoin="round"/>
<path d="M22.5156 11.5995H31.528L30.278 16.0004L30.5929 17.1089" stroke="url(#paint7_linear_174_1034)" stroke-miterlimit="10" stroke-linecap="round" stroke-linejoin="round"/>
<path d="M22.0703 14.0995V17.9012" stroke="url(#paint8_linear_174_1034)" stroke-miterlimit="10" stroke-linecap="round" stroke-linejoin="round"/>
<path d="M24.7031 14.0995V17.9012" stroke="url(#paint9_linear_174_1034)" stroke-miterlimit="10" stroke-linecap="round" stroke-linejoin="round"/>
<path d="M22.0703 15.9355H24.7011" stroke="url(#paint10_linear_174_1034)" stroke-miterlimit="10" stroke-linecap="round" stroke-linejoin="round"/>
<path d="M8.8455 14.0995H7.30469V17.9012" stroke="url(#paint11_linear_174_1034)" stroke-miterlimit="10" stroke-linecap="round" stroke-linejoin="round"/>
<path d="M7.33594 15.9648H8.72606" stroke="url(#paint12_linear_174_1034)" stroke-miterlimit="10" stroke-linecap="round" stroke-linejoin="round"/>
<path d="M16.0628 14.0995H14.4609V17.9012H16.0628" stroke="url(#paint13_linear_174_1034)" stroke-miterlimit="10" stroke-linecap="round" stroke-linejoin="round"/>
<path d="M15.8823 15.9999H14.4688" stroke="url(#paint14_linear_174_1034)" stroke-miterlimit="10" stroke-linecap="round" stroke-linejoin="round"/>
<path d="M20.1868 14.4904C20.1868 14.4904 19.5046 13.9169 18.7003 14.1593C17.9616 14.3818 17.8625 15.245 18.3927 15.5819C18.6445 15.7419 18.9079 15.829 19.4986 16.0303C20.8299 16.4838 20.2956 17.9011 19.1685 17.9011C18.6041 17.9011 18.1304 17.6539 17.8438 17.3376" stroke="url(#paint15_linear_174_1034)" stroke-miterlimit="10" stroke-linecap="round" stroke-linejoin="round"/>
<path d="M11.0781 16.08L12.6751 17.9006" stroke="url(#paint16_linear_174_1034)" stroke-miterlimit="10" stroke-linecap="round" stroke-linejoin="round"/>
<path d="M10.625 16.08V17.9006" stroke="url(#paint17_linear_174_1034)" stroke-miterlimit="10" stroke-linecap="round" stroke-linejoin="round"/>
<path d="M12.678 15.0875C12.678 15.6331 12.1996 16.0805 11.6341 16.0805H10.6251V14.0995H11.6341C12.1996 14.0995 12.678 14.5419 12.678 15.0875Z" stroke="url(#paint18_linear_174_1034)" stroke-miterlimit="10" stroke-linecap="round" stroke-linejoin="round"/>
<path d="M15.9689 6.24994L16.6384 7.40613L17.9533 7.6425L17.0606 8.6365L17.2421 9.96013L16.0209 9.41825L14.8181 9.99994L14.9561 8.67106L14.0312 7.70694L15.3377 7.4275L15.9689 6.24994Z" stroke="url(#paint19_linear_174_1034)" stroke-miterlimit="10" stroke-linecap="round" stroke-linejoin="round"/>
<path d="M15.9766 22L16.6461 23.1562L17.961 23.3926L17.0683 24.3866L17.2498 25.7102L16.0286 25.1683L14.8259 25.75L14.9638 24.4211L14.039 23.4569L15.3454 23.1776L15.9766 22Z" stroke="url(#paint20_linear_174_1034)" stroke-miterlimit="10" stroke-linecap="round" stroke-linejoin="round"/>
<path d="M11.2812 10C11.7645 10 12.1562 9.60825 12.1562 9.125C12.1562 8.64175 11.7645 8.25 11.2812 8.25C10.798 8.25 10.4062 8.64175 10.4062 9.125C10.4062 9.60825 10.798 10 11.2812 10Z" stroke="url(#paint21_linear_174_1034)" stroke-miterlimit="10" stroke-linecap="round" stroke-linejoin="round"/>
<path d="M20.5938 10C21.077 10 21.4688 9.60825 21.4688 9.125C21.4688 8.64175 21.077 8.25 20.5938 8.25C20.1105 8.25 19.7188 8.64175 19.7188 9.125C19.7188 9.60825 20.1105 10 20.5938 10Z" stroke="url(#paint22_linear_174_1034)" stroke-miterlimit="10" stroke-linecap="round" stroke-linejoin="round"/>
<path d="M11.2812 23.8125C11.7645 23.8125 12.1562 23.4207 12.1562 22.9375C12.1562 22.4543 11.7645 22.0625 11.2812 22.0625C10.798 22.0625 10.4062 22.4543 10.4062 22.9375C10.4062 23.4207 10.798 23.8125 11.2812 23.8125Z" stroke="url(#paint23_linear_174_1034)" stroke-miterlimit="10" stroke-linecap="round" stroke-linejoin="round"/>
<path d="M20.5938 23.8125C21.077 23.8125 21.4688 23.4207 21.4688 22.9375C21.4688 22.4543 21.077 22.0625 20.5938 22.0625C20.1105 22.0625 19.7188 22.4543 19.7188 22.9375C19.7188 23.4207 20.1105 23.8125 20.5938 23.8125Z" stroke="url(#paint24_linear_174_1034)" stroke-miterlimit="10" stroke-linecap="round" stroke-linejoin="round"/>
<path d="M1.71875 16H5.46875" stroke="url(#paint25_linear_174_1034)" stroke-miterlimit="10" stroke-linecap="round" stroke-linejoin="round"/>
<path d="M30.2812 16H26.5312" stroke="url(#paint26_linear_174_1034)" stroke-miterlimit="10" stroke-linecap="round" stroke-linejoin="round"/>
</g>
<defs>
<linearGradient id="paint0_linear_174_1034" x1="9.04688" y1="6.44578" x2="29.7503" y2="6.44578" gradientUnits="userSpaceOnUse">
<stop stop-color="#B38934"/>
<stop offset="1" stop-color="#E8CC7B"/>
</linearGradient>
<linearGradient id="paint1_linear_174_1034" x1="2.25" y1="8.2145" x2="7.1556" y2="8.2145" gradientUnits="userSpaceOnUse">
<stop stop-color="#B38934"/>
<stop offset="1" stop-color="#E8CC7B"/>
</linearGradient>
<linearGradient id="paint2_linear_174_1034" x1="2.25" y1="25.5534" x2="29.7486" y2="25.5534" gradientUnits="userSpaceOnUse">
<stop stop-color="#B38934"/>
<stop offset="1" stop-color="#E8CC7B"/>
</linearGradient>
<linearGradient id="paint3_linear_174_1034" x1="5.54688" y1="22.2916" x2="8.02956" y2="22.2916" gradientUnits="userSpaceOnUse">
<stop stop-color="#B38934"/>
<stop offset="1" stop-color="#E8CC7B"/>
</linearGradient>
<linearGradient id="paint4_linear_174_1034" x1="9.74219" y1="23.9205" x2="26.4626" y2="23.9205" gradientUnits="userSpaceOnUse">
<stop stop-color="#B38934"/>
<stop offset="1" stop-color="#E8CC7B"/>
</linearGradient>
<linearGradient id="paint5_linear_174_1034" x1="5.54688" y1="8.07591" x2="26.4604" y2="8.07591" gradientUnits="userSpaceOnUse">
<stop stop-color="#B38934"/>
<stop offset="1" stop-color="#E8CC7B"/>
</linearGradient>
<linearGradient id="paint6_linear_174_1034" x1="0.46875" y1="16.0004" x2="31.5312" y2="16.0004" gradientUnits="userSpaceOnUse">
<stop stop-color="#B38934"/>
<stop offset="1" stop-color="#E8CC7B"/>
</linearGradient>
<linearGradient id="paint7_linear_174_1034" x1="22.5156" y1="14.3542" x2="31.528" y2="14.3542" gradientUnits="userSpaceOnUse">
<stop stop-color="#B38934"/>
<stop offset="1" stop-color="#E8CC7B"/>
</linearGradient>
<linearGradient id="paint8_linear_174_1034" x1="22.0703" y1="16.0004" x2="23.0703" y2="16.0004" gradientUnits="userSpaceOnUse">
<stop stop-color="#B38934"/>
<stop offset="1" stop-color="#E8CC7B"/>
</linearGradient>
<linearGradient id="paint9_linear_174_1034" x1="24.7031" y1="16.0004" x2="25.7031" y2="16.0004" gradientUnits="userSpaceOnUse">
<stop stop-color="#B38934"/>
<stop offset="1" stop-color="#E8CC7B"/>
</linearGradient>
<linearGradient id="paint10_linear_174_1034" x1="22.0703" y1="16.4355" x2="24.7011" y2="16.4355" gradientUnits="userSpaceOnUse">
<stop stop-color="#B38934"/>
<stop offset="1" stop-color="#E8CC7B"/>
</linearGradient>
<linearGradient id="paint11_linear_174_1034" x1="7.30469" y1="16.0004" x2="8.8455" y2="16.0004" gradientUnits="userSpaceOnUse">
<stop stop-color="#B38934"/>
<stop offset="1" stop-color="#E8CC7B"/>
</linearGradient>
<linearGradient id="paint12_linear_174_1034" x1="7.33594" y1="16.4648" x2="8.72606" y2="16.4648" gradientUnits="userSpaceOnUse">
<stop stop-color="#B38934"/>
<stop offset="1" stop-color="#E8CC7B"/>
</linearGradient>
<linearGradient id="paint13_linear_174_1034" x1="14.4609" y1="16.0004" x2="16.0628" y2="16.0004" gradientUnits="userSpaceOnUse">
<stop stop-color="#B38934"/>
<stop offset="1" stop-color="#E8CC7B"/>
</linearGradient>
<linearGradient id="paint14_linear_174_1034" x1="14.4688" y1="16.4999" x2="15.8823" y2="16.4999" gradientUnits="userSpaceOnUse">
<stop stop-color="#B38934"/>
<stop offset="1" stop-color="#E8CC7B"/>
</linearGradient>
<linearGradient id="paint15_linear_174_1034" x1="17.8438" y1="16.0003" x2="20.2831" y2="16.0003" gradientUnits="userSpaceOnUse">
<stop stop-color="#B38934"/>
<stop offset="1" stop-color="#E8CC7B"/>
</linearGradient>
<linearGradient id="paint16_linear_174_1034" x1="11.0781" y1="16.9903" x2="12.6751" y2="16.9903" gradientUnits="userSpaceOnUse">
<stop stop-color="#B38934"/>
<stop offset="1" stop-color="#E8CC7B"/>
</linearGradient>
<linearGradient id="paint17_linear_174_1034" x1="10.625" y1="16.9903" x2="11.625" y2="16.9903" gradientUnits="userSpaceOnUse">
<stop stop-color="#B38934"/>
<stop offset="1" stop-color="#E8CC7B"/>
</linearGradient>
<linearGradient id="paint18_linear_174_1034" x1="10.6251" y1="15.09" x2="12.678" y2="15.09" gradientUnits="userSpaceOnUse">
<stop stop-color="#B38934"/>
<stop offset="1" stop-color="#E8CC7B"/>
</linearGradient>
<linearGradient id="paint19_linear_174_1034" x1="14.0312" y1="8.12494" x2="17.9533" y2="8.12494" gradientUnits="userSpaceOnUse">
<stop stop-color="#B38934"/>
<stop offset="1" stop-color="#E8CC7B"/>
</linearGradient>
<linearGradient id="paint20_linear_174_1034" x1="14.039" y1="23.875" x2="17.961" y2="23.875" gradientUnits="userSpaceOnUse">
<stop stop-color="#B38934"/>
<stop offset="1" stop-color="#E8CC7B"/>
</linearGradient>
<linearGradient id="paint21_linear_174_1034" x1="10.4062" y1="9.125" x2="12.1562" y2="9.125" gradientUnits="userSpaceOnUse">
<stop stop-color="#B38934"/>
<stop offset="1" stop-color="#E8CC7B"/>
</linearGradient>
<linearGradient id="paint22_linear_174_1034" x1="19.7188" y1="9.125" x2="21.4688" y2="9.125" gradientUnits="userSpaceOnUse">
<stop stop-color="#B38934"/>
<stop offset="1" stop-color="#E8CC7B"/>
</linearGradient>
<linearGradient id="paint23_linear_174_1034" x1="10.4062" y1="22.9375" x2="12.1562" y2="22.9375" gradientUnits="userSpaceOnUse">
<stop stop-color="#B38934"/>
<stop offset="1" stop-color="#E8CC7B"/>
</linearGradient>
<linearGradient id="paint24_linear_174_1034" x1="19.7188" y1="22.9375" x2="21.4688" y2="22.9375" gradientUnits="userSpaceOnUse">
<stop stop-color="#B38934"/>
<stop offset="1" stop-color="#E8CC7B"/>
</linearGradient>
<linearGradient id="paint25_linear_174_1034" x1="1.71875" y1="16.5" x2="5.46875" y2="16.5" gradientUnits="userSpaceOnUse">
<stop stop-color="#B38934"/>
<stop offset="1" stop-color="#E8CC7B"/>
</linearGradient>
<linearGradient id="paint26_linear_174_1034" x1="26.5312" y1="16.5" x2="30.2812" y2="16.5" gradientUnits="userSpaceOnUse">
<stop stop-color="#B38934"/>
<stop offset="1" stop-color="#E8CC7B"/>
</linearGradient>
<clipPath id="clip0_174_1034">
<rect width="32" height="32" fill="white"/>
</clipPath>
</defs>
</svg>
