<svg width="32" height="32" viewBox="0 0 32 32" fill="none" xmlns="http://www.w3.org/2000/svg">
<g clip-path="url(#clip0_174_1082)">
<path d="M11.3093 17.8482C10.6073 18.2932 9.80843 18.5625 8.98028 18.6333C8.72762 17.71 7.89001 17.0688 6.93281 17.0658H4.26615C3.08794 17.0658 2.13281 18.0209 2.13281 19.1991V29.8658C2.13281 31.044 3.08794 31.9991 4.26615 31.9991H6.93281C7.89838 31.9953 8.741 31.3434 8.98721 30.4098C9.44007 30.4336 9.88392 30.5455 10.2939 30.7394C10.4997 30.837 10.6965 30.9527 10.8939 31.0669C11.1883 31.2464 11.495 31.4051 11.8117 31.5415C12.6375 31.8567 13.5157 32.0119 14.3995 31.9991H23.9995C24.7882 31.9987 25.5123 31.5633 25.8823 30.8668C26.2524 30.1703 26.208 29.3265 25.7669 28.6727C26.3922 28.4576 26.8815 27.9635 27.0906 27.3362C27.2997 26.7089 27.2047 26.02 26.8336 25.4727C27.6176 25.2044 28.1733 24.5037 28.2558 23.6792C28.3384 22.8546 27.9328 22.0576 27.2176 21.6391C27.5482 21.2578 27.731 20.7705 27.7328 20.2658C27.7328 19.0876 26.7777 18.1325 25.5995 18.1325H18.8624C19.6965 16.5442 21.2123 12.9938 19.7371 10.4114C19.088 9.27699 17.7317 8.38953 16.2912 9.12339C14.7883 9.88713 15.1248 11.3959 15.2869 12.1202C15.7003 13.9783 14.3621 15.9058 11.3093 17.8482ZM6.93281 30.9325H4.26615C3.67704 30.9325 3.19948 30.4549 3.19948 29.8658V19.1991C3.19948 18.61 3.67704 18.1325 4.26615 18.1325H6.93281C7.52192 18.1325 7.99948 18.61 7.99948 19.1991V29.8658C7.99948 30.4549 7.52192 30.9325 6.93281 30.9325ZM16.328 11.8882C16.0869 10.8093 16.1952 10.3687 16.7749 10.0749C17.7157 9.59486 18.4981 10.3949 18.8112 10.9415C20.4053 13.733 17.5253 18.3341 17.496 18.3805C17.392 18.5447 17.3856 18.7524 17.4793 18.9228C17.5729 19.0931 17.7518 19.199 17.9461 19.1991H25.5995C26.1886 19.1991 26.6661 19.6767 26.6661 20.2658C26.6661 20.8549 26.1886 21.3325 25.5995 21.3325H22.3995C22.1049 21.3325 21.8661 21.5712 21.8661 21.8658C21.8661 22.1603 22.1049 22.3991 22.3995 22.3991H26.1328C26.7219 22.3991 27.1995 22.8767 27.1995 23.4658C27.1995 24.0549 26.7219 24.5325 26.1328 24.5325H22.3995C22.1049 24.5325 21.8661 24.7712 21.8661 25.0658C21.8661 25.3603 22.1049 25.5991 22.3995 25.5991H25.0661C25.6553 25.5991 26.1328 26.0767 26.1328 26.6658C26.1328 27.2549 25.6553 27.7325 25.0661 27.7325H22.3995C22.1049 27.7325 21.8661 27.9712 21.8661 28.2658C21.8661 28.5603 22.1049 28.7991 22.3995 28.7991H23.9995C24.5886 28.7991 25.0661 29.2767 25.0661 29.8658C25.0661 30.4549 24.5886 30.9325 23.9995 30.9325H14.3995C13.6531 30.9455 12.9111 30.8166 12.2128 30.5527C11.9425 30.4348 11.6808 30.2983 11.4293 30.1442C11.2075 30.0151 10.9845 29.8871 10.7536 29.7767C10.2237 29.5275 9.65081 29.3826 9.06615 29.3501V19.7063C10.0682 19.6176 11.034 19.2882 11.8816 18.7463C15.3536 16.5394 16.8496 14.2317 16.328 11.8882Z" fill="url(#paint0_linear_174_1082)"/>
<path d="M22.4064 0.517304V0.528504V0.53277C22.4064 0.729037 22.3578 5.33277 18.1349 5.33277C17.8403 5.33277 17.6016 5.57155 17.6016 5.8661C17.6016 6.16066 17.8403 6.39944 18.1349 6.39944C22.3413 6.39944 22.4058 11.0042 22.4064 11.1994C22.4024 11.494 22.6379 11.736 22.9325 11.74C23.227 11.7439 23.4691 11.5084 23.473 11.2138V11.2026V11.1994C23.473 11.0032 23.5216 6.39944 27.745 6.39944C28.0396 6.39944 28.2784 6.16066 28.2784 5.8661C28.2784 5.57155 28.0396 5.33277 27.745 5.33277C23.5381 5.33277 23.4741 0.72797 23.473 0.53277C23.477 0.238219 23.2414 -0.00378644 22.9469 -0.00776289C22.6523 -0.0117393 22.4103 0.223819 22.4064 0.518371V0.517304ZM25.313 5.8661C24.2209 6.44222 23.3767 7.39733 22.9392 8.55197C22.5018 7.39717 21.6576 6.44199 20.5653 5.8661C21.6576 5.29022 22.5018 4.33503 22.9392 3.18024C23.3767 4.33488 24.2209 5.28999 25.313 5.8661Z" fill="url(#paint1_linear_174_1082)"/>
<path d="M9.06354 6.93337V6.93017C9.06266 6.63562 8.82316 6.39756 8.52861 6.39844C8.23406 6.39932 7.99599 6.63882 7.99688 6.93337C7.99688 7.06404 7.95208 10.1334 5.33021 10.1334C5.03566 10.1334 4.79688 10.3722 4.79688 10.6667C4.79688 10.9613 5.03566 11.2 5.33021 11.2C7.95208 11.2 7.99688 14.2704 7.99688 14.4V14.4032C7.99776 14.6978 8.23726 14.9359 8.53181 14.935C8.82636 14.9341 9.06443 14.6946 9.06354 14.4C9.06354 14.2694 9.10834 11.2 11.7302 11.2C12.0248 11.2 12.2635 10.9613 12.2635 10.6667C12.2635 10.3722 12.0248 10.1334 11.7302 10.1334C9.10834 10.1334 9.06354 7.06297 9.06354 6.93337ZM9.78034 10.6667C9.2403 11.0269 8.80821 11.527 8.53021 12.1136C8.2522 11.527 7.82012 11.0269 7.28008 10.6667C7.82022 10.3066 8.25234 9.80647 8.53021 9.21977C8.80808 9.80647 9.24019 10.3066 9.78034 10.6667Z" fill="url(#paint2_linear_174_1082)"/>
<path d="M27.1974 11.1992C26.9028 11.1992 26.6641 11.438 26.6641 11.7326V12.7992C26.6641 13.0938 26.9028 13.3326 27.1974 13.3326C27.4919 13.3326 27.7307 13.0938 27.7307 12.7992V11.7326C27.7307 11.438 27.4919 11.1992 27.1974 11.1992Z" fill="url(#paint3_linear_174_1082)"/>
<path d="M27.1974 16.5337C27.4919 16.5337 27.7307 16.2949 27.7307 16.0004V14.9337C27.7307 14.6392 27.4919 14.4004 27.1974 14.4004C26.9028 14.4004 26.6641 14.6392 26.6641 14.9337V16.0004C26.6641 16.2949 26.9028 16.5337 27.1974 16.5337Z" fill="url(#paint4_linear_174_1082)"/>
<path d="M28.2677 14.3987H29.3344C29.6289 14.3987 29.8677 14.1599 29.8677 13.8654C29.8677 13.5708 29.6289 13.332 29.3344 13.332H28.2677C27.9732 13.332 27.7344 13.5708 27.7344 13.8654C27.7344 14.1599 27.9732 14.3987 28.2677 14.3987Z" fill="url(#paint5_linear_174_1082)"/>
<path d="M26.1313 14.3987C26.4258 14.3987 26.6646 14.1599 26.6646 13.8654C26.6646 13.5708 26.4258 13.332 26.1313 13.332H25.0646C24.77 13.332 24.5312 13.5708 24.5312 13.8654C24.5312 14.1599 24.77 14.3987 25.0646 14.3987H26.1313Z" fill="url(#paint6_linear_174_1082)"/>
<path d="M13.7566 4.90915L14.5566 5.70915C14.7659 5.91127 15.0985 5.90838 15.3042 5.70266C15.5099 5.49693 15.5128 5.16429 15.3107 4.95502L14.5107 4.15502C14.3768 4.01638 14.1785 3.96077 13.992 4.00958C13.8056 4.05839 13.66 4.20401 13.6111 4.39048C13.5623 4.57695 13.6179 4.77525 13.7566 4.90915Z" fill="url(#paint7_linear_174_1082)"/>
<path d="M12.1528 3.30932C12.3621 3.51143 12.6948 3.50854 12.9005 3.30282C13.1062 3.09709 13.1091 2.76445 12.907 2.55518L12.107 1.75518C11.8977 1.55306 11.5651 1.55595 11.3593 1.76168C11.1536 1.9674 11.1507 2.30005 11.3528 2.50932L12.1528 3.30932Z" fill="url(#paint8_linear_174_1082)"/>
<path d="M11.3593 5.70915C11.5675 5.91736 11.9051 5.91736 12.1134 5.70915L12.9134 4.90915C13.0521 4.77525 13.1077 4.57695 13.0588 4.39048C13.01 4.20401 12.8644 4.05839 12.6779 4.00958C12.4915 3.96077 12.2932 4.01638 12.1593 4.15502L11.3593 4.95502C11.1511 5.16329 11.1511 5.50089 11.3593 5.70915Z" fill="url(#paint9_linear_174_1082)"/>
<path d="M14.1348 3.46698C14.2762 3.46695 14.4119 3.41074 14.5119 3.31072L15.3119 2.51072C15.4505 2.37681 15.5061 2.17852 15.4573 1.99205C15.4085 1.80558 15.2629 1.65995 15.0764 1.61115C14.8899 1.56234 14.6916 1.61794 14.5577 1.75658L13.7577 2.55658C13.6052 2.70911 13.5596 2.93847 13.6422 3.13773C13.7247 3.337 13.9191 3.46694 14.1348 3.46698Z" fill="url(#paint10_linear_174_1082)"/>
</g>
<defs>
<linearGradient id="paint0_linear_174_1082" x1="2.13281" y1="20.4277" x2="28.2664" y2="20.4277" gradientUnits="userSpaceOnUse">
<stop stop-color="#B38934"/>
<stop offset="1" stop-color="#E8CC7B"/>
</linearGradient>
<linearGradient id="paint1_linear_174_1082" x1="17.6016" y1="5.8661" x2="28.2784" y2="5.8661" gradientUnits="userSpaceOnUse">
<stop stop-color="#B38934"/>
<stop offset="1" stop-color="#E8CC7B"/>
</linearGradient>
<linearGradient id="paint2_linear_174_1082" x1="4.79688" y1="10.6667" x2="12.2635" y2="10.6667" gradientUnits="userSpaceOnUse">
<stop stop-color="#B38934"/>
<stop offset="1" stop-color="#E8CC7B"/>
</linearGradient>
<linearGradient id="paint3_linear_174_1082" x1="26.6641" y1="12.2659" x2="27.7307" y2="12.2659" gradientUnits="userSpaceOnUse">
<stop stop-color="#B38934"/>
<stop offset="1" stop-color="#E8CC7B"/>
</linearGradient>
<linearGradient id="paint4_linear_174_1082" x1="26.6641" y1="15.4671" x2="27.7307" y2="15.4671" gradientUnits="userSpaceOnUse">
<stop stop-color="#B38934"/>
<stop offset="1" stop-color="#E8CC7B"/>
</linearGradient>
<linearGradient id="paint5_linear_174_1082" x1="27.7344" y1="13.8654" x2="29.8677" y2="13.8654" gradientUnits="userSpaceOnUse">
<stop stop-color="#B38934"/>
<stop offset="1" stop-color="#E8CC7B"/>
</linearGradient>
<linearGradient id="paint6_linear_174_1082" x1="24.5312" y1="13.8654" x2="26.6646" y2="13.8654" gradientUnits="userSpaceOnUse">
<stop stop-color="#B38934"/>
<stop offset="1" stop-color="#E8CC7B"/>
</linearGradient>
<linearGradient id="paint7_linear_174_1082" x1="13.5938" y1="4.92553" x2="15.4604" y2="4.92553" gradientUnits="userSpaceOnUse">
<stop stop-color="#B38934"/>
<stop offset="1" stop-color="#E8CC7B"/>
</linearGradient>
<linearGradient id="paint8_linear_174_1082" x1="11.2031" y1="2.53225" x2="13.0567" y2="2.53225" gradientUnits="userSpaceOnUse">
<stop stop-color="#B38934"/>
<stop offset="1" stop-color="#E8CC7B"/>
</linearGradient>
<linearGradient id="paint9_linear_174_1082" x1="11.2031" y1="4.92875" x2="13.0762" y2="4.92875" gradientUnits="userSpaceOnUse">
<stop stop-color="#B38934"/>
<stop offset="1" stop-color="#E8CC7B"/>
</linearGradient>
<linearGradient id="paint10_linear_174_1082" x1="13.6016" y1="2.53037" x2="15.4747" y2="2.53037" gradientUnits="userSpaceOnUse">
<stop stop-color="#B38934"/>
<stop offset="1" stop-color="#E8CC7B"/>
</linearGradient>
<clipPath id="clip0_174_1082">
<rect width="32" height="32" fill="white"/>
</clipPath>
</defs>
</svg>
