<svg width="32" height="32" viewBox="0 0 32 32" fill="none" xmlns="http://www.w3.org/2000/svg">
<path d="M26.75 18.325V8.99997C26.7504 8.91187 26.7274 8.82523 26.6835 8.74885C26.6396 8.67246 26.5763 8.60903 26.5 8.56497L14.375 1.56497C14.299 1.52109 14.2128 1.49799 14.125 1.49799C14.0372 1.49799 13.951 1.52109 13.875 1.56497L1.75 8.56497C1.6737 8.60903 1.61039 8.67246 1.56649 8.74885C1.52259 8.82523 1.49965 8.91187 1.5 8.99997V23C1.49965 23.0881 1.52259 23.1747 1.56649 23.2511C1.61039 23.3275 1.6737 23.3909 1.75 23.435L13.875 30.435C13.951 30.4789 14.0372 30.502 14.125 30.502C14.2128 30.502 14.299 30.4789 14.375 30.435L18.93 27.805C19.4978 28.6004 20.2409 29.2546 21.102 29.7168C21.9631 30.1791 22.919 30.437 23.8957 30.4706C24.8724 30.5042 25.8438 30.3126 26.7346 29.9107C27.6254 29.5088 28.4118 28.9072 29.0329 28.1527C29.654 27.3982 30.0932 26.5108 30.3164 25.5594C30.5396 24.6079 30.541 23.6178 30.3202 22.6658C30.0995 21.7137 29.6627 20.8252 29.0436 20.0691C28.4245 19.3129 27.6398 18.7093 26.75 18.305V18.325ZM14.125 2.57497L25.25 8.99997L19.67 12.22L9.34 5.33997L14.125 2.57497ZM14.125 15.425L3 8.99997L8.375 5.89497L18.7 12.78L14.125 15.425ZM2.5 9.86497L13.625 16.29V29.135L2.5 22.71V9.86497ZM14.625 29.135V16.29L19.125 13.675V17.57C19.125 17.7026 19.1777 17.8298 19.2715 17.9235C19.3652 18.0173 19.4924 18.07 19.625 18.07C19.7576 18.07 19.8848 18.0173 19.9786 17.9235C20.0723 17.8298 20.125 17.7026 20.125 17.57V13.1L25.725 9.86497V17.97C25.1954 17.8252 24.649 17.7513 24.1 17.75C23.018 17.7527 21.9545 18.0313 21.0101 18.5593C20.0657 19.0873 19.2714 19.8474 18.7024 20.7677C18.1334 21.6881 17.8084 22.7383 17.7581 23.8191C17.7078 24.9 17.9339 25.9758 18.415 26.945L14.625 29.135ZM24.125 29.5C23.0619 29.5 22.0227 29.1847 21.1388 28.5941C20.2549 28.0035 19.566 27.164 19.1592 26.1819C18.7523 25.1997 18.6459 24.119 18.8533 23.0764C19.0607 22.0337 19.5726 21.076 20.3243 20.3243C21.076 19.5726 22.0337 19.0606 23.0764 18.8533C24.119 18.6459 25.1998 18.7523 26.1819 19.1591C27.1641 19.5659 28.0035 20.2549 28.5942 21.1388C29.1848 22.0227 29.5 23.0619 29.5 24.125C29.4987 25.5501 28.932 26.9165 27.9242 27.9242C26.9165 28.9319 25.5501 29.4986 24.125 29.5Z" fill="url(#paint0_linear_174_1026)"/>
<path d="M26.4995 21.53L23.3995 25.62L21.7745 23.71C21.6889 23.6072 21.5661 23.5426 21.4329 23.5304C21.2998 23.5182 21.1672 23.5594 21.0645 23.645C20.9617 23.7305 20.8971 23.8533 20.8849 23.9865C20.8727 24.1196 20.9139 24.2522 20.9995 24.355L22.9995 26.745C23.0464 26.7998 23.1047 26.8439 23.1703 26.8741C23.2359 26.9043 23.3072 26.92 23.3795 26.92C23.4545 26.9177 23.5281 26.8985 23.5948 26.8639C23.6614 26.8293 23.7194 26.7801 23.7645 26.72L27.2395 22.135C27.3046 22.0916 27.3586 22.0336 27.3973 21.9656C27.4359 21.8975 27.458 21.8214 27.4619 21.7432C27.4657 21.6651 27.4512 21.5871 27.4194 21.5156C27.3876 21.4442 27.3395 21.3811 27.2789 21.3316C27.2184 21.2821 27.147 21.2475 27.0707 21.2305C26.9943 21.2136 26.915 21.2148 26.8392 21.2341C26.7633 21.2534 26.6931 21.2902 26.6341 21.3416C26.5751 21.393 26.529 21.4575 26.4995 21.53Z" fill="url(#paint1_linear_174_1026)"/>
<defs>
<linearGradient id="paint0_linear_174_1026" x1="1.5" y1="16" x2="30.4848" y2="16" gradientUnits="userSpaceOnUse">
<stop stop-color="#B38934"/>
<stop offset="1" stop-color="#E8CC7B"/>
</linearGradient>
<linearGradient id="paint1_linear_174_1026" x1="20.8828" y1="24.0693" x2="27.4625" y2="24.0693" gradientUnits="userSpaceOnUse">
<stop stop-color="#B38934"/>
<stop offset="1" stop-color="#E8CC7B"/>
</linearGradient>
</defs>
</svg>
