<svg width="31" height="40" viewBox="0 0 31 40" fill="none" xmlns="http://www.w3.org/2000/svg">
<path d="M15.0137 9.96777C15.1237 9.96781 15.2317 9.99853 15.3252 10.0566C15.4187 10.1148 15.4942 10.1982 15.543 10.2969L16.9648 13.1797L17.0117 13.2734L17.1162 13.2891L20.2959 13.751H20.2969C20.6192 13.7976 20.8431 14.0963 20.7969 14.4189C20.7783 14.5476 20.718 14.6671 20.625 14.7578L18.3232 17.001L18.248 17.0742L18.2656 17.1777L18.8096 20.3457C18.8278 20.4543 18.8152 20.5661 18.7734 20.668C18.7316 20.7699 18.6616 20.8584 18.5723 20.9229C18.483 20.9872 18.3773 21.0246 18.2676 21.0322C18.1577 21.0398 18.0475 21.0174 17.9502 20.9658V20.9648L15.1045 19.4727L15.0117 19.4238L14.9189 19.4727L12.0742 20.9648L12.0723 20.9658C11.9879 21.0111 11.8936 21.0343 11.7979 21.0352C11.7122 21.035 11.6275 21.0175 11.5498 20.9814C11.4719 20.9452 11.4031 20.8919 11.3477 20.8262C11.2923 20.7605 11.252 20.6835 11.2295 20.6006C11.2069 20.5176 11.2023 20.4304 11.2168 20.3457L11.7607 17.1777L11.7783 17.0742L11.7031 17.001L9.40137 14.7578C9.32249 14.6809 9.26659 14.5826 9.24023 14.4756C9.21403 14.3688 9.21889 14.2569 9.25293 14.1523C9.28705 14.0476 9.34929 13.9538 9.43359 13.8828C9.49689 13.8296 9.57056 13.7904 9.64941 13.7676L9.72949 13.751L12.9111 13.2891L13.0156 13.2734L13.0615 13.1797L14.4844 10.2969C14.5331 10.1981 14.6086 10.1148 14.7021 10.0566C14.7957 9.99855 14.9036 9.96777 15.0137 9.96777ZM14.832 12.2539L13.9346 14.0732C13.8922 14.159 13.8304 14.2338 13.7529 14.29C13.6755 14.3463 13.585 14.3828 13.4902 14.3965L11.4834 14.6875L11.082 14.7461L11.3721 15.0293L12.8242 16.4453C12.8931 16.5123 12.945 16.5951 12.9746 16.6865C13.0042 16.7779 13.0106 16.8751 12.9941 16.9697V16.9707L12.6514 18.9697L12.582 19.3691L12.9414 19.1807L14.7373 18.2373L14.7383 18.2363C14.8227 18.191 14.9169 18.1668 15.0127 18.166C15.1084 18.1652 15.203 18.1876 15.2881 18.2314V18.2305L17.082 19.1748L17.4414 19.3633L17.3721 18.9639L17.0303 16.9648V16.9639L17.0215 16.8926C17.0178 16.821 17.0276 16.7492 17.0498 16.6807C17.0794 16.5892 17.1313 16.5065 17.2002 16.4395L18.6523 15.0234L18.9434 14.7402L18.541 14.6826L16.5332 14.3965C16.4387 14.3828 16.3489 14.3461 16.2715 14.29C16.194 14.2338 16.1313 14.1591 16.0889 14.0732L15.1914 12.2539L15.0117 11.8906L14.832 12.2539Z" fill="url(#paint0_linear_174_1074)" stroke="black" stroke-width="0.4"/>
<path d="M15.0107 5.59277C20.5801 5.59277 25.0947 10.1075 25.0947 15.6768L25.0811 16.1953C24.8056 21.521 20.4036 25.7546 15.0107 25.7607L14.4922 25.748C9.16386 25.4781 4.92676 21.0722 4.92676 15.6768C4.92677 10.1075 9.44144 5.59278 15.0107 5.59277ZM15.0107 6.77344C10.0934 6.77345 6.10743 10.7594 6.10742 15.6768C6.10742 20.5941 10.0934 24.5801 15.0107 24.5801C19.9281 24.5801 23.9141 20.5942 23.9141 15.6768L23.9023 15.2188C23.6592 10.5167 19.7722 6.77874 15.0107 6.77344Z" fill="url(#paint1_linear_174_1074)" stroke="black" stroke-width="0.4"/>
<mask id="path-3-inside-1_174_1074" fill="white">
<path d="M29.4838 17.8077L28.0051 18.367C28.2352 18.9755 28.5215 19.7325 28.4231 20.0354C28.3124 20.3761 27.6425 20.8126 27.0506 21.198C26.3481 21.6564 25.5491 22.1762 25.0002 22.9313C24.4514 23.6865 24.1924 24.6217 23.9702 25.4383C23.7946 26.0802 23.5786 26.8793 23.2985 27.083C23.0184 27.2867 22.207 27.2419 21.5423 27.2103C20.6932 27.1699 19.7308 27.1225 18.8255 27.4193C17.9474 27.7038 17.2178 28.2974 16.5715 28.8181C16.0174 29.266 15.3887 29.7735 15.0103 29.7735C14.6319 29.7735 14.003 29.266 13.4482 28.8164C12.8019 28.2939 12.0696 27.7021 11.195 27.4185C10.6945 27.256 10.1334 27.1806 9.42832 27.1806C9.10254 27.1806 8.7838 27.1954 8.47649 27.2104C7.81708 27.242 6.99688 27.2807 6.72559 27.0831C6.4543 26.8855 6.22858 26.0785 6.05299 25.4366C5.83084 24.6191 5.5797 23.6936 5.02383 22.9296C4.46797 22.1657 3.67684 21.6555 2.97258 21.1963C2.38166 20.8109 1.71165 20.3744 1.60097 20.0338C1.5026 19.7326 1.78977 18.9748 2.01986 18.3654C2.32459 17.5601 2.66874 16.6478 2.66874 15.6766C2.66874 14.7054 2.32361 13.7931 2.01896 12.9879C1.78888 12.3794 1.5026 11.6216 1.60008 11.3195C1.71075 10.9788 2.38068 10.5424 2.97258 10.156C3.67506 9.69765 4.47323 9.17782 5.02294 8.42361C5.57266 7.66932 5.83075 6.73327 6.05299 5.91664C6.22858 5.27471 6.44458 4.47565 6.7247 4.27196C7.00482 4.06827 7.81619 4.11304 8.47649 4.14461C9.32558 4.18501 10.2889 4.23245 11.1986 3.93566C12.0766 3.65117 12.8054 3.05758 13.4526 2.53685C14.0023 2.08729 14.6311 1.58056 15.0095 1.58056C15.3878 1.58056 16.0167 2.0872 16.5707 2.53676C17.217 3.05918 17.9492 3.65108 18.8247 3.93557C19.7309 4.22969 20.6941 4.18402 21.5468 4.14452C22.2062 4.11375 23.0264 4.07513 23.2977 4.27187C23.569 4.4686 23.7903 5.27373 23.9659 5.91655C24.1881 6.73407 24.4392 7.65959 24.9951 8.42352C25.5509 9.18745 26.3421 9.69854 27.0463 10.1568C27.6373 10.5423 28.3073 10.9787 28.4188 11.3194C28.5172 11.6215 28.23 12.3792 27.9999 12.9878C27.6952 13.793 27.3502 14.7062 27.3502 15.6765C27.3502 16.6468 27.6953 17.56 27.9999 18.3653L28.7393 18.086L29.4786 17.8068C29.1967 17.0622 28.9306 16.3589 28.9306 15.6765C28.9306 14.9942 29.1941 14.2909 29.4777 13.5463C29.8439 12.5803 30.1907 11.661 29.9211 10.8312C29.6375 9.95931 28.7585 9.38677 27.9085 8.83268C27.2939 8.42967 26.6511 8.01346 26.2727 7.49363C25.8942 6.97379 25.6861 6.22128 25.4903 5.50212C25.2137 4.48528 24.9529 3.52462 24.2232 2.99426C23.4935 2.4639 22.5144 2.5166 21.4678 2.56574C20.7187 2.60088 19.9434 2.63771 19.3121 2.43224C18.715 2.23818 18.1293 1.7649 17.5638 1.3074C16.7655 0.664757 15.9471 0 15.0094 0C14.0716 0 13.2532 0.664757 12.4541 1.30838C11.8886 1.76588 11.303 2.23827 10.7058 2.43233C10.0745 2.63691 9.33334 2.60266 8.55015 2.56583C7.50343 2.51669 6.51477 2.47014 5.79383 2.99435C5.07289 3.51855 4.80338 4.48706 4.52674 5.50301C4.3309 6.22217 4.12899 6.96594 3.74435 7.49452C3.35971 8.0231 2.72751 8.43057 2.1085 8.83358C1.25852 9.38766 0.379545 9.9602 0.0959491 10.8321C-0.173646 11.662 0.17318 12.5778 0.539358 13.548C0.820368 14.2927 1.0864 14.996 1.0864 15.6774C1.0864 16.3589 0.822954 17.0621 0.539358 17.8077C0.17318 18.7736 -0.173646 19.6939 0.0959491 20.5227C0.379545 21.3955 1.25852 21.9681 2.1085 22.5222C2.72314 22.9252 3.36596 23.3414 3.74346 23.8612C4.12105 24.3811 4.33001 25.1336 4.52585 25.8527C4.6944 26.4744 4.85867 27.0751 5.12737 27.5694L1.92586 35.7568C1.87621 35.8839 1.86036 36.0218 1.87986 36.157C1.89935 36.2921 1.95352 36.4199 2.0371 36.5279C2.12067 36.6358 2.23079 36.7203 2.35672 36.7731C2.48266 36.8258 2.62011 36.8451 2.75569 36.8289L7.23392 36.2933L10.1589 39.7231C10.2478 39.8272 10.3622 39.9064 10.4909 39.9529C10.6196 39.9995 10.7582 40.0118 10.8931 39.9887C11.028 39.9656 11.1546 39.9078 11.2605 39.8211C11.3664 39.7344 11.4479 39.6216 11.4971 39.4939L14.689 31.3277C14.9015 31.3631 15.1184 31.3631 15.331 31.3277L18.5219 39.4939C18.5717 39.6211 18.6536 39.7333 18.7596 39.8194C18.8656 39.9056 18.9922 39.9627 19.1269 39.9854C19.2616 40.008 19.3999 39.9954 19.5283 39.9486C19.6566 39.9019 19.7707 39.8227 19.8593 39.7187L22.7843 36.2889L27.2625 36.8245C27.3976 36.8405 27.5346 36.8213 27.6601 36.7688C27.7856 36.7163 27.8955 36.6323 27.979 36.525C28.0626 36.4176 28.117 36.2904 28.137 36.1558C28.157 36.0213 28.1419 35.8838 28.0932 35.7568L24.8905 27.5677C25.1592 27.0734 25.3225 26.4727 25.492 25.851C25.6869 25.1319 25.8888 24.3881 26.2744 23.8595C26.6598 23.331 27.2912 22.9235 27.9102 22.5205C28.7602 21.9664 29.6401 21.3939 29.9228 20.5219C30.1924 19.6921 29.8464 18.7771 29.4838 17.8077ZM10.5021 37.693L8.16016 34.9454C8.07558 34.8464 7.96783 34.7698 7.8465 34.7224C7.72517 34.6751 7.59402 34.6585 7.46472 34.6741L3.87857 35.1035L6.39785 28.6601C7.02569 28.8603 7.77115 28.8251 8.54917 28.7883C8.83892 28.7742 9.13839 28.7602 9.42725 28.7602C9.96109 28.7602 10.3677 28.8111 10.7057 28.9209C11.3028 29.115 11.8877 29.5874 12.4541 30.0458C12.7175 30.2574 12.9809 30.4708 13.2513 30.6604L10.5021 37.693ZM26.14 35.1035L22.5547 34.6741C22.4253 34.6586 22.2942 34.6754 22.1728 34.7229C22.0515 34.7703 21.9438 34.8471 21.8593 34.9463L19.5165 37.6939L16.7654 30.6621C17.0359 30.4707 17.3011 30.2573 17.5627 30.0475C18.1282 29.59 18.7139 29.1176 19.311 28.9235C19.9415 28.7189 20.6817 28.7532 21.4676 28.79C22.2535 28.8269 22.9911 28.8611 23.6189 28.6618L26.14 35.1035Z"/>
</mask>
<path d="M29.4838 17.8077L28.0051 18.367C28.2352 18.9755 28.5215 19.7325 28.4231 20.0354C28.3124 20.3761 27.6425 20.8126 27.0506 21.198C26.3481 21.6564 25.5491 22.1762 25.0002 22.9313C24.4514 23.6865 24.1924 24.6217 23.9702 25.4383C23.7946 26.0802 23.5786 26.8793 23.2985 27.083C23.0184 27.2867 22.207 27.2419 21.5423 27.2103C20.6932 27.1699 19.7308 27.1225 18.8255 27.4193C17.9474 27.7038 17.2178 28.2974 16.5715 28.8181C16.0174 29.266 15.3887 29.7735 15.0103 29.7735C14.6319 29.7735 14.003 29.266 13.4482 28.8164C12.8019 28.2939 12.0696 27.7021 11.195 27.4185C10.6945 27.256 10.1334 27.1806 9.42832 27.1806C9.10254 27.1806 8.7838 27.1954 8.47649 27.2104C7.81708 27.242 6.99688 27.2807 6.72559 27.0831C6.4543 26.8855 6.22858 26.0785 6.05299 25.4366C5.83084 24.6191 5.5797 23.6936 5.02383 22.9296C4.46797 22.1657 3.67684 21.6555 2.97258 21.1963C2.38166 20.8109 1.71165 20.3744 1.60097 20.0338C1.5026 19.7326 1.78977 18.9748 2.01986 18.3654C2.32459 17.5601 2.66874 16.6478 2.66874 15.6766C2.66874 14.7054 2.32361 13.7931 2.01896 12.9879C1.78888 12.3794 1.5026 11.6216 1.60008 11.3195C1.71075 10.9788 2.38068 10.5424 2.97258 10.156C3.67506 9.69765 4.47323 9.17782 5.02294 8.42361C5.57266 7.66932 5.83075 6.73327 6.05299 5.91664C6.22858 5.27471 6.44458 4.47565 6.7247 4.27196C7.00482 4.06827 7.81619 4.11304 8.47649 4.14461C9.32558 4.18501 10.2889 4.23245 11.1986 3.93566C12.0766 3.65117 12.8054 3.05758 13.4526 2.53685C14.0023 2.08729 14.6311 1.58056 15.0095 1.58056C15.3878 1.58056 16.0167 2.0872 16.5707 2.53676C17.217 3.05918 17.9492 3.65108 18.8247 3.93557C19.7309 4.22969 20.6941 4.18402 21.5468 4.14452C22.2062 4.11375 23.0264 4.07513 23.2977 4.27187C23.569 4.4686 23.7903 5.27373 23.9659 5.91655C24.1881 6.73407 24.4392 7.65959 24.9951 8.42352C25.5509 9.18745 26.3421 9.69854 27.0463 10.1568C27.6373 10.5423 28.3073 10.9787 28.4188 11.3194C28.5172 11.6215 28.23 12.3792 27.9999 12.9878C27.6952 13.793 27.3502 14.7062 27.3502 15.6765C27.3502 16.6468 27.6953 17.56 27.9999 18.3653L28.7393 18.086L29.4786 17.8068C29.1967 17.0622 28.9306 16.3589 28.9306 15.6765C28.9306 14.9942 29.1941 14.2909 29.4777 13.5463C29.8439 12.5803 30.1907 11.661 29.9211 10.8312C29.6375 9.95931 28.7585 9.38677 27.9085 8.83268C27.2939 8.42967 26.6511 8.01346 26.2727 7.49363C25.8942 6.97379 25.6861 6.22128 25.4903 5.50212C25.2137 4.48528 24.9529 3.52462 24.2232 2.99426C23.4935 2.4639 22.5144 2.5166 21.4678 2.56574C20.7187 2.60088 19.9434 2.63771 19.3121 2.43224C18.715 2.23818 18.1293 1.7649 17.5638 1.3074C16.7655 0.664757 15.9471 0 15.0094 0C14.0716 0 13.2532 0.664757 12.4541 1.30838C11.8886 1.76588 11.303 2.23827 10.7058 2.43233C10.0745 2.63691 9.33334 2.60266 8.55015 2.56583C7.50343 2.51669 6.51477 2.47014 5.79383 2.99435C5.07289 3.51855 4.80338 4.48706 4.52674 5.50301C4.3309 6.22217 4.12899 6.96594 3.74435 7.49452C3.35971 8.0231 2.72751 8.43057 2.1085 8.83358C1.25852 9.38766 0.379545 9.9602 0.0959491 10.8321C-0.173646 11.662 0.17318 12.5778 0.539358 13.548C0.820368 14.2927 1.0864 14.996 1.0864 15.6774C1.0864 16.3589 0.822954 17.0621 0.539358 17.8077C0.17318 18.7736 -0.173646 19.6939 0.0959491 20.5227C0.379545 21.3955 1.25852 21.9681 2.1085 22.5222C2.72314 22.9252 3.36596 23.3414 3.74346 23.8612C4.12105 24.3811 4.33001 25.1336 4.52585 25.8527C4.6944 26.4744 4.85867 27.0751 5.12737 27.5694L1.92586 35.7568C1.87621 35.8839 1.86036 36.0218 1.87986 36.157C1.89935 36.2921 1.95352 36.4199 2.0371 36.5279C2.12067 36.6358 2.23079 36.7203 2.35672 36.7731C2.48266 36.8258 2.62011 36.8451 2.75569 36.8289L7.23392 36.2933L10.1589 39.7231C10.2478 39.8272 10.3622 39.9064 10.4909 39.9529C10.6196 39.9995 10.7582 40.0118 10.8931 39.9887C11.028 39.9656 11.1546 39.9078 11.2605 39.8211C11.3664 39.7344 11.4479 39.6216 11.4971 39.4939L14.689 31.3277C14.9015 31.3631 15.1184 31.3631 15.331 31.3277L18.5219 39.4939C18.5717 39.6211 18.6536 39.7333 18.7596 39.8194C18.8656 39.9056 18.9922 39.9627 19.1269 39.9854C19.2616 40.008 19.3999 39.9954 19.5283 39.9486C19.6566 39.9019 19.7707 39.8227 19.8593 39.7187L22.7843 36.2889L27.2625 36.8245C27.3976 36.8405 27.5346 36.8213 27.6601 36.7688C27.7856 36.7163 27.8955 36.6323 27.979 36.525C28.0626 36.4176 28.117 36.2904 28.137 36.1558C28.157 36.0213 28.1419 35.8838 28.0932 35.7568L24.8905 27.5677C25.1592 27.0734 25.3225 26.4727 25.492 25.851C25.6869 25.1319 25.8888 24.3881 26.2744 23.8595C26.6598 23.331 27.2912 22.9235 27.9102 22.5205C28.7602 21.9664 29.6401 21.3939 29.9228 20.5219C30.1924 19.6921 29.8464 18.7771 29.4838 17.8077ZM10.5021 37.693L8.16016 34.9454C8.07558 34.8464 7.96783 34.7698 7.8465 34.7224C7.72517 34.6751 7.59402 34.6585 7.46472 34.6741L3.87857 35.1035L6.39785 28.6601C7.02569 28.8603 7.77115 28.8251 8.54917 28.7883C8.83892 28.7742 9.13839 28.7602 9.42725 28.7602C9.96109 28.7602 10.3677 28.8111 10.7057 28.9209C11.3028 29.115 11.8877 29.5874 12.4541 30.0458C12.7175 30.2574 12.9809 30.4708 13.2513 30.6604L10.5021 37.693ZM26.14 35.1035L22.5547 34.6741C22.4253 34.6586 22.2942 34.6754 22.1728 34.7229C22.0515 34.7703 21.9438 34.8471 21.8593 34.9463L19.5165 37.6939L16.7654 30.6621C17.0359 30.4707 17.3011 30.2573 17.5627 30.0475C18.1282 29.59 18.7139 29.1176 19.311 28.9235C19.9415 28.7189 20.6817 28.7532 21.4676 28.79C22.2535 28.8269 22.9911 28.8611 23.6189 28.6618L26.14 35.1035Z" fill="url(#paint2_linear_174_1074)" stroke="black" stroke-width="0.8" mask="url(#path-3-inside-1_174_1074)"/>
<defs>
<linearGradient id="paint0_linear_174_1074" x1="9.02344" y1="15.5018" x2="21.0028" y2="15.5018" gradientUnits="userSpaceOnUse">
<stop stop-color="#B38934"/>
<stop offset="1" stop-color="#E8CC7B"/>
</linearGradient>
<linearGradient id="paint1_linear_174_1074" x1="4.72656" y1="15.6768" x2="25.295" y2="15.6768" gradientUnits="userSpaceOnUse">
<stop stop-color="#B38934"/>
<stop offset="1" stop-color="#E8CC7B"/>
</linearGradient>
<linearGradient id="paint2_linear_174_1074" x1="0" y1="20" x2="30.0189" y2="20" gradientUnits="userSpaceOnUse">
<stop stop-color="#B38934"/>
<stop offset="1" stop-color="#E8CC7B"/>
</linearGradient>
</defs>
</svg>
